<svg width="242" height="272" viewBox="0 0 242 272" fill="none" xmlns="http://www.w3.org/2000/svg">
<path d="M162.024 44.954C162.024 44.954 160.686 25.2212 175.743 21.2089C190.801 17.1966 196.487 28.566 196.487 28.566C196.487 28.566 200.837 24.8874 203.847 24.8874C206.857 24.8874 207.528 27.8986 207.528 27.8986C207.528 27.8986 219.239 23.55 221.247 24.22C223.256 24.89 208.532 32.5808 189.797 39.938C171.061 47.2951 151.987 53.9848 151.987 53.9848L162.024 44.954Z" fill="#F3E7D9"/>
<path d="M108.678 72.1242C108.678 72.1242 103.431 53.8969 91.9406 50.1506C80.4504 46.4043 79.2002 51.8995 79.2002 51.8995C79.2002 51.8995 82.4487 27.9286 70.956 23.9339C59.4633 19.9391 45.2267 23.4345 34.7332 31.6749C24.2397 39.9153 25.9894 47.9048 28.2388 53.3976C28.2388 53.3976 25.4898 54.3963 21.7443 56.893C17.9962 59.3897 20.2456 65.8811 22.7434 67.1308C22.7434 67.1308 16.7486 67.1308 14.4992 67.1308C12.2499 67.1308 19.9945 70.1268 27.4881 72.8744C33.8947 75.2231 45.051 78.1188 54.3973 80.0007C55.8734 80.2968 56.8726 78.5404 55.8659 77.4237L54.4676 75.8705C54.4676 75.8705 82.2579 80.8639 100.682 83.3606C115.423 85.358 108.678 72.1242 108.678 72.1242Z" fill="#F3E7D9"/>
<path d="M229.654 74.1165C229.654 74.1165 214.951 82.1687 203.27 85.5914C191.589 89.014 186.352 89.4155 186.352 89.4155L208.105 80.7585C208.105 80.7585 212.335 70.6939 216.565 71.0954C220.795 71.4969 222.808 73.7125 222.808 73.7125C222.808 73.7125 226.838 69.6852 228.851 70.6939C230.864 71.7026 229.654 74.1165 229.654 74.1165Z" fill="#F3E7D9"/>
<path d="M115.157 222.73C115.157 222.73 66.1861 226.431 59.6013 226.431C53.0165 226.431 23.7977 229.721 18.4481 229.721C13.0984 229.721 22.5626 233.833 22.5626 233.833L9.80469 242.061L15.5661 246.997C15.5661 246.997 48.4877 251.521 59.1871 251.521C64.9485 251.11 92.1087 243.293 92.1087 243.293L104.867 240.824L129.147 245.348L143.961 242.879L152.193 239.384C152.193 239.384 157.543 237.944 169.066 237.944C180.588 237.944 213.922 238.767 219.271 238.767L221.33 231.362L230.794 224.78L115.157 222.73Z" fill="#856792"/>
<path d="M82.7496 224.785C82.7496 224.785 69.477 223.551 73.4912 226.637C77.5028 229.721 87.6901 228.797 87.6901 228.797C87.6901 228.797 79.0492 229.723 92.6281 232.19C106.209 234.659 169.482 229.412 169.482 229.412C169.482 229.412 170.1 224.785 147.26 224.785C124.42 224.785 82.7496 224.785 82.7496 224.785Z" fill="#665070"/>
<path d="M41.4934 237.949C41.4934 237.949 11.4512 242.884 17.2126 244.942C22.974 246.999 38.1997 245.353 38.1997 245.353L50.9576 248.232C50.9576 248.232 76.0618 240.004 68.6536 239.183C61.2453 238.363 41.4934 237.949 41.4934 237.949Z" fill="#665070"/>
<path d="M90.6731 235.996C90.6731 235.996 83.5535 235.487 83.0439 236.759C82.5343 238.029 90.6731 238.538 92.1994 237.776C93.7257 237.013 90.6731 235.996 90.6731 235.996Z" fill="#665070"/>
<path d="M96.7959 234.672C96.7959 234.672 92.1164 234.338 91.7826 235.173C91.4487 236.009 96.7959 236.343 97.8 235.841C98.8042 235.339 96.7959 234.672 96.7959 234.672Z" fill="#665070"/>
<path d="M189.231 230.647C189.231 230.647 182.132 234.039 188.922 233.116C195.713 232.19 196.331 230.338 189.231 230.647Z" fill="#665070"/>
<path d="M200.651 232.087C200.651 232.087 195.096 230.235 196.022 232.396C196.949 234.554 203.122 233.63 200.651 232.087Z" fill="#665070"/>
<path d="M185.536 230.218C185.536 230.218 179.488 230.842 183.482 231.643C187.476 232.446 188.649 230.78 187.637 230.441C186.625 230.102 185.536 230.218 185.536 230.218Z" fill="#665070"/>
<path d="M216.803 240.827L170.301 239.798L158.057 239.592L147.255 244.528L152.193 249.464C152.193 249.464 154.457 250.698 165.774 251.727C177.091 252.756 207.133 254.811 209.189 254.605C211.248 254.399 218.242 243.705 218.242 243.705L216.803 240.827Z" fill="#665070"/>
<path d="M124.109 248.849C130.591 246.071 104.663 242.37 104.663 242.37C104.663 242.37 70.7122 248.54 79.6618 251.315C79.6618 251.315 117.627 251.624 124.109 248.849Z" fill="#665070"/>
<path d="M138.203 230.75C138.203 230.75 112.072 234.862 119.889 237.331C127.709 239.8 134.944 239.422 134.703 237.743C134.497 236.303 129.971 235.068 129.971 235.068C129.971 235.068 143.141 234.656 143.553 233.216C143.964 231.776 138.203 230.75 138.203 230.75Z" fill="#665070"/>
<path d="M133.984 246.688L144.169 245.762L152.504 251.009L121.638 253.167L126.885 249.775L133.984 246.688Z" fill="#856792"/>
<path d="M94.2731 198.047C94.2731 198.047 88.1779 190.938 83.6064 188.401C79.0349 185.862 77.6818 194.493 81.5755 195.846C81.5755 195.846 79.5445 197.537 79.5445 199.399C79.5445 201.261 79.5445 201.261 79.5445 201.261C79.5445 201.261 76.158 200.076 74.8049 202.445C73.4492 204.814 75.1438 206.337 75.1438 206.337C75.1438 206.337 72.7739 207.521 72.7739 209.215C72.7739 210.909 73.4517 212.093 76.4994 211.923C76.4994 211.923 74.6367 213.785 76.6676 215.308C78.6985 216.831 82.9311 217.847 85.9787 213.616C89.0239 209.386 94.2731 198.047 94.2731 198.047Z" fill="#288453"/>
<path d="M85.1152 176.637C82.7453 175.114 82.0675 176.806 81.5604 178.667C81.0533 180.529 85.1152 180.359 85.1152 180.359C85.1152 180.359 83.9302 180.697 82.5746 181.204C81.219 181.711 84.4373 186.79 87.3143 184.419C90.1962 182.052 85.1152 176.637 85.1152 176.637Z" fill="#288453"/>
<path d="M80.7995 226.017C80.7995 226.017 81.3242 221.624 78.9418 220.755C76.5594 219.887 76.8933 222.301 76.8933 222.301C76.8933 222.301 74.2925 215.014 69.4273 216.881C64.5621 218.748 67.2558 222.833 67.2558 222.833C67.2558 222.833 64.665 215.145 61.7153 220.274C58.763 225.4 61.9814 225.091 61.9814 225.091C61.9814 225.091 56.9204 219.739 55.2936 220.494C53.6694 221.25 55.2259 222.898 55.2259 222.898C55.2259 222.898 46.1457 217.835 42.8169 222.148C39.4881 226.461 44.3081 226.198 44.3081 226.198C44.3081 226.198 27.4682 226.125 31.0179 228.228C34.5676 230.331 41.8579 227.731 46.6553 228.266C51.4527 228.8 80.7995 226.017 80.7995 226.017Z" fill="#33A86D"/>
<path d="M100.993 111.507C96.7301 102.91 93.1854 112.757 93.1854 112.757C88.8323 109.861 86.7914 118.355 90.5645 120.016C90.5645 120.016 88.4031 121.539 88.2549 123.396C88.1068 125.253 88.1068 125.25 88.1068 125.25C88.1068 125.25 84.8257 123.798 83.2868 126.051C81.7479 128.304 83.3119 129.958 83.3119 129.958C83.3119 129.958 80.8542 130.949 80.7187 132.635C80.5831 134.321 81.163 135.556 84.2157 135.631C84.2157 135.631 82.2099 137.337 84.1127 139.019C86.0156 140.7 90.1528 142.05 93.5293 138.078C95.4598 135.807 104.655 135.636 106.551 129.694C107.972 125.243 102.82 115.191 100.993 111.507Z" fill="#33A86D"/>
<path d="M56.905 140.81C49.8557 147.322 60.3066 147.947 60.3066 147.947C58.7551 152.938 67.4838 152.501 68.0135 148.413C68.0135 148.413 70.0872 150.054 71.9097 149.676C73.7323 149.294 73.7323 149.294 73.7323 149.294C73.7323 149.294 73.2628 152.85 75.8611 153.69C78.4594 154.531 79.6041 152.564 79.6041 152.564C79.6041 152.564 81.2485 154.641 82.9053 154.295C84.5622 153.949 85.584 153.045 84.7957 150.097C84.7957 150.097 86.9998 151.54 88.0768 149.239C89.1538 146.94 89.2843 142.592 84.517 140.474C81.7932 139.265 79.0368 130.492 72.7984 130.349C68.1215 130.244 59.925 138.02 56.905 140.81Z" fill="#33A86D"/>
<path d="M108.778 143.081C108.778 143.081 106.519 130.108 103.203 130.254C99.8863 130.399 102.397 135.142 102.397 135.142C102.397 135.142 97.77 131.057 95.5232 133.353C93.2764 135.649 96.0805 136.698 96.0805 136.698C96.0805 136.698 90.4848 139.551 93.2889 140.6C96.093 141.648 97.9332 139.322 97.9332 139.322C97.9332 139.322 97.7173 147.146 100.408 144.474C103.1 141.802 104.119 139.408 104.119 139.408C104.119 139.408 104.049 150.544 108.778 143.081Z" fill="#288453"/>
<path d="M120.742 119.238C120.742 119.238 127.596 116.398 122.214 113.492C116.831 110.586 118.855 115.105 118.855 115.105C118.855 115.105 121.94 112.714 116.927 108.371C111.911 104.027 113.337 111.811 113.337 111.811C113.337 111.811 111.198 108.202 108.73 108.632C106.265 109.061 103.315 111.841 107.374 113.467C107.374 113.467 98.6759 114.777 100.657 116.696C102.64 118.616 103.94 118.596 103.94 118.596C103.94 118.596 98.2516 121.027 99.8683 124.385C101.485 127.742 104.957 125.215 104.957 125.215C104.957 125.215 104.734 135.757 113.025 133.282C121.317 130.808 113.312 126.643 113.312 126.643C113.312 126.643 122.209 129.624 120.321 125.491C118.433 121.358 115.4 118.935 115.4 118.935C115.4 118.935 124.885 126.068 120.742 119.238Z" fill="#288453"/>
<path d="M103.513 131.519C103.513 131.519 101.382 127.22 106.305 127.617C111.228 128.013 108.813 132.357 108.813 132.357C108.813 132.357 111.572 128.864 112.505 132.653C113.439 136.442 111.634 138.359 111.634 138.359C111.634 138.359 116.133 133.767 116.08 139.541C116.03 145.314 112.159 142.115 112.159 142.115C112.159 142.115 111.288 147.821 108.416 147.593C105.544 147.365 107.106 143.36 107.106 143.36C107.106 143.36 95.2564 146.948 97.3602 141.34C99.4614 135.732 101.184 139.997 101.184 139.997C101.184 139.997 95.7033 136.256 97.576 133.518C99.4438 130.778 103.513 131.519 103.513 131.519Z" fill="#33A86D"/>
<path d="M92.7942 178C92.7942 178 79.5166 158.787 80.8747 151.116C82.2329 143.448 80.571 131.832 74.3301 126.515L75.274 123.998C75.274 123.998 83.3575 129.461 83.6939 139.119C84.0303 148.775 81.9216 151.939 83.217 154.265C84.5123 156.591 84.5123 156.591 84.5123 156.591L89.242 148.454L88.9809 133.247L90.6026 131.526L91.4812 148.263L87.2211 159.773L94.8603 170.756L92.7942 178Z" fill="#7A462F"/>
<path d="M52.0549 134.813C52.0549 134.813 48.5754 137.009 51.3469 138.469C54.1184 139.93 55.336 135.077 55.336 135.077C55.336 135.077 51.5603 140.963 55.1201 142.901C58.6798 144.838 60.7811 139.229 60.7811 139.229C60.7811 139.229 60.6982 145.412 64.012 145.267C67.3257 145.121 66.8688 140.544 66.8688 140.544C66.8688 140.544 67.6722 145.974 70.9056 141.694C74.139 137.413 69.791 135.001 69.791 135.001C69.791 135.001 78.2912 131.97 74.7314 130.033C71.1717 128.096 70.1851 130.081 70.1851 130.081C70.1851 130.081 70.4989 121.027 67.5943 121.208C64.6898 121.389 64.5241 123.439 64.5241 123.439C64.5241 123.439 58.7526 113.07 58.0447 116.729C57.3368 120.387 59.192 123.012 59.192 123.012C59.192 123.012 52.5143 118.761 51.8088 122.42C51.1034 126.078 54.9268 124.734 54.9268 124.734C54.9268 124.734 46.1805 125.682 46.7704 128.618C47.3604 131.554 50.4281 129.325 50.4281 129.325C50.4281 129.325 43.7152 135.802 47.4056 136.098C51.1034 136.389 52.0549 134.813 52.0549 134.813Z" fill="#288453"/>
<path d="M65.3702 122.751C65.3702 122.751 61.2556 122.631 62.7418 125.391C64.2255 128.151 67.9459 124.801 67.9459 124.801C67.9459 124.801 61.5242 127.576 63.397 131.17C65.2698 134.763 70.145 131.283 70.145 131.283C70.145 131.283 66.6204 136.366 69.4521 138.093C72.2839 139.822 74.4604 135.769 74.4604 135.769C74.4604 135.769 72.0931 140.72 77.1667 138.976C82.2402 137.23 79.9808 132.803 79.9808 132.803C79.9808 132.803 88.7271 135.032 86.8544 131.438C84.9816 127.845 83.0561 128.942 83.0561 128.942C83.0561 128.942 88.3757 121.607 85.8653 120.134C83.3548 118.661 82.0745 120.27 82.0745 120.27C82.0745 120.27 83.0762 108.446 80.4478 111.086C77.8194 113.725 77.8897 116.937 77.8897 116.937C77.8897 116.937 74.724 109.685 72.0956 112.325C69.4672 114.965 73.3885 115.984 73.3885 115.984C73.3885 115.984 65.6037 111.889 64.4514 114.654C63.3016 117.419 67.0924 117.281 67.0924 117.281C67.0924 117.281 57.9042 118.907 60.8012 121.213C63.6983 123.519 65.3702 122.751 65.3702 122.751Z" fill="#288453"/>
<path d="M74.8927 110.847C74.8927 110.847 70.7781 110.727 72.2643 113.487C73.7504 116.247 77.4683 112.897 77.4683 112.897C77.4683 112.897 71.0467 115.673 72.9195 119.266C74.7922 122.859 79.6675 119.379 79.6675 119.379C79.6675 119.379 76.1428 124.462 78.9746 126.189C81.8063 127.918 83.9829 123.865 83.9829 123.865C83.9829 123.865 81.6156 128.816 86.6891 127.072C91.7626 125.328 89.5033 120.899 89.5033 120.899C89.5033 120.899 98.2496 123.128 96.3768 119.534C94.504 115.941 92.5785 117.038 92.5785 117.038C92.5785 117.038 97.8981 109.703 95.3877 108.23C92.8773 106.757 91.597 108.366 91.597 108.366C91.597 108.366 92.5986 96.5419 89.9702 99.1817C87.3418 101.821 87.4121 105.033 87.4121 105.033C87.4121 105.033 84.2465 97.7815 81.6181 100.421C78.9897 103.061 82.9109 104.08 82.9109 104.08C82.9109 104.08 75.1261 99.9846 73.9739 102.75C72.8241 105.515 76.6148 105.377 76.6148 105.377C76.6148 105.377 67.4267 107.003 70.3237 109.309C73.2232 111.623 74.8927 110.847 74.8927 110.847Z" fill="#288453"/>
<path d="M92.9093 112.707C92.9093 112.707 88.7947 112.586 90.2809 115.346C91.7645 118.107 95.485 114.757 95.485 114.757C95.485 114.757 89.0633 117.532 90.9361 121.125C92.8088 124.718 97.6841 121.238 97.6841 121.238C97.6841 121.238 94.1595 126.322 96.9912 128.048C99.823 129.775 101.999 125.725 101.999 125.725C101.999 125.725 99.6322 130.675 104.706 128.931C109.779 127.188 107.52 122.759 107.52 122.759C107.52 122.759 116.266 124.987 114.393 121.394C112.521 117.8 110.595 118.897 110.595 118.897C110.595 118.897 115.915 111.562 113.404 110.089C110.894 108.617 109.614 110.225 109.614 110.225C109.614 110.225 110.615 98.4013 107.987 101.041C105.358 103.681 105.429 106.893 105.429 106.893C105.429 106.893 102.263 99.6409 99.6347 102.281C97.0063 104.92 100.928 105.939 100.928 105.939C100.928 105.939 93.1427 101.844 91.9905 104.609C90.8407 107.374 94.6314 107.236 94.6314 107.236C94.6314 107.236 85.4433 108.862 88.3403 111.168C91.2373 113.474 92.9093 112.707 92.9093 112.707Z" fill="#288453"/>
<path d="M159.602 70.3277L178.533 80.8164C179.246 81.2555 179.75 81.9631 179.938 82.7786C179.938 82.7786 185.117 91.5109 186.764 94.803C189.443 100.16 195.48 142.534 195.48 142.534C195.629 143.184 195.983 143.771 196.49 144.205L205.949 152.34C206.556 152.862 206.94 153.597 207.021 154.393L209.549 179.132L213.867 221.375C214.047 223.154 212.702 224.725 210.914 224.818L181.809 226.326C180.355 226.401 179.042 225.465 178.638 224.068L158.635 154.596C158.557 154.328 158.517 154.052 158.512 153.771L157.485 74.0414C157.455 71.5748 157.503 69.0304 159.602 70.3277Z" fill="#CE9436"/>
<path d="M79.3311 226.067L95.1316 131.709L103.386 122.48L121.822 74.3801C122.196 73.4065 123.075 72.7165 124.112 72.591C131.053 71.7454 157.146 68.6439 158.575 69.7129C160.222 70.9474 163.106 99.2318 163.307 100.976L166.453 145.227L177.636 156.925L179.457 226.589L79.3311 226.067Z" fill="#F7BC4B"/>
<path d="M123.856 72.6261L140.535 70.7391L125.033 92.7453L130.589 94.2885L122.618 95.3223L116.119 121.195L139.026 122.977L103.386 122.478L121.822 74.2019C122.151 73.3387 122.937 72.7315 123.856 72.6261Z" fill="#CE9436"/>
<path d="M103.386 122.48L95.1317 131.707L88.1351 174.191L86.4883 177.619L85.7427 181.802L86.5435 183.021L85.4038 189.816L111.462 190.8L125.033 190.85L101.578 161.439L113.099 161.027V132.645L120.404 122.671L103.386 122.48Z" fill="#CE9436"/>
<path d="M85.4941 189.342L79.3311 226.067L134.603 226.328L131.515 211.827L111.259 188.973L85.4941 189.342Z" fill="#CE9436"/>
<path d="M125.754 127.817C125.332 127.877 125.011 128.219 124.978 128.643C124.664 132.665 123.15 152.132 123.15 152.832C123.15 153.612 118.991 156.99 118.991 156.99L117.429 179.345H118.21L120.03 157.251L123.931 153.871L125.754 127.817Z" fill="#CE9436"/>
<path d="M124.898 154.242C124.898 154.242 143.696 154.134 144.218 154.134C144.74 154.134 144.477 181.167 144.477 181.167H143.696L143.957 154.912L124.898 154.242Z" fill="#CE9436"/>
<path d="M139.779 179.606L126.474 179.059L126.063 179.47L117.429 179.965L117.763 179.029L125.857 178.991L126.406 178.64L139.779 179.127V179.606Z" fill="#CE9436"/>
<path d="M113.648 190.644L111.454 190.506C111.454 190.506 103.71 190.965 96.9063 190.85C96.585 190.845 96.1356 189.906 95.8168 189.901C90.7382 189.816 86.1667 189.761 85.4061 189.816L85.2881 190.574C85.2881 190.574 90.0252 190.569 95.6662 190.596C96.0553 190.599 96.5774 191.532 96.9741 191.535C102.324 191.562 108.228 191.148 111.592 191.261L113.786 191.467L113.648 190.644Z" fill="#F7BC4B"/>
<path d="M161.661 190.097C161.661 190.097 162.21 216.56 162.21 221.495C162.21 226.431 162.21 226.431 162.21 226.431L162.76 226.293L162.348 191.741L161.661 190.097Z" fill="#CE9436"/>
<path d="M169.101 190.097L143.999 190.506L143.861 191.467L169.101 190.097Z" fill="#CE9436"/>
<path d="M113.51 179.4C113.51 179.4 113.254 206.287 113.254 209.506C113.254 212.726 113.031 218.321 113.031 218.321L113.563 218.301C113.563 218.301 114.266 185.683 114.128 179.935L120.163 179.628L113.51 179.4Z" fill="#F7BC4B"/>
<path d="M158.881 149.716L158.984 169.872L173.389 169.77L173.183 180.876L172.771 170.593L158.163 170.387L158.575 150.744L158.881 149.716Z" fill="#CE9436"/>
<path d="M123.454 94.6073L122.618 95.3225L148.656 94.2585L149.932 93.5685" fill="#CE9436"/>
<path d="M148.902 81.2278L149.519 99.3271L157.134 99.4299L150.102 96.8253L148.902 81.2278Z" fill="#CE9436"/>
<path d="M115.363 162.879C115.363 162.879 100.822 160.069 92.7964 161.921L115.363 162.879Z" fill="#F7BC4B"/>
<path d="M135.048 163.451C135.048 161.567 133.443 160.257 131.613 160.503C129.931 160.729 128.664 162.212 128.664 163.83C128.664 165.09 129.434 166.174 130.571 166.605V170.668C130.571 171.205 131.021 171.699 131.588 171.774L131.789 171.802C132.379 171.882 132.869 171.488 132.869 170.921V166.58C134.116 166.096 135.048 164.887 135.048 163.451Z" fill="#1689CB"/>
<path d="M135.974 163.451C135.974 161.567 134.37 160.257 132.54 160.503C130.858 160.729 129.59 162.212 129.59 163.83C129.59 165.09 130.361 166.174 131.498 166.605V170.929C131.498 171.466 131.983 171.88 132.515 171.802L132.716 171.8C133.306 171.88 133.795 171.486 133.795 170.919V166.578C135.043 166.096 135.974 164.887 135.974 163.451Z" fill="#121721"/>
<path d="M143.279 146.233L142.729 134.291C142.702 134.284 129.042 131.288 129.042 131.288L143.759 131.822L143.279 146.233Z" fill="#CE9436"/>
<path d="M107.475 134.153L119.41 133.742L120.439 134.256L108.161 134.705L106.928 149.51L107.475 134.153Z" fill="#F7BC4B"/>
<path d="M140.055 121.539V108.684L140.673 100.562L140.808 121.404L140.055 121.539Z" fill="#CE9436"/>
<path d="M145.405 121.127L160.219 120.819L160.46 122.018L146.879 121.712L145.405 121.127Z" fill="#CE9436"/>
<path d="M144.238 154.172L146.023 170.701L148.217 172.204L149.108 172.066L154.664 173.476L143.691 173.752L144.238 154.172Z" fill="#CE9436"/>
<path d="M181.515 126.063L179.356 116.192L175.603 115.256L169.48 113.725L178.636 117.221L181.515 126.063Z" fill="#F7BC4B"/>
<path d="M158.778 149.098L147.564 149.201L146.641 148.381L158.984 148.586L158.778 149.098Z" fill="#CE9436"/>
<path d="M142.317 182.316L142.174 191.741L142.681 193.043L142.661 194.275L142.405 208.555L143.141 208.435L143.964 182.316H142.317Z" fill="#CE9436"/>
<path d="M117.281 120.259L118.275 123.273L119.438 120.407L117.281 120.259Z" fill="#F7BC4B"/>
<path d="M164.233 125.14L168.348 127.504L164.437 130.384L164.233 125.14Z" fill="#F7BC4B"/>
<path d="M166.392 134.394L163.347 136.424C163.058 136.617 163.094 137.049 163.407 137.194L166.701 138.715L166.392 134.394Z" fill="#CE9436"/>
<path d="M135.495 223.277L129.63 222.043L135.701 219.987L135.495 223.277Z" fill="#F7BC4B"/>
<path d="M177.092 184.062C177.709 184.062 181.001 186.12 181.001 186.12L177.298 187.766L177.092 184.062Z" fill="#F7BC4B"/>
<path d="M118.657 165.622V169.187L114.951 167.815L118.657 165.622Z" fill="#CE9436"/>
<path d="M141.906 167.403L145.405 168.776L141.906 170.696V167.403Z" fill="#F7BC4B"/>
<path d="M123.491 200.104L122.256 205.351L126.268 203.19L123.491 200.104Z" fill="#F7BC4B"/>
<path d="M113.305 205.351L108.984 208.435L112.996 210.595L113.305 205.351Z" fill="#F7BC4B"/>
<path d="M149.588 121.404L151.27 124.523L152.882 121.539L149.588 121.404Z" fill="#CE9436"/>
<path d="M171.022 86.9866L176.268 90.896L177.709 103.44L176.886 90.4845L170.713 85.4459L171.022 86.9866Z" fill="#F7BC4B"/>
<path d="M175.241 102.516L176.577 115.575L175.603 115.256L174.727 101.796L175.241 102.516Z" fill="#F7BC4B"/>
<path d="M174.727 101.796L184.088 105.6L174.829 102.825L174.727 101.796Z" fill="#F7BC4B"/>
<path d="M197.296 171.609L205.917 171.87L196.214 172.808C196.124 172.161 196.641 171.589 197.296 171.609Z" fill="#F7BC4B"/>
<path d="M179.974 119.484L182.03 120.51L180.488 121.951L179.974 119.484Z" fill="#F7BC4B"/>
<path d="M194.513 143.44L184.273 142.271L193.964 142.175L194.513 143.44Z" fill="#F7BC4B"/>
<path d="M185.509 142.338L187.271 149.743L183.968 142.253L185.509 142.338Z" fill="#F7BC4B"/>
<path d="M185.157 144.996L183.106 146.74L185.978 146.998L185.157 144.996Z" fill="#F7BC4B"/>
<path d="M196.296 171.586L195.267 180.429L197.531 187.834L198.149 196.985L198.561 187.628L196.296 180.84V171.586Z" fill="#F7BC4B"/>
<path d="M160.219 72.1796L158.369 76.0865L162.69 77.7326L160.219 72.1796Z" fill="#CE9436"/>
<path d="M177.538 209.383C179.185 208.723 178.567 205.178 176.097 206.415C173.629 207.654 175.891 210.043 177.538 209.383Z" fill="#3E4C6F"/>
<path d="M183.3 210.319C183.3 210.319 182.647 208.435 180.489 208.435C178.33 208.435 177.024 210.801 180.421 212.65C183.817 214.5 183.3 210.319 183.3 210.319Z" fill="#3E4C6F"/>
<path d="M173.303 206.535C175.769 205.411 173.733 203.991 172.284 203.75C170.838 203.507 170.838 207.659 173.303 206.535Z" fill="#3E4C6F"/>
<path d="M183.264 205.863C183.264 205.863 183.264 202.779 181.411 202.779C179.561 202.779 177.091 204.939 183.264 205.863Z" fill="#3E4C6F"/>
<path d="M178.429 197.226C178.429 197.226 175.65 200.618 179.047 199.695C182.443 198.772 181.514 197.535 178.429 197.226Z" fill="#3E4C6F"/>
<path d="M177.195 190.13C177.195 190.13 173.492 195.683 174.416 191.982C175.344 188.28 177.195 190.13 177.195 190.13Z" fill="#3E4C6F"/>
<path d="M175.149 196.094C173.407 196.403 172.659 200.413 175.646 199.795C178.633 199.178 176.891 195.786 175.149 196.094Z" fill="#3E4C6F"/>
<path d="M177.2 199.969C175.55 200.27 174.845 204.182 177.672 203.579C180.498 202.977 178.849 199.667 177.2 199.969Z" fill="#3E4C6F"/>
<path d="M176.845 215.423C176.845 215.423 173.905 211.474 176.137 211.393C178.369 211.313 177.718 212.921 177.718 212.921C177.718 212.921 180.056 212.931 178.928 214.673C177.799 216.417 176.845 215.423 176.845 215.423Z" fill="#856792"/>
<path d="M88.9571 197.813C88.9571 197.813 86.0399 195.404 89.5922 193.377C93.1444 191.349 93.9051 196.039 93.1444 196.927C92.3813 197.813 90.0968 198.576 88.9571 197.813Z" fill="#856792"/>
<path d="M89.5901 198.701C89.5901 198.701 91.1114 196.799 92.2536 197.813C93.3959 198.827 93.5214 200.475 92.2536 201.489C92.2536 201.489 92.8888 199.969 95.0427 200.475C97.1991 200.982 94.9147 205.04 94.9147 205.04C94.9147 205.04 96.436 204.026 96.6895 205.547C96.9431 207.067 96.6895 208.844 94.6611 208.462C92.6327 208.081 93.0118 206.688 93.0118 206.688C93.0118 206.688 91.8695 207.449 90.4762 206.054C89.083 204.658 90.3482 202.503 90.3482 202.503C90.3482 202.503 87.6872 200.35 89.5901 198.701Z" fill="#856792"/>
<path d="M84.7702 207.702C84.7702 207.702 85.6589 206.054 83.756 205.547C81.8531 205.04 80.967 206.307 82.2347 207.449C83.5025 208.59 84.7702 207.702 84.7702 207.702Z" fill="#856792"/>
<path d="M87.6875 203.138C87.4339 202.377 86.9268 200.35 88.9553 200.475C90.9837 200.603 90.8581 203.263 89.7159 203.645C88.5762 204.026 87.941 203.898 87.6875 203.138Z" fill="#856792"/>
<path d="M91.3401 192.027C91.1317 191.4 90.7125 189.723 92.3869 189.826C94.0639 189.932 93.9584 192.13 93.0145 192.443C92.0731 192.76 91.5484 192.654 91.3401 192.027Z" fill="#856792"/>
<path d="M94.636 197.605C94.4276 196.978 94.0084 195.301 95.6828 195.404C97.3598 195.51 97.2543 197.708 96.3104 198.021C95.3665 198.335 94.8468 198.232 94.636 197.605Z" fill="#856792"/>
<path d="M91.9729 212.056C91.7645 211.428 91.3453 209.752 93.0197 209.855C94.6967 209.961 94.5913 212.159 93.6473 212.472C92.7059 212.788 92.1838 212.686 91.9729 212.056Z" fill="#856792"/>
<path d="M89.1833 193.673C88.975 193.046 88.5557 191.369 90.2302 191.472C91.9071 191.578 91.8017 193.776 90.8578 194.089C89.9164 194.408 89.3917 194.303 89.1833 193.673Z" fill="#856792"/>
<path d="M175.339 149.261C175.339 149.261 176.373 145.623 172.296 145.967C168.222 146.311 170.258 150.604 171.388 150.905C172.52 151.204 174.832 150.536 175.339 149.261Z" fill="#3E4C6F"/>
<path d="M175.321 150.353C175.321 150.353 172.989 149.65 172.625 151.133C172.261 152.616 173.092 154.044 174.714 154.16C174.714 154.16 173.328 153.266 171.839 154.907C170.351 156.548 174.535 158.593 174.535 158.593C174.535 158.593 172.705 158.621 173.361 160.019C174.016 161.416 175.233 162.734 176.687 161.268C178.143 159.803 177.036 158.872 177.036 158.872C177.036 158.872 178.407 158.852 178.766 156.912C179.122 154.973 176.855 153.919 176.855 153.919C176.855 153.919 177.824 150.629 175.321 150.353Z" fill="#856792"/>
<path d="M184.398 155.028C184.398 155.028 182.732 154.175 184.009 152.677C185.287 151.181 186.738 151.721 186.342 153.379C185.945 155.038 184.398 155.028 184.398 155.028Z" fill="#3E4C6F"/>
<path d="M179.406 152.925C179.183 152.155 178.45 150.197 176.85 151.452C175.251 152.707 176.868 154.827 178.023 154.493C179.178 154.16 179.629 153.695 179.406 152.925Z" fill="#3E4C6F"/>
<path d="M170.092 145.846C169.909 145.209 169.301 143.593 167.981 144.629C166.66 145.666 167.996 147.417 168.95 147.141C169.904 146.868 170.275 146.484 170.092 145.846Z" fill="#3E4C6F"/>
<path d="M170.543 152.31C170.36 151.673 169.753 150.057 168.432 151.093C167.112 152.13 168.447 153.881 169.401 153.605C170.355 153.331 170.727 152.948 170.543 152.31Z" fill="#856792"/>
<path d="M180.941 162.699C180.758 162.061 180.151 160.445 178.83 161.482C177.51 162.518 178.845 164.269 179.799 163.993C180.753 163.72 181.125 163.336 180.941 162.699Z" fill="#3E4C6F"/>
<path d="M172.803 145.982C172.619 145.345 172.012 143.729 170.692 144.765C169.371 145.801 170.707 147.553 171.661 147.277C172.614 147.001 172.986 146.617 172.803 145.982Z" fill="#3E4C6F"/>
<path d="M113.922 226.843C113.922 226.843 111.554 220.364 109.189 220.055C106.822 219.747 112.069 225.814 112.069 225.814C112.069 225.814 108.469 222.73 105.69 222.01C102.911 221.29 108.775 226.123 108.775 226.123C108.775 226.123 103.117 223.653 102.088 223.859C101.058 224.065 108.775 226.84 109.496 226.943C110.219 227.049 113.922 226.843 113.922 226.843Z" fill="#3E4C6F"/>
<path d="M113.922 226.534C113.922 226.534 113.305 220.467 115.054 218.718C116.804 216.969 116.259 220.354 115.672 222.11C114.334 226.123 113.922 226.534 113.922 226.534Z" fill="#3E4C6F"/>
<path d="M78.1205 227.46C78.1205 226.534 77.9147 220.981 80.0761 218.206C82.2376 215.428 83.5731 215.942 83.5731 215.942L79.5615 225.402C79.5615 225.402 81.8259 222.113 83.4702 221.598C85.117 221.084 85.6317 221.495 85.6317 221.495L79.1498 227.151L78.1205 227.46Z" fill="#856792"/>
<path d="M174.418 215.84C174.418 215.84 175.035 212.447 172.565 210.287C170.095 208.126 168.244 211.521 168.244 211.521C168.244 211.521 167.318 206.894 162.689 206.277C158.06 205.66 158.881 216.045 159.189 218.203C159.189 218.203 151.884 209.975 147.872 212.136C143.861 214.296 154.457 221.904 156.31 223.139C156.31 223.139 145.096 219.232 142.626 220.158C140.155 221.084 145.405 226.946 149.416 227.563C153.428 228.18 156.825 230.032 161.454 227.871C161.454 227.871 172.565 231.264 175.653 227.563C178.738 223.859 174.418 215.84 174.418 215.84Z" fill="#3E4C6F"/>
<path d="M173.629 229.206C173.629 229.206 172.806 220.569 176.92 216.866C181.035 213.165 176.509 223.448 176.509 223.448C176.509 223.448 181.035 217.277 182.682 218.1C184.329 218.923 181.035 223.448 181.035 223.448C181.035 223.448 181.858 222.625 183.094 224.271C184.329 225.917 176.373 229.344 176.373 229.344L173.629 229.206Z" fill="#856792"/>
<path d="M198.372 226C198.372 226 195.711 219.114 199.574 220.554C203.438 221.995 202.032 223.423 202.032 223.423C202.032 223.423 205.961 211.898 208.875 215.102C211.79 218.306 210.7 219.664 210.7 219.664C210.7 219.664 213.221 206.347 217.443 210.164C221.666 213.98 215.869 218.499 215.869 218.499C215.869 218.499 220.022 213.825 221.018 217.722C222.012 221.621 215.699 225.407 215.699 225.407L198.372 226Z" fill="#3E4C6F"/>
<path d="M173.697 221.897C173.697 221.897 176.097 216.886 173.471 216.163C170.843 215.441 171.076 219.024 171.076 219.024C171.076 219.024 172.251 215.842 168.189 215.594C164.128 215.345 166.031 219.651 166.031 219.651C166.031 219.651 161.052 213.032 157.939 216.131C154.827 219.23 159.122 221.867 159.122 221.867C159.122 221.867 155.296 223.292 157.919 225.924C160.543 228.557 162.935 227.367 162.935 227.367C162.935 227.367 158.386 230.94 162.689 230.233C166.992 229.525 165.88 230.233 168.144 230.233C170.409 230.233 171.533 229.533 174.639 229.54C177.747 229.548 176.476 226.996 176.476 226.996C176.476 226.996 183.019 222.63 179.436 221.189C175.851 219.752 173.697 221.897 173.697 221.897Z" fill="#33A86D"/>
<path d="M190.672 226.843C189.849 226.02 183.209 219.669 187.085 220.128C190.961 220.587 190.67 222.223 190.67 222.223C190.67 222.223 189.766 213.275 192.931 216.399C196.1 219.526 194.784 222.316 194.784 222.316C194.784 222.316 199.351 216.961 199.13 220.474C198.911 223.985 198.281 224.579 198.281 224.579C198.281 224.579 201.474 218.1 202.341 220.755C203.207 223.41 199.825 226.223 199.825 226.223C196.248 226.943 191.496 227.666 190.672 226.843Z" fill="#3E4C6F"/>
<path d="M40.1056 237.171C40.1056 237.171 39.7316 239.216 39.9073 240.252C40.083 241.289 41.0069 241.316 42.5483 241.364C44.0897 241.412 45.1415 240.724 46.5725 241.078C48.0034 241.432 50.8753 240.596 51.7213 239.901C52.5673 239.208 52.2937 238.032 52.0151 237.098C51.7364 236.162 50.6343 236.265 47.7524 236.278C44.8679 236.29 40.2462 235.941 40.1056 237.171Z" fill="#ED5D4F"/>
<path d="M40.1393 236.142C40.1393 236.142 39.7653 238.187 39.941 239.223C40.1167 240.26 41.4447 240.47 42.9886 240.518C44.53 240.566 45.1752 239.695 46.6062 240.049C48.0371 240.403 50.2086 240.024 51.0546 239.331C51.9006 238.639 52.2395 237.653 51.9609 236.719C51.6822 235.783 48.848 235.319 45.966 235.332C43.079 235.344 40.2799 234.912 40.1393 236.142Z" fill="#121721"/>
<path d="M52.6003 206.284C52.7761 202.36 50.105 200.548 47.2205 200.561C44.3385 200.573 44.1477 203.346 44.7277 207.89C45.3051 212.435 44.4616 213.13 44.2431 213.534C44.0247 213.938 43.1135 215.119 43.4875 216.261C43.8641 217.405 43.608 217.32 44.4088 218.065C45.2097 218.811 50.12 222.025 50.3435 219.177C50.5041 217.165 52.4121 210.543 52.6003 206.284Z" fill="#48598B"/>
<path d="M49.9845 214.261C49.9845 214.261 49.7008 210.206 49.4096 206.287C49.1209 202.367 50.105 200.548 47.2205 200.561C44.3385 200.573 44.1477 203.346 44.7277 207.89C45.305 212.435 44.4616 213.13 44.2431 213.534C44.0247 213.938 43.1135 215.119 43.4875 216.261C43.8641 217.405 43.608 217.32 44.4088 218.065C45.2097 218.811 45.9452 221.769 47.1527 219.179C48.4782 216.341 49.9845 214.261 49.9845 214.261Z" fill="#273252"/>
<path d="M47.8509 233.091C47.8509 233.091 48.84 234.355 48.5087 235.066C48.1773 235.776 47.1304 236.36 44.9489 237.013C42.7673 237.665 39.2829 237.143 39.5414 235.507C39.8 233.871 40.1992 234.19 40.1992 234.19C40.1992 234.19 41.8987 222.617 42.4811 220.474C43.0636 218.331 42.9983 217.094 45.0644 216.851C47.1304 216.607 50.2233 216.497 50.3438 219.177C50.4668 221.857 47.8509 233.091 47.8509 233.091Z" fill="#48598B"/>
<path d="M47.8509 233.091C47.8509 233.091 48.84 234.355 48.5086 235.065C48.1773 235.776 47.1304 236.36 44.9489 237.013C42.7673 237.665 39.2829 237.143 39.5414 235.507C39.8 233.871 40.1992 234.19 40.1992 234.19C40.1992 234.19 41.8987 222.617 42.4811 220.474C43.0636 218.331 43.2192 216.64 45.2853 216.394C47.3513 216.151 48.7572 215.629 48.4936 217.473C48.1145 220.128 47.8509 233.091 47.8509 233.091Z" fill="#273252"/>
<path d="M58.0537 237.08C58.0537 237.08 57.4161 239.941 57.9332 240.917C58.4504 241.893 61.2018 241.705 62.5825 241.474C63.9633 241.243 64.267 240.292 66.185 240.353C68.1055 240.413 69.082 239.893 69.6694 238.679C70.2569 237.462 68.5297 235.625 67.0184 235.715C65.5072 235.806 63.1875 235.321 61.119 235.668C59.0479 236.014 58.2345 235.715 58.0537 237.08Z" fill="#EE5D4F"/>
<path d="M58.086 236.052C58.086 236.052 57.4483 238.912 57.9655 239.888C58.4826 240.864 61.4499 240.408 62.8281 240.177C64.2089 239.946 64.2967 239.264 66.2172 239.324C68.1377 239.384 69.1142 238.865 69.7017 237.65C70.2891 236.436 68.1427 234.857 66.6289 234.948C65.1176 235.038 63.2173 234.293 61.1487 234.639C59.0801 234.985 58.2667 234.687 58.086 236.052Z" fill="#121721"/>
<path d="M59.1605 200.626C59.0727 203.464 55.4325 205.654 51.0293 205.516C46.626 205.378 43.7566 206.008 43.2219 200.129C42.9633 197.301 46.9499 195.101 51.3531 195.239C55.7539 195.374 59.2509 197.788 59.1605 200.626Z" fill="#273252"/>
<path d="M52.1963 199.482C55.9393 198.262 57.8272 197.188 59.1954 199.494C60.5635 201.8 61.7635 209.554 62.0196 211.207C62.2756 212.861 62.4765 216.366 59.6824 216.793C56.8908 217.22 55.982 217.809 55.0306 214.178C54.295 211.378 53.3335 209.188 51.526 207.792C49.716 206.4 48.4533 200.701 52.1963 199.482Z" fill="#273252"/>
<path d="M61.1186 208.763C60.6265 204.194 61.829 208.871 62.0198 211.21C62.2056 213.478 62.4767 216.369 59.6826 216.796C56.891 217.222 61.8165 215.237 61.1186 208.763Z" fill="#48598B"/>
<path d="M64.2513 236.383C64.2513 236.383 66.1065 236.338 65.9459 234.892C65.7852 233.447 64.3894 232.529 64.3894 232.529C64.3894 232.529 63.5057 216.399 62.3509 213.792C61.1961 211.185 56.1276 212.053 55.623 215.022C55.1184 217.99 56.1778 224.768 56.3987 226.401C56.6498 228.248 56.8958 229.465 56.9887 230.549C57.0841 231.633 57.0188 232.852 57.0188 232.852C57.0188 232.852 56.5996 233.058 56.5594 234.393C56.5192 235.728 57.4807 236.737 58.2338 236.812C59.484 236.938 64.2513 236.383 64.2513 236.383Z" fill="#273252"/>
<path d="M64.2515 236.383C64.2515 236.383 66.1067 236.338 65.946 234.892C65.7853 233.447 64.3896 232.529 64.3896 232.529C64.3896 232.529 63.5059 216.399 62.3511 213.792C61.1963 211.185 60.3854 211.702 60.8825 214.673C62.0097 221.395 61.736 226.84 61.7888 228.489C61.839 230.137 60.9603 233.555 61.3294 234.905C61.6984 236.252 64.2515 236.383 64.2515 236.383Z" fill="#48598B"/>
<path d="M46.3101 203.414C46.3101 203.414 48.1778 202.957 48.8782 203.597C49.5786 204.237 52.5384 208.342 52.5384 208.342L48.6548 204.207L46.3101 203.414Z" fill="#273252"/>
<path d="M62.1726 224.434C62.1726 224.434 61.9291 227.307 60.8848 229.435C60.8823 229.435 62.8529 228.983 62.1726 224.434Z" fill="#48598B"/>
<path d="M48.7294 221.443C48.7294 221.443 48.3504 223.694 47.3211 225.31C46.2918 226.923 45.9253 227.119 45.9253 227.119C45.9253 227.119 49.6633 226.153 48.7294 221.443Z" fill="#48598B"/>
<path d="M44.1904 177.935C42.7846 177.89 41.5771 180.321 39.7269 186.78C38.8106 189.977 38.7955 192.443 40.8666 192.029C42.9377 191.615 43.5 191.219 44.7377 186.732C47.8556 179.214 46.9494 178.02 44.1904 177.935Z" fill="#1D2538"/>
<path d="M47.1355 189.139C47.1355 189.139 44.7456 188.74 43.7138 188.8C42.682 188.86 42.908 189.347 41.9214 190.14C40.2921 191.45 39.6972 191.03 39.7022 191.992C39.7072 193.301 43.2318 193.198 44.6025 193.241C45.9732 193.284 50.9463 194.468 52.076 193.407C53.2107 192.345 51.3882 189.134 47.1355 189.139Z" fill="#C94039"/>
<path d="M42.5052 197.479C42.081 197.878 42.3546 198.782 42.6584 199.13C42.6584 199.13 45.3847 199.989 47.3579 199.432C49.3311 198.877 49.7629 198.247 51.4373 198.169C53.2875 198.084 57.6782 198.596 58.8531 198.814C59.5309 198.94 59.2096 197.281 59.2096 197.281C59.2096 197.281 54.2766 195.429 50.8398 196.659C47.4081 197.891 43.6073 198.44 42.5052 197.479Z" fill="#F3E7D9"/>
<path d="M51.0502 176.913C51.0502 176.913 44.9625 183.924 42.5801 181.174C40.1952 178.424 44.4277 174.75 47.6386 174.131C50.8494 173.511 54.5874 175.686 51.0502 176.913Z" fill="#273252"/>
<path d="M50.2094 174.143C50.2094 174.143 46.278 174.808 44.7994 175.997C43.7777 176.818 42.5978 178.938 43.6019 179.716C44.0664 180.075 42.2563 180.715 42.3417 181.066C42.3417 181.066 41.094 179.277 42.4973 177.162C43.9007 175.044 45.5776 174.291 47.2245 174.103C49.1198 173.887 50.2094 174.143 50.2094 174.143Z" fill="#F3E7D9"/>
<path d="M54.6433 170.648L54.4174 175.852L49.999 176.331L50.0969 171.19L54.6433 170.648Z" fill="#CC6D3D"/>
<path d="M54.642 170.648L54.4161 175.855C54.4161 175.855 53.6931 174.803 53.5324 173.975C53.3692 173.147 50.0981 171.192 50.0981 171.192L54.642 170.648Z" fill="#F5894E"/>
<path d="M54.0959 175.019C54.0959 175.019 55.8356 174.251 57.2289 175.802C58.6222 177.355 59.6766 183.081 59.5686 184.381C59.4582 185.681 59.6916 188.183 60.3293 189.653C61.3862 192.087 60.6406 196.144 59.9176 197.289C59.1946 198.433 59.5561 197.893 56.6139 197.597C53.6717 197.299 50.3127 197.193 48.2266 198.089C46.1404 198.985 43.1129 199.233 42.4024 197.838C41.692 196.443 42.056 195.771 43.0526 194.634C44.0492 193.5 44.24 189.595 43.9137 186.843C43.7229 185.224 43.6626 183.199 44.363 181.001C44.8526 179.463 46.2157 180.981 48.6107 178.509C51.5052 175.516 54.0959 175.019 54.0959 175.019Z" fill="#C94039"/>
<path d="M54.0959 175.019C54.0959 175.019 55.8356 174.251 57.2289 175.802C58.6222 177.355 58.8281 183.877 58.7201 185.176C58.6096 186.476 59.6916 188.183 60.3293 189.65C61.3862 192.084 60.6406 196.142 59.9176 197.286C59.1946 198.43 59.5561 197.891 56.6139 197.595C53.6717 197.296 50.3127 197.191 48.2266 198.087C46.1404 198.982 43.1129 199.231 42.4024 197.836C41.692 196.44 42.056 195.768 43.0526 194.631C44.0492 193.497 44.24 189.593 43.9137 186.84C43.7229 185.222 43.6626 183.197 44.363 180.999C44.8526 179.46 46.2157 180.978 48.6107 178.507C51.5052 175.516 54.0959 175.019 54.0959 175.019Z" fill="#992C29"/>
<path d="M56.777 174.831C56.777 174.831 55.3862 173.245 52.8833 174.296C50.3804 175.348 48.0231 178.258 46.9637 179.255C45.9044 180.251 43.8182 179.98 42.8216 178.918C41.8249 177.859 41.2751 180.105 42.7613 181.899C44.2475 183.694 45.0558 184.236 46.7052 184.183C48.3545 184.133 49.3461 182.002 50.629 180.499C51.9118 178.996 53.0364 175.945 54.0808 175.463C55.1251 174.981 56.9678 175.298 57.5502 176.447C58.1326 177.596 58.6196 178.487 58.6196 178.487C58.6196 178.487 59.0941 176.444 56.777 174.831Z" fill="#F3E7D9"/>
<path d="M57.0939 188.833C57.0939 188.833 58.0077 181.556 57.7541 179.799C57.5006 178.043 57.5458 176.602 55.5073 175.922C53.4689 175.242 52.2237 178.906 52.058 180.856C51.8948 182.805 50.9559 189.771 51.6513 190.514C52.3517 191.256 56.9056 192.632 57.0939 188.833Z" fill="#273252"/>
<path d="M57.0938 188.833L54.6638 183.202L55.5098 175.922C53.4713 175.242 52.2261 178.906 52.0605 180.856C51.8973 182.805 50.9584 189.771 51.6538 190.514C52.3517 191.256 56.9056 192.632 57.0938 188.833Z" fill="#1D2538"/>
<path d="M67.5219 198.503C65.2751 198.307 63.3019 199.891 63.1136 202.041C62.9253 204.192 64.5923 206.094 66.8391 206.289C69.0859 206.485 71.0591 204.902 71.2474 202.751C71.4357 200.601 69.7662 198.699 67.5219 198.503ZM66.6056 204.019C65.6717 203.936 64.9814 203.115 65.0642 202.182C65.1471 201.248 65.968 200.558 66.9018 200.641C67.8357 200.724 68.5261 201.544 68.4432 202.478C68.3604 203.409 67.5395 204.099 66.6056 204.019Z" fill="#1689CB"/>
<path d="M67.3991 200.222C66.2116 200.119 65.1673 200.995 65.0644 202.182C65.1472 201.248 65.9681 200.558 66.902 200.641C67.8359 200.724 68.5262 201.544 68.4434 202.478C68.3606 203.411 67.5396 204.101 66.6058 204.019C65.6719 203.936 64.9815 203.115 65.0644 202.182C64.9614 203.369 65.8376 204.413 67.025 204.515C68.2124 204.618 69.2568 203.743 69.3597 202.556C69.4626 201.371 68.5865 200.325 67.3991 200.222Z" fill="#34283A"/>
<path d="M67.8605 199.519C68.1944 199.524 68.478 199.289 68.5182 198.97L71.8696 173.009L72.1332 169.998C72.1608 169.684 71.9449 169.398 71.6261 169.326C71.2646 169.245 70.5491 169.004 70.4814 169.356L69.7508 175.285C69.7433 175.325 69.7307 175.363 69.7157 175.4L69.5349 176.954C69.5123 177.006 69.4973 177.064 69.4922 177.122L66.6003 198.802C66.5576 199.171 66.8563 199.497 67.2429 199.504L67.8605 199.519Z" fill="#1689CB"/>
<path d="M73.5339 171.707L73.8728 172.389L73.9104 173.99L74.8066 174.068L77.292 171.923L77.6133 172.683L77.4601 174.424C77.4601 174.424 76.2853 174.377 76.1346 175.069C76.0267 175.576 76.943 175.418 76.943 175.418L77.3271 175.95L77.0836 178.725L74.8744 178.409L74.6435 177.704L74.7464 176.54L73.6267 176.442L73.2753 178.447L71.1766 178.115L70.8101 177.388L73.5339 171.707Z" fill="#34283A"/>
<path d="M71.1997 171.466L73.5721 171.674L73.6097 173.27L74.6641 173.363L74.9855 171.709L77.2674 171.923L77.1143 173.664C77.1143 173.664 76.1402 173.667 75.9921 174.362C75.844 175.057 76.2582 175.358 76.9611 175.421L76.7377 177.968L74.6365 177.694L74.7972 175.85L73.4792 175.734L73.1277 177.739L70.5947 177.34L71.1997 171.466Z" fill="#1689CB"/>
<path d="M69.7162 184.052L69.1689 188.943" stroke="#29ABE2" stroke-width="2" stroke-miterlimit="10" stroke-linecap="round" stroke-linejoin="round"/>
<path d="M69.809 183.337C69.9934 183.337 70.1429 183.188 70.1429 183.003C70.1429 182.819 69.9934 182.67 69.809 182.67C69.6246 182.67 69.4751 182.819 69.4751 183.003C69.4751 183.188 69.6246 183.337 69.809 183.337Z" fill="#FFACFF" stroke="#29ABE2" stroke-miterlimit="10"/>
<path d="M70.032 200.305C70.032 200.305 70.8303 201.406 70.6194 203.04C70.4085 204.673 69.4722 205.143 69.4722 205.143" stroke="#29ABE2" stroke-width="2" stroke-miterlimit="10" stroke-linecap="round" stroke-linejoin="round"/>
<path d="M71.8979 171.529C71.8979 171.529 71.3381 171.446 71.303 171.632C71.2704 171.817 70.9917 174.211 70.9917 174.211C70.9917 174.211 71.4109 171.77 71.4235 171.652C71.436 171.534 71.6243 171.601 71.8979 171.529Z" fill="#665070"/>
<path d="M70.7725 176.695L71.0135 174.678L70.913 174.645L70.7725 176.695Z" fill="#665070"/>
<path d="M64.9677 195.322C64.9677 195.322 65.9593 195.507 66.2204 194.516C66.4815 193.525 66.6773 193.148 66.725 193.073C66.7752 193 67.5032 192.815 67.5886 192.88C67.9451 193.151 67.3426 194.258 67.802 194.27C68.2614 194.283 70.3525 194.875 70.4956 195.186C70.6387 195.497 70.6061 196.571 70.6061 196.571L69.6722 197.003C69.6722 197.003 69.7275 197.695 69.5618 198.074C69.3961 198.453 68.9166 199.05 68.9166 199.05L66.474 198.591C66.474 198.591 65.2589 198.17 64.7443 197.462C64.2322 196.757 64.9677 195.322 64.9677 195.322Z" fill="#F5894E"/>
<path d="M64.0992 194.092C64.0992 194.092 64.7268 193.736 65.3218 194.473C65.9168 195.211 65.8666 196.822 65.4197 197.941C64.9729 199.058 64.5637 198.942 64.5637 198.942L63.3486 198.287L64.0992 194.092Z" fill="#F3E7D9"/>
<path d="M56.3422 188.671C56.8393 188.43 57.005 188.32 57.5422 188.975C58.2351 189.821 59.2694 190.546 60.5899 191.103C61.9103 191.657 64.5438 193.045 64.7145 194.182C64.8852 195.318 65.3622 196.5 64.3881 198.013C63.4141 199.526 62.4225 198.362 61.0016 197.702C59.5807 197.042 53.2117 192.771 52.2854 191.745C51.6377 191.03 51.3791 190.25 52.5666 190.159C54.2109 190.029 55.8477 188.912 56.3422 188.671Z" fill="#C94039"/>
<path d="M56.3422 188.671C56.8393 188.43 57.005 188.32 57.5422 188.975C58.2351 189.821 59.2694 190.546 60.5899 191.103C61.9103 191.657 64.5438 193.045 64.7145 194.182C64.8852 195.318 65.3622 196.5 64.3881 198.013C63.4141 199.526 62.4225 198.362 61.0016 197.702C59.5807 197.042 53.2117 192.771 52.2854 191.745C51.6377 191.03 51.3791 190.25 52.5666 190.159C54.2109 190.029 55.8477 188.912 56.3422 188.671Z" fill="#EE5D4F"/>
<path d="M56.4551 188.401C56.9522 188.16 59.4024 192.918 60.7228 193.472C62.0433 194.027 64.5211 193.796 64.6918 194.935C64.8625 196.072 65.3621 196.498 64.3906 198.011C63.4165 199.524 62.4249 198.36 61.004 197.7C59.5831 197.04 53.2142 192.77 52.2878 191.743C51.6402 191.028 51.3816 190.248 52.569 190.157C54.2108 190.029 55.9581 188.642 56.4551 188.401Z" fill="#C94039"/>
<path d="M53.9756 162.395C53.9756 162.395 56.4534 161.951 57.2216 163.885C58.0174 165.883 58.4643 170.251 58.0249 171.062C57.5856 171.872 57.4375 172.279 54.2342 172.693C51.0309 173.107 48.5029 172.72 48.8192 169.23C49.1356 165.742 49.3138 163.381 53.9756 162.395Z" fill="#F5894E"/>
<path d="M53.9756 162.395C53.9756 162.395 56.4534 161.951 57.2216 163.885C57.3823 164.292 55.3313 169.328 55.3338 169.898C55.3413 171.338 57.1287 171.574 57.1463 171.754C57.1614 171.935 57.4375 172.279 54.2342 172.693C51.0309 173.107 48.5029 172.72 48.8192 169.23C49.1356 165.742 49.3138 163.381 53.9756 162.395Z" fill="#CC6D3D"/>
<path d="M54.6938 164.681C54.6938 164.681 58.6753 162.473 56.6494 161.381C54.626 160.29 50.8629 160.428 50.0997 161.845L49.6679 161.951C49.6679 161.951 48.36 162.046 46.7508 164.156C45.1417 166.267 45.4705 170.896 48.355 172.093C49.6931 172.65 50.1525 172.783 51.1817 172.748C52.211 172.713 53.2779 172.625 53.7373 171.097C54.1967 169.571 54.6938 164.681 54.6938 164.681Z" fill="#1D2538"/>
<path d="M54.6943 164.681C54.6943 164.681 58.6758 162.473 56.6499 161.381C54.6265 160.29 52.1889 161.379 52.6584 161.737C53.1278 162.096 53.7905 162.869 53.7905 162.869C53.7905 162.869 51.8977 166.377 51.4985 168.149L51.9755 168.231C51.9755 168.231 53.2784 172.628 53.7378 171.099C54.1972 169.571 54.6943 164.681 54.6943 164.681Z" fill="#3E4C6F"/>
<path d="M54.3913 168.531C54.9094 168.421 55.1864 167.656 55.0099 166.823C54.8334 165.989 54.2703 165.402 53.7521 165.511C53.234 165.621 52.957 166.386 53.1336 167.219C53.3101 168.053 53.8732 168.64 54.3913 168.531Z" fill="#CC6D3D"/>
<path d="M57.3094 165.368C57.3446 165.75 57.2291 165.928 57.0885 165.943C56.9479 165.955 56.8375 165.797 56.8023 165.416C56.7672 165.035 56.8525 164.716 56.9931 164.703C57.1312 164.688 57.2743 164.987 57.3094 165.368Z" fill="#34283A"/>
<path d="M56.9778 163.93C56.5711 164.018 56.3125 164.329 56.3125 164.329" stroke="#34283A" stroke-width="0.75" stroke-miterlimit="10" stroke-linecap="round" stroke-linejoin="round"/>
<path d="M55.0379 164.091L55.3115 166.517C55.3241 166.638 55.2864 166.761 55.2061 166.851L54.6915 167.441L54.4229 164.003L55.0379 164.091Z" fill="#3E4C6F"/>
</svg>
