<svg width="163" height="25" viewBox="0 0 163 25" fill="none" xmlns="http://www.w3.org/2000/svg">
<g clip-path="url(#clip0_0_1236)">
<path d="M14.3378 14.2861H16.8403L17.8414 10.2861H14.3378V8.28613C14.3378 7.25613 14.3378 6.28613 16.3398 6.28613H17.8414V2.92613C17.515 2.88313 16.2828 2.78613 14.9814 2.78613C12.2636 2.78613 10.3336 4.44313 10.3336 7.48613V10.2861H7.33057V14.2861H10.3336V22.7861H14.3378V14.2861Z" fill="black"/>
</g>
<path d="M68.5554 6.44206C67.7911 6.77975 66.9807 7.00153 66.1509 7.10006C67.0255 6.57749 67.6802 5.75507 67.9928 4.78606C67.1719 5.27406 66.272 5.61606 65.334 5.80106C64.704 5.12764 63.8689 4.68102 62.9586 4.53064C62.0482 4.38027 61.1136 4.53455 60.3001 4.96951C59.4866 5.40447 58.8398 6.09574 58.4601 6.93585C58.0804 7.77596 57.9892 8.71784 58.2007 9.61506C56.5361 9.53171 54.9077 9.09958 53.4211 8.34672C51.9345 7.59386 50.623 6.53711 49.5718 5.24506C49.1997 5.88351 49.0042 6.60929 49.0052 7.34806C49.0052 8.79806 49.744 10.0791 50.8672 10.8291C50.2025 10.8082 49.5524 10.6288 48.9712 10.3061V10.3581C48.9714 11.3238 49.3059 12.2597 49.918 13.0071C50.5301 13.7546 51.3822 14.2675 52.3297 14.4591C51.7126 14.6261 51.0657 14.6507 50.4377 14.5311C50.7049 15.3623 51.2255 16.0893 51.9268 16.6102C52.6282 17.1311 53.475 17.4199 54.3487 17.4361C53.4803 18.1174 52.486 18.621 51.4226 18.9182C50.3592 19.2154 49.2476 19.3003 48.1514 19.1681C50.065 20.3975 52.2927 21.0502 54.568 21.0481C62.2689 21.0481 66.4802 14.6751 66.4802 9.14806C66.4802 8.96806 66.4752 8.78606 66.4672 8.60806C67.2869 8.01623 67.9944 7.28308 68.5564 6.44306L68.5554 6.44206Z" fill="black"/>
<path d="M110.772 19.1251H108.104V14.9481C108.104 13.9521 108.084 12.6701 106.713 12.6701C105.322 12.6701 105.11 13.7541 105.11 14.8751V19.1251H102.441V10.5361H105.004V11.7061H105.039C105.397 11.0321 106.268 10.3191 107.569 10.3191C110.272 10.3191 110.773 12.0971 110.773 14.4101V19.1251H110.772ZM99.428 9.36113C99.2244 9.3614 99.0227 9.3215 98.8345 9.24374C98.6463 9.16598 98.4753 9.05187 98.3313 8.90797C98.1874 8.76406 98.0733 8.59319 97.9956 8.40515C97.9178 8.2171 97.878 8.01558 97.8784 7.81213C97.8786 7.50597 97.9697 7.20674 98.1401 6.95228C98.3106 6.69782 98.5527 6.49957 98.8359 6.38259C99.1192 6.2656 99.4308 6.23515 99.7313 6.29507C100.032 6.355 100.308 6.50261 100.524 6.71924C100.741 6.93587 100.888 7.21179 100.948 7.51211C101.008 7.81244 100.977 8.12367 100.859 8.40645C100.742 8.68924 100.543 8.93087 100.288 9.1008C100.033 9.27074 99.7335 9.36133 99.427 9.36113H99.428ZM100.765 19.1251H98.0896V10.5361H100.766V19.1251H100.765ZM112.108 3.78613H96.7513C96.0145 3.78613 95.4209 4.36613 95.4209 5.08313V20.4891C95.4209 21.2061 96.0155 21.7861 96.7503 21.7861H112.104C112.839 21.7861 113.439 21.2061 113.439 20.4891V5.08313C113.439 4.36613 112.839 3.78613 112.104 3.78613H112.107H112.108Z" fill="black"/>
<path d="M150.478 9.78613C149.681 9.78613 148.917 10.1022 148.354 10.6648C147.791 11.2274 147.474 11.9905 147.474 12.7861C147.474 13.5818 147.791 14.3448 148.354 14.9075C148.917 15.4701 149.681 15.7861 150.478 15.7861C151.274 15.7861 152.038 15.4701 152.601 14.9075C153.164 14.3448 153.481 13.5818 153.481 12.7861C153.481 11.9905 153.164 11.2274 152.601 10.6648C152.038 10.1022 151.274 9.78613 150.478 9.78613ZM150.478 7.78613C151.805 7.78613 153.078 8.31292 154.017 9.2506C154.955 10.1883 155.483 11.4601 155.483 12.7861C155.483 14.1122 154.955 15.384 154.017 16.3217C153.078 17.2593 151.805 17.7861 150.478 17.7861C149.15 17.7861 147.877 17.2593 146.938 16.3217C146 15.384 145.472 14.1122 145.472 12.7861C145.472 11.4601 146 10.1883 146.938 9.2506C147.877 8.31292 149.15 7.78613 150.478 7.78613ZM156.984 7.53613C156.984 7.86765 156.852 8.1856 156.618 8.42002C156.383 8.65444 156.065 8.78613 155.733 8.78613C155.401 8.78613 155.083 8.65444 154.848 8.42002C154.613 8.1856 154.482 7.86765 154.482 7.53613C154.482 7.20461 154.613 6.88667 154.848 6.65225C155.083 6.41783 155.401 6.28613 155.733 6.28613C156.065 6.28613 156.383 6.41783 156.618 6.65225C156.852 6.88667 156.984 7.20461 156.984 7.53613ZM150.478 4.78613C148.001 4.78613 147.597 4.79313 146.444 4.84413C145.66 4.88113 145.133 4.98613 144.645 5.17613C144.21 5.34413 143.897 5.54513 143.563 5.87913C143.25 6.18153 143.009 6.55072 142.859 6.95913C142.669 7.44913 142.563 7.97413 142.527 8.75713C142.475 9.86113 142.469 10.2471 142.469 12.7861C142.469 15.2601 142.476 15.6641 142.527 16.8151C142.564 17.5981 142.67 18.1251 142.859 18.6121C143.029 19.0471 143.229 19.3601 143.561 19.6921C143.899 20.0281 144.212 20.2291 144.643 20.3951C145.137 20.5861 145.664 20.6921 146.444 20.7281C147.55 20.7801 147.936 20.7861 150.478 20.7861C152.954 20.7861 153.359 20.7791 154.511 20.7281C155.294 20.6911 155.821 20.5861 156.31 20.3971C156.743 20.2281 157.058 20.0271 157.391 19.6951C157.728 19.3581 157.929 19.0451 158.095 18.6151C158.286 18.1221 158.392 17.5951 158.428 16.8151C158.48 15.7111 158.486 15.3251 158.486 12.7861C158.486 10.3121 158.479 9.90813 158.428 8.75713C158.391 7.97513 158.286 7.44713 158.095 6.95913C157.945 6.55113 157.704 6.18209 157.392 5.87913C157.089 5.56598 156.719 5.3253 156.311 5.17513C155.82 4.98513 155.294 4.88013 154.511 4.84413C153.406 4.79213 153.019 4.78613 150.478 4.78613ZM150.478 2.78613C153.197 2.78613 153.537 2.79613 154.604 2.84613C155.67 2.89613 156.396 3.06313 157.034 3.31113C157.695 3.56513 158.252 3.90913 158.808 4.46413C159.317 4.96403 159.711 5.56872 159.962 6.23613C160.21 6.87313 160.378 7.59913 160.428 8.66413C160.475 9.73013 160.488 10.0691 160.488 12.7861C160.488 15.5031 160.478 15.8421 160.428 16.9081C160.378 17.9731 160.21 18.6981 159.962 19.3361C159.712 20.0039 159.318 20.6087 158.808 21.1081C158.308 21.6165 157.702 22.0099 157.034 22.2611C156.397 22.5081 155.67 22.6761 154.604 22.7261C153.537 22.7731 153.197 22.7861 150.478 22.7861C147.758 22.7861 147.418 22.7761 146.351 22.7261C145.285 22.6761 144.559 22.5081 143.921 22.2611C143.252 22.0106 142.647 21.6171 142.147 21.1081C141.638 20.6083 141.244 20.0036 140.993 19.3361C140.745 18.6991 140.577 17.9731 140.527 16.9081C140.48 15.8421 140.467 15.5031 140.467 12.7861C140.467 10.0691 140.477 9.73013 140.527 8.66413C140.577 7.59813 140.745 6.87413 140.993 6.23613C141.243 5.56831 141.637 4.96345 142.147 4.46413C142.647 3.95536 143.253 3.56186 143.921 3.31113C144.559 3.06313 145.284 2.89613 146.351 2.84613C147.418 2.79913 147.758 2.78613 150.478 2.78613Z" fill="black"/>
<defs>
<clipPath id="clip0_0_1236">
<rect width="24.0247" height="24" fill="white" transform="translate(0.323242 0.786133)"/>
</clipPath>
</defs>
</svg>
