<svg width="434" height="244" viewBox="0 0 434 244" fill="none" xmlns="http://www.w3.org/2000/svg">
<path d="M179.723 129.333L172.44 128.057C172.201 125.827 171.717 123.661 170.997 121.584L177.046 117.352C177.454 117.068 177.553 116.501 177.267 116.096L168.868 104.158C168.584 103.748 168.018 103.649 167.612 103.937L161.564 108.172C159.852 106.786 157.973 105.598 155.955 104.612L157.234 97.3446C157.319 96.8609 156.988 96.3906 156.498 96.3051L142.094 93.7829C141.605 93.6974 141.136 94.0281 141.05 94.5096L139.771 101.777C137.537 102.018 135.363 102.502 133.279 103.219L129.037 97.1826C128.757 96.7731 128.191 96.6741 127.783 96.9621L115.812 105.337C115.402 105.62 115.302 106.187 115.591 106.592L119.835 112.627C118.453 114.337 117.256 116.209 116.27 118.225L108.986 116.949C108.499 116.863 108.027 117.19 107.941 117.68L105.413 132.051C105.328 132.537 105.659 133.012 106.146 133.097L113.431 134.373C113.667 136.598 114.155 138.765 114.874 140.844L108.823 145.074C108.413 145.364 108.314 145.922 108.602 146.332L117.001 158.272C117.287 158.677 117.853 158.776 118.255 158.493L124.303 154.263C126.019 155.638 127.898 156.832 129.916 157.818L128.64 165.079C128.554 165.565 128.883 166.033 129.373 166.118L143.777 168.64C144.266 168.726 144.737 168.397 144.821 167.911L146.097 160.651C148.33 160.41 150.504 159.924 152.586 159.213L156.83 165.243C157.114 165.646 157.68 165.745 158.086 165.463L170.057 157.089C170.465 156.805 170.564 156.243 170.278 155.833L166.036 149.797C167.423 148.087 168.616 146.215 169.601 144.203L176.883 145.479C177.37 145.564 177.842 145.229 177.927 144.743L180.455 130.372C180.539 129.882 180.21 129.418 179.723 129.333ZM140.322 146.066C132.099 144.626 126.601 136.81 128.044 128.604C129.488 120.4 137.322 114.915 145.547 116.355C153.77 117.795 159.268 125.611 157.824 133.817C156.381 142.021 148.544 147.506 140.322 146.066Z" fill="#F4E8D8"/>
<path d="M278.852 55.9761L266.618 57.8188C265.048 54.4101 263.125 51.2263 260.874 48.3126L268.212 38.3833C268.709 37.7173 268.564 36.7656 267.892 36.2728L248.197 21.7873C247.528 21.2878 246.578 21.4318 246.089 22.1046L238.748 32.0338C235.293 30.7423 231.676 29.8536 227.95 29.3631L226.101 17.1501C225.979 16.3401 225.203 15.7686 224.382 15.8923L200.179 19.5418C199.359 19.6656 198.788 20.4396 198.912 21.2496L200.761 33.4626C197.345 35.0308 194.154 36.9546 191.229 39.1978L181.276 31.8741C180.613 31.3746 179.664 31.5186 179.17 32.1913L164.642 51.8338C164.144 52.5021 164.288 53.4538 164.962 53.9443L174.917 61.2658C173.633 64.7128 172.734 68.3218 172.246 72.0411L160.01 73.8861C159.189 74.0098 158.616 74.7748 158.74 75.6006L162.396 99.7453C162.52 100.56 163.296 101.14 164.116 101.017L176.353 99.1716C177.916 102.576 179.844 105.757 182.093 108.673L174.75 118.598C174.254 119.275 174.396 120.214 175.07 120.713L194.765 135.199C195.435 135.687 196.386 135.545 196.871 134.881L204.212 124.959C207.669 126.23 211.286 127.128 215.017 127.621L216.864 139.822C216.988 140.637 217.761 141.208 218.58 141.085L242.78 137.437C243.601 137.314 244.174 136.542 244.05 135.725L242.203 123.523C245.617 121.955 248.809 120.029 251.731 117.797L261.681 125.114C262.347 125.605 263.298 125.461 263.79 124.797L278.318 105.152C278.814 104.486 278.672 103.539 277.998 103.042L268.048 95.7156C269.335 92.2663 270.231 88.6596 270.722 84.9471L282.957 83.1043C283.776 82.9806 284.344 82.1998 284.22 81.3853L280.564 57.2406C280.442 56.4148 279.669 55.8523 278.852 55.9761ZM225.645 105.996C210.418 108.291 196.21 97.8351 193.91 82.6453C191.61 67.4533 202.09 53.2783 217.315 50.9833C232.542 48.6883 246.75 59.1441 249.05 74.3338C251.35 89.5258 240.872 103.701 225.645 105.996Z" fill="#F4E8D8"/>
<path d="M125.142 117.617C125.578 117.617 125.578 116.942 125.142 116.942C124.707 116.942 124.707 117.617 125.142 117.617Z" fill="#F4E8D8"/>
<path d="M179.784 114.719L186.554 114.746L196.689 108.511L217.493 93.4834L196.308 93.3147L179.784 114.719Z" fill="#702022"/>
<path d="M194.379 91.1255L177.585 111.544L179.797 114.746L196.813 94.01L194.379 91.1255Z" fill="#972D29"/>
<path d="M194.379 91.1255L215.281 90.8442L217.493 93.4835L196.813 94.01L194.379 91.1255Z" fill="#C83F37"/>
<path d="M209.097 107.132L208.343 116.852L206.954 135.172L225.375 133.482L229.766 112.359L209.097 107.132Z" fill="#CE6D3E"/>
<path d="M196.52 97.6415L185.147 110.867L188.444 134.224L207.697 134.548L210.241 113.146L196.52 97.6415Z" fill="#F2864F"/>
<path d="M196.52 97.6415L185.147 110.867L188.444 134.224L199.643 134.436L200.602 103.932L196.52 97.6415Z" fill="#CE6D3E"/>
<path opacity="0.5" d="M205.083 109.447L196.52 97.6415L193.329 101.352L194.973 134.316L203.536 134.726L205.083 109.447Z" fill="#C16840"/>
<path d="M207.479 132.199C207.497 131.891 207.336 131.631 207.118 131.619C206.9 131.606 206.709 131.845 206.691 132.153C206.673 132.46 206.835 132.72 207.052 132.733C207.27 132.746 207.461 132.507 207.479 132.199Z" fill="#3E424B"/>
<path d="M207.984 125.3C208.002 124.992 207.84 124.733 207.623 124.72C207.405 124.707 207.214 124.946 207.196 125.254C207.178 125.561 207.339 125.821 207.557 125.834C207.775 125.847 207.966 125.608 207.984 125.3Z" fill="#3E424B"/>
<path d="M208.744 116.871C208.762 116.564 208.6 116.304 208.383 116.291C208.165 116.278 207.974 116.517 207.956 116.825C207.938 117.133 208.099 117.392 208.317 117.405C208.534 117.418 208.726 117.179 208.744 116.871Z" fill="#3E424B"/>
<path d="M227.334 119.805C227.418 119.571 227.345 119.331 227.172 119.269C226.998 119.207 226.789 119.347 226.705 119.581C226.621 119.815 226.694 120.055 226.867 120.117C227.041 120.179 227.25 120.039 227.334 119.805Z" fill="#3E424B"/>
<path d="M225.918 126.082C226.002 125.848 225.93 125.609 225.756 125.547C225.583 125.485 225.374 125.624 225.29 125.858C225.206 126.092 225.278 126.332 225.452 126.394C225.625 126.456 225.834 126.316 225.918 126.082Z" fill="#3E424B"/>
<path d="M224.505 133.034C224.589 132.8 224.517 132.56 224.343 132.498C224.169 132.436 223.961 132.576 223.877 132.81C223.793 133.043 223.865 133.283 224.039 133.345C224.212 133.407 224.421 133.268 224.505 133.034Z" fill="#3E424B"/>
<path d="M188.571 126.533C188.587 126.26 188.444 126.029 188.251 126.018C188.058 126.007 187.889 126.219 187.873 126.492C187.857 126.765 188 126.995 188.193 127.006C188.385 127.018 188.555 126.806 188.571 126.533Z" fill="#3E424B"/>
<path d="M187.699 118.621C187.715 118.352 187.573 118.125 187.383 118.114C187.193 118.102 187.026 118.312 187.01 118.581C186.994 118.85 187.135 119.077 187.325 119.088C187.516 119.1 187.683 118.89 187.699 118.621Z" fill="#3E424B"/>
<path d="M186.594 111.814C186.609 111.551 186.471 111.329 186.284 111.318C186.098 111.307 185.934 111.511 185.918 111.774C185.903 112.037 186.041 112.259 186.228 112.27C186.414 112.281 186.578 112.077 186.594 111.814Z" fill="#3E424B"/>
<path d="M191.178 105.751C191.196 105.443 191.035 105.183 190.817 105.171C190.6 105.158 190.408 105.397 190.39 105.705C190.372 106.012 190.534 106.272 190.751 106.285C190.969 106.298 191.16 106.058 191.178 105.751Z" fill="#3E424B"/>
<path d="M195.991 100.61C196.009 100.302 195.847 100.042 195.63 100.03C195.412 100.017 195.221 100.256 195.203 100.563C195.185 100.871 195.346 101.131 195.564 101.144C195.782 101.156 195.973 100.917 195.991 100.61Z" fill="#3E424B"/>
<path d="M189.372 132.935C189.386 132.697 189.26 132.496 189.091 132.486C188.922 132.476 188.773 132.661 188.759 132.899C188.745 133.137 188.871 133.339 189.04 133.349C189.209 133.358 189.358 133.173 189.372 132.935Z" fill="#3E424B"/>
<path d="M197.269 132.696C197.284 132.442 197.15 132.227 196.97 132.217C196.79 132.206 196.632 132.404 196.617 132.658C196.602 132.912 196.736 133.127 196.916 133.138C197.096 133.148 197.254 132.951 197.269 132.696Z" fill="#3E424B"/>
<path d="M212.93 112.059L210.553 115.977L230.23 115.428L232.399 111.6L212.93 112.059Z" fill="#972D29"/>
<path d="M196.871 94.1157L217.154 93.7085L232.399 111.6L212.93 112.059L196.871 94.1157Z" fill="#C83F37"/>
<path d="M194.474 97.0565L210.553 115.977L212.933 112.057L196.871 94.1157L194.474 97.0565Z" fill="#972D29"/>
<path d="M196.539 120.286C199.114 120.286 201.201 117.582 201.201 114.247C201.201 110.911 199.114 108.208 196.539 108.208C193.965 108.208 191.878 110.911 191.878 114.247C191.878 117.582 193.965 120.286 196.539 120.286Z" fill="#F6BE4A"/>
<path d="M197.373 119.869C199.487 119.869 201.201 117.352 201.201 114.247C201.201 111.141 199.487 108.624 197.373 108.624C195.26 108.624 193.546 111.141 193.546 114.247C193.546 117.352 195.26 119.869 197.373 119.869Z" fill="#102441"/>
<path d="M199.951 95.6389C200.049 95.4475 199.883 95.1672 199.58 95.013C199.277 94.8587 198.952 94.8889 198.854 95.0803C198.756 95.2718 198.922 95.552 199.225 95.7063C199.528 95.8606 199.853 95.8304 199.951 95.6389Z" fill="#4D525B"/>
<path d="M213.969 111.561C214.067 111.37 213.901 111.09 213.598 110.935C213.296 110.781 212.971 110.811 212.873 111.003C212.775 111.194 212.941 111.474 213.244 111.629C213.546 111.783 213.871 111.753 213.969 111.561Z" fill="#4D525B"/>
<path d="M230.198 110.966C230.296 110.774 230.13 110.494 229.827 110.34C229.525 110.186 229.2 110.216 229.102 110.407C229.004 110.599 229.17 110.879 229.473 111.033C229.775 111.187 230.1 111.157 230.198 110.966Z" fill="#4D525B"/>
<path d="M218.384 92.8538C218.482 92.6623 218.316 92.3821 218.013 92.2278C217.711 92.0736 217.386 92.1037 217.288 92.2952C217.19 92.4866 217.356 92.7669 217.659 92.9211C217.961 93.0754 218.286 93.0452 218.384 92.8538Z" fill="#4D525B"/>
<path d="M216.712 95.3826L217.554 92.6578L218.061 92.8648L216.776 95.4073C216.758 95.4456 216.701 95.4231 216.712 95.3826Z" fill="#4D525B"/>
<path opacity="0.5" d="M231.019 109.992C229.77 111.585 226.804 111.744 222.77 110.093C216.139 107.379 209.132 100.807 207.119 95.4117C206.401 93.4925 206.415 91.9805 207.026 90.9522L215.28 90.8442L217.468 93.5037L217.154 93.7085L231.019 109.992Z" fill="#C83F37"/>
<path d="M190.62 131.007L174.567 131.722L174.687 134.393L190.739 133.678L190.62 131.007Z" fill="#F6CF4C"/>
<path d="M174.701 134.398C175.204 134.375 175.585 133.758 175.552 133.02C175.519 132.281 175.084 131.7 174.582 131.723C174.079 131.745 173.698 132.362 173.731 133.101C173.764 133.839 174.199 134.42 174.701 134.398Z" fill="#F5864E"/>
<path d="M190.687 133.686C191.189 133.664 191.57 133.047 191.537 132.308C191.504 131.569 191.07 130.989 190.567 131.011C190.064 131.034 189.684 131.651 189.717 132.389C189.75 133.128 190.184 133.708 190.687 133.686Z" fill="#F6CF4C"/>
<path d="M223.824 218.802L220.013 219.465L216.632 218.727L211.867 142.808H224.345L223.824 218.802Z" fill="#102441"/>
<path d="M223.815 218.784L219.9 219.465L219.187 173.883L224.2 160.718L223.815 218.784Z" fill="#634874"/>
<path d="M261.283 220.262C261.517 218.359 260.225 216.635 258.398 216.411C256.571 216.188 254.9 217.55 254.666 219.453C254.433 221.356 255.724 223.08 257.552 223.303C259.379 223.527 261.05 222.165 261.283 220.262Z" fill="#131620"/>
<path d="M290.311 222.279C292.138 222.056 293.43 220.332 293.196 218.429C292.963 216.526 291.292 215.164 289.465 215.387C287.638 215.611 286.346 217.334 286.579 219.238C286.813 221.141 288.484 222.503 290.311 222.279Z" fill="#131620"/>
<path d="M291.289 214.239C288.503 214.128 271.727 212.796 271.727 212.796C271.727 212.796 259.483 214.005 257.136 213.915C253.71 213.78 253.636 217.213 253.89 218.066C254.145 218.919 256.54 218.831 257.145 218.599L259.278 218.178L271.943 216.637L287.775 218.104L289.908 218.525C290.513 218.757 291.913 219.002 292.518 218.77L293.623 218.649C293.975 218.514 293.993 216.786 294.002 216.41C294.031 215.229 294.358 214.362 291.289 214.239Z" fill="#102441"/>
<path d="M258.339 136.2C258.339 136.2 265.544 131.554 269.482 141.211C273.437 150.91 271.153 150.523 262.755 154.119C258.037 156.139 250.148 159.494 243.031 161.445C237.571 162.941 224.811 168.895 221.349 161.004C219.281 156.29 221.423 152.137 225.302 150.253C229.193 148.366 258.339 136.2 258.339 136.2Z" fill="#D8A344"/>
<path d="M257.807 201.754C261.336 203.176 264.354 208.641 264.354 208.641C264.354 208.641 256.598 215.569 252.987 217.866C252.236 218.343 249.562 219.398 246.991 220.339C244.221 221.351 237.909 221.956 237.066 221.617C236.152 221.25 235.167 215.638 237.39 212.524C239.456 209.631 244.855 209.462 245.243 208.821C248.77 202.953 256.226 201.117 257.807 201.754Z" fill="#131620"/>
<path d="M245.406 208.513C245.406 208.513 246.454 208.47 247.307 210.436" stroke="#29ABE3" stroke-width="3" stroke-miterlimit="10" stroke-linecap="round" stroke-linejoin="round"/>
<path d="M240.965 210.009C240.965 210.009 241.928 209.701 242.966 211.647" stroke="#29ABE3" stroke-width="3" stroke-miterlimit="10" stroke-linecap="round" stroke-linejoin="round"/>
<path d="M243.646 209.278C243.646 209.278 244.812 209.629 245.227 210.889" stroke="#29ABE3" stroke-width="3" stroke-miterlimit="10" stroke-linecap="round" stroke-linejoin="round"/>
<path d="M236.868 221.434L237.068 222.451C237.134 222.78 237.371 223.054 237.65 223.12C239.617 223.574 245.726 222.411 248.072 221.52C250.381 220.642 251.768 220.087 253.786 218.566C256.777 216.309 265.13 210.542 265.13 210.542C265.13 210.542 265.276 209.163 264.341 208.652C264.007 208.47 254.65 215.479 250.568 218.433C249.583 219.146 247.781 219.828 246.651 220.087C242.163 221.115 236.868 221.434 236.868 221.434Z" fill="#29ABE3"/>
<path d="M245.974 208.22C246.163 208.434 246.445 208.578 246.757 208.616C248.026 208.774 251.743 208.753 254.643 207.448C258.274 205.813 262.029 203.126 262.029 203.126L257.487 195.217C257.487 195.217 243.008 169.259 239.014 161.353C236.107 155.597 231.944 151.072 225.855 153.003C220.143 154.814 219.525 158.34 222.312 164.476C224.261 168.762 236.058 189.997 236.058 189.997L243.421 204.784L245.974 208.22Z" fill="#D8A344"/>
<path d="M261.129 201.781L257.108 195.33C257.108 195.33 253.164 188.53 248.103 179.143C246.664 176.475 245.392 176.749 244.817 178.648C244.761 178.651 244.729 178.653 244.729 178.653C244.729 178.653 243.387 181.101 243.36 183.891C243.36 183.891 243.696 182.278 244.495 180.916C244.423 183.49 245.081 187.088 246.885 190.706C247.645 192.229 251.121 194.943 254.451 197.305C252.196 196.617 249.377 195.604 248.263 194.578C248.263 194.578 253.482 199.823 258.245 200.179C258.407 200.19 258.547 200.192 258.675 200.19C260.139 201.157 261.129 201.781 261.129 201.781Z" fill="#D8A344"/>
<path d="M280.112 165.614L290.818 172.823L292.96 171.489L281.184 164.01L280.112 165.614Z" fill="#102441"/>
<path d="M290.141 171.896L291.325 170.571C291.7 170.15 292.331 170.071 292.85 170.379L294.791 171.531C295.5 171.952 295.709 172.899 295.227 173.498L294.155 174.828C293.795 175.275 293.156 175.379 292.622 175.077L290.57 173.921C289.816 173.5 289.604 172.497 290.141 171.896Z" fill="#102441"/>
<path d="M281.987 158.758H274.493V212.283H281.987V158.758Z" fill="#102441"/>
<path d="M282.522 209.862C282.522 211.149 281.66 212.166 280.67 212.029C280.086 211.948 279.362 211.914 278.5 211.986C277.384 212.079 276.41 212.196 275.654 212.301C274.748 212.427 273.958 211.512 273.958 210.335V177.096H282.524V209.862H282.522Z" fill="#273150"/>
<path d="M280.56 172.823V175.671" stroke="#273150" stroke-width="3" stroke-miterlimit="10" stroke-linecap="round" stroke-linejoin="round"/>
<path d="M280.381 182.703V206.884" stroke="#273150" stroke-width="5" stroke-miterlimit="10"/>
<path d="M138.635 223.288L134.679 220.145L145.2 187.439L149.505 189.851L138.635 223.288Z" fill="#C83F37"/>
<path d="M145.199 187.439L167.873 186.962L172.503 189.127L149.504 189.851L145.199 187.439Z" fill="#EB5E4D"/>
<path d="M172.503 189.127L163.081 220.843L138.635 223.288L149.505 189.851L172.503 189.127Z" fill="#972D29"/>
<path d="M256.711 162.842L269.291 164.134C272.344 164.446 275.028 162.394 275.028 159.746V157.091C275.028 154.432 272.739 150.062 269.674 150.393L256.677 154.071C254.111 154.35 252.187 156.229 252.187 158.455C252.189 160.691 254.131 162.577 256.711 162.842Z" fill="#273150"/>
<path d="M297.381 162.739L271.55 164.293C268.066 164.502 265.125 161.74 265.125 158.257V156.274C265.125 152.895 267.901 150.172 271.286 150.229L297.117 150.658C300.446 150.715 303.107 153.437 303.078 156.758C303.051 159.933 300.561 162.547 297.381 162.739Z" fill="#634874"/>
<path d="M298.692 160.336C298.692 160.336 286.834 159.026 284.378 155.822C281.922 152.618 294.797 153.507 294.797 153.507C298.15 153.563 300.394 151.03 301.802 154.351C303.146 157.53 301.788 160.144 298.692 160.336Z" fill="#634874"/>
<path d="M265.255 225.511C267.542 225.511 269.396 223.662 269.396 221.38C269.396 219.099 267.542 217.249 265.255 217.249C262.969 217.249 261.115 219.099 261.115 221.38C261.115 223.662 262.969 225.511 265.255 225.511Z" fill="#131620"/>
<path d="M294.766 224.879C297.382 224.879 299.502 222.764 299.502 220.154C299.502 217.545 297.382 215.429 294.766 215.429C292.151 215.429 290.03 217.545 290.03 220.154C290.03 222.764 292.151 224.879 294.766 224.879Z" fill="#131620"/>
<path d="M266.343 221.065C266.343 221.065 266.316 221.279 268.081 220.8C269.94 220.296 270.535 220.042 270.594 219.686C270.668 219.243 270.366 218.188 271.011 217.951L276.676 216.037C277.639 215.755 278.633 215.355 279.619 215.546C279.619 215.546 291.012 218.595 292.309 218.822C293.606 219.049 293.157 220.498 293.818 220.676C294.975 220.991 296.486 220.894 296.486 220.894L297.027 216.424L276.435 211.681L266.198 217.42L266.343 221.065Z" fill="#102441"/>
<path d="M282.613 212.104C282.613 212.104 270.361 216.77 268.169 217.353C267.116 217.632 267.032 218.541 266.965 219.211L266.913 219.724C266.832 220.532 266.798 221.241 265.993 221.133L261.06 220.426C260.348 220.33 259.818 219.722 259.818 219.007C259.818 217.324 260.941 215.845 262.565 215.393C266.933 214.176 274.754 210.562 274.754 210.562L282.613 212.104Z" fill="#273150"/>
<path d="M274.335 212.594C274.335 212.594 291.33 216.662 293.576 216.984C294.699 217.144 295.541 218.125 295.892 218.894C296.244 219.664 295.685 221.009 296.49 220.899L300.453 220.732C301.165 220.636 301.646 219.621 301.646 218.903C301.646 217.22 300.838 215.742 299.214 215.29C294.846 214.072 281.452 210.533 281.452 210.533L274.335 212.594Z" fill="#273150"/>
<path d="M148.373 224.631L143.463 220.797L156.077 180.356L161.41 183.283L148.373 224.631Z" fill="#AA4928"/>
<path d="M156.077 180.356L184.028 179.523L189.758 182.142L161.41 183.283L156.077 180.356Z" fill="#F6CF4C"/>
<path d="M189.759 182.142L178.487 221.346L148.374 224.631L161.411 183.283L189.759 182.142Z" fill="#EE844E"/>
<path d="M152.892 230.432L165.88 228.36L165.794 225.687L152.806 227.759L152.892 230.432Z" fill="#F6CF4C"/>
<path d="M152.904 230.44C153.407 230.424 153.796 229.812 153.772 229.073C153.749 228.334 153.322 227.748 152.819 227.764C152.316 227.78 151.927 228.392 151.951 229.131C151.974 229.87 152.401 230.456 152.904 230.44Z" fill="#F5864E"/>
<path d="M165.822 228.37C166.325 228.354 166.713 227.742 166.69 227.003C166.666 226.264 166.239 225.678 165.736 225.694C165.233 225.71 164.845 226.322 164.868 227.061C164.892 227.8 165.319 228.386 165.822 228.37Z" fill="#F6CF4C"/>
<path d="M142.079 227.428L149.413 229.314L149.857 226.319L142.305 225.234L142.079 227.428Z" fill="#F6CF4C"/>
<path d="M142.99 226.254C142.933 226.868 142.527 227.401 142.09 227.433C141.657 227.464 141.361 226.992 141.429 226.384C141.494 225.786 141.889 225.275 142.313 225.234C142.744 225.194 143.046 225.646 142.99 226.254Z" fill="#F6CF4C"/>
<path d="M150.622 227.723C150.649 228.567 150.225 229.282 149.679 229.307C149.14 229.332 148.705 228.668 148.698 227.844C148.692 227.037 149.102 226.359 149.621 226.319C150.146 226.276 150.595 226.899 150.622 227.723Z" fill="#F5864E"/>
<path d="M272.698 86.0225L268.283 88.565C266.618 89.5235 264.433 88.8575 263.402 87.0777L258.942 79.367C257.911 77.5872 258.425 75.3665 260.089 74.4057L265.879 68.963C267.543 68.0045 268.355 71.5685 269.385 73.3505L273.846 81.0612C274.877 82.8432 274.363 85.064 272.698 86.0225Z" fill="#A76343"/>
<path d="M272.754 82.8095L270.131 84.3215C269.141 84.8907 267.556 83.9975 266.588 82.3257L262.398 75.0852C261.431 73.4135 260.211 70.9115 261.199 70.3422L266.194 67.4937C267.184 66.9245 267.903 70.331 268.871 72.0027L272.79 78.7505C273.76 80.4222 273.742 82.2402 272.754 82.8095Z" fill="#AA6345"/>
<path d="M263.404 87.0777L258.943 79.3669C257.912 77.5872 258.524 75.3102 260.31 74.2819L265.043 71.5549C266.827 70.5267 264.435 88.8574 263.404 87.0777Z" fill="#7C4631"/>
<path d="M261.539 111.108C261.539 111.108 255.086 105.548 250.689 103.5C247.489 102.011 244.53 104.67 245.116 107.595C245.608 110.046 257.725 121.93 259.777 123.98C261.83 126.027 262.709 130.417 268.868 126.027C275.027 121.64 267.695 114.91 261.539 111.108Z" fill="#7C4631"/>
<path d="M250.358 106.608C250.358 106.608 250.358 101.199 249.543 99.3042C248.729 97.412 245.207 94.5027 243.851 93.6927C242.496 92.8805 240.892 95.8505 241.393 97.448C241.731 98.5302 242.688 100.193 243.908 103.032C245.125 105.872 247.782 108.095 250.358 106.608Z" fill="#7C4631"/>
<path d="M250.917 112.921L245.98 115.718L237.604 100.429L234.325 93.749L231.161 88.7157L235.597 86.459L238.166 91.4697L242.442 98.4402L250.917 112.921Z" fill="#F5864E"/>
<path d="M248.852 115.015C250.235 114.221 251.172 113.259 250.946 112.865C250.719 112.472 249.414 112.797 248.031 113.591C246.648 114.385 245.711 115.348 245.938 115.741C246.165 116.134 247.47 115.809 248.852 115.015Z" fill="#EB5E4D"/>
<path d="M235.076 97.4164C233.736 97.5311 233.45 98.9351 233.901 99.9274C234.352 100.92 235.101 100.868 236.603 101.057C238.513 101.298 241.625 101.457 241.848 100.53C242.071 99.6011 241.713 99.1016 239.444 98.1634C238.666 97.8416 236.415 97.3016 235.076 97.4164Z" fill="#7C4631"/>
<path d="M236.939 100.497C236.136 100.285 235.401 101.163 235.735 101.934C236.06 102.686 236.398 103.424 236.578 103.689C236.88 104.133 239.911 104.225 241.553 104.243C242.119 104.25 242.604 103.759 242.609 103.176L242.613 102.735C242.618 102.294 242.343 101.923 241.934 101.815L236.939 100.497Z" fill="#7C4631"/>
<path d="M238.041 105.606L238.321 105.998C238.544 106.311 238.878 106.473 239.201 106.425L242.265 105.98C242.838 105.897 243.168 105.201 242.956 104.522C242.802 104.034 242.408 103.703 241.988 103.707L238.644 103.759C237.866 103.775 237.511 104.864 238.041 105.606Z" fill="#7C4631"/>
<path d="M239.476 106.9L239.762 107.654C239.864 107.958 240.132 108.178 240.453 108.214C240.453 108.214 241.977 108.356 242.737 108.261C243.497 108.167 243.829 107.739 243.542 106.839C243.256 105.937 242.448 105.795 241.449 105.89C240.453 105.984 239.55 106.126 239.476 106.9Z" fill="#7C4631"/>
<path d="M242.721 93.2045C240.845 92.7747 239.445 93.4273 236.607 94.5658C234.842 95.2745 237.192 97.637 238.838 97.4728C240.417 97.3153 241.93 97.07 242.572 97.106C244.117 97.1848 245.258 93.785 242.721 93.2045Z" fill="#7C4631"/>
<path d="M230.399 79.4435C232.544 78.5097 238.279 80.3502 240.816 81.2502C241.233 81.3987 241.461 81.8375 241.346 82.2672L241.134 83.0457C241.134 83.0457 237.564 82.391 235.749 82.175C234.513 82.0265 233.539 82.9175 233.043 83.5025L230.399 79.4435Z" fill="#102441"/>
<path d="M222.468 84.9357L225.46 83.0682C225.695 82.922 225.855 82.6835 225.9 82.4135L226.166 80.8092C226.211 80.5415 226.369 80.303 226.602 80.1567C227.497 79.5897 229.883 78.125 231.953 77.225C234.296 76.2057 240.561 78.215 243.331 79.1982C243.786 79.3602 244.037 79.8395 243.908 80.3075L243.678 81.158C243.678 81.158 239.779 80.4425 237.796 80.2062C236.445 80.0442 235.381 81.0185 234.84 81.6552C234.589 81.95 234.247 82.5912 234.423 82.9265L235.931 85.7727C236.175 86.234 236.285 86.5805 235.812 86.8235L230.974 89.2895C230.562 89.4987 230.629 89.4605 230.356 89.0982L228.742 86.936C228.471 86.5715 227.404 86.387 226.992 86.5985L224.225 88.0092C223.778 88.2365 223.234 88.0835 222.984 87.6605L222.136 86.216C221.886 85.775 222.03 85.2102 222.468 84.9357Z" fill="#634874"/>
<path d="M234.047 88.637C232.854 89.3052 231.688 89.5347 231.445 89.15C231.201 88.7652 232.083 88.1352 233.278 87.467C234.474 86.7987 235.527 86.3487 235.768 86.7312C236.012 87.116 235.24 87.9687 234.047 88.637Z" fill="#F5864E"/>
<path d="M218.221 87.3724C218.264 88.3084 218.6 89.7844 220.163 90.6101C220.578 90.8284 220.819 90.9904 221.223 90.7361L223.475 89.3119C223.99 88.9901 224.157 88.3151 223.85 87.8044L222.314 85.2506C222.007 84.7399 221.344 84.5869 220.83 84.9086L218.6 86.3194C218.182 86.5849 218.198 86.8774 218.221 87.3724Z" fill="#634874"/>
<path d="M243.68 215.881C244.629 220.084 244.618 224.067 244.573 225.541C244.561 225.887 244.306 226.168 243.959 226.213C241.454 226.546 231.653 227.822 228.191 227.923C225.288 228.009 217.86 227.631 215.584 226.958C214.538 226.65 214.033 223.716 213.757 221.891C213.394 219.488 214.402 217.315 218.529 215.944C222.645 214.579 228.434 215.411 228.434 215.411C228.434 215.411 243.348 214.412 243.68 215.881Z" fill="#131620"/>
<path d="M223.597 214.88C223.597 214.88 225.288 214.693 226.204 217.384" stroke="#29ABE3" stroke-width="3" stroke-miterlimit="10" stroke-linecap="round" stroke-linejoin="round"/>
<path d="M226.213 214.977C226.213 214.977 228.532 214.601 229.222 217.472" stroke="#29ABE3" stroke-width="3" stroke-miterlimit="10" stroke-linecap="round" stroke-linejoin="round"/>
<path d="M228.928 215.024C228.928 215.024 231.256 214.79 231.758 217.722" stroke="#29ABE3" stroke-width="3" stroke-miterlimit="10" stroke-linecap="round" stroke-linejoin="round"/>
<path d="M215.582 226.958C215.582 226.958 215.424 228.135 215.877 228.256C216.8 228.502 221.696 228.877 228.211 228.639C232.978 228.463 233.409 228.223 235.976 228.297C240.473 228.427 243.869 227.824 244.083 227.788C244.297 227.752 244.442 226.96 244.232 226.189C244.155 225.91 238.759 227.302 227.604 227.593C219.1 227.818 215.582 226.958 215.582 226.958Z" fill="#29ABE3"/>
<path d="M226.984 213.872C226.984 213.872 229.379 216.799 233.727 218.035C238.134 219.286 244.834 218.928 244.834 218.928L248.239 213.19L252.851 177.78C252.851 177.78 258.21 151.097 249.922 148.525C244.333 146.793 238.459 146.167 236.918 152.56C235.813 157.141 229.986 183.124 229.986 183.124L229.438 200.273C229.438 200.273 226.019 209.791 225.978 210.128C225.841 211.215 226.984 213.872 226.984 213.872Z" fill="#F6CF4C"/>
<path d="M288.996 134.384C288.996 134.384 298.147 129.972 300.772 140.497C303.397 151.023 293.815 151.475 293.815 151.475C293.815 151.475 277.936 154.697 268.329 155.66C260.923 156.403 242.038 162.388 239.417 153.649C237.848 148.413 241.668 144.401 247.2 143.038C252.732 141.674 288.996 134.384 288.996 134.384Z" fill="#FEED7F"/>
<path d="M293.172 144.732C294.992 142.331 296.9 139.843 296.9 139.843C297.18 131.79 286.199 135.082 286.199 135.082C286.199 135.082 257.274 140.068 245.475 143.479C237.604 145.753 233.989 159.395 246.16 159.332C252.38 159.301 279.537 154.213 279.537 154.213C279.537 154.213 293.017 148.865 295.881 144.086C296.231 143.501 294.553 144.678 293.172 144.732Z" fill="#F6CF4C"/>
<path d="M267.73 79.9856C269.563 78.8224 275.233 77.6569 277.4 78.4894C279.567 79.3219 291.08 95.0426 295.331 105.521C297.598 111.108 301.535 135.169 301.535 137.664C301.535 140.16 285.521 142.299 285.521 142.299C285.521 142.299 266.647 138.868 264.146 131.884C263.136 129.063 265.017 127.434 264.647 124.398C264.099 119.921 261.474 113.868 260.479 108.513C258.813 99.5314 255.964 92.3269 258.7 87.6109C260.534 84.4496 265.896 81.1489 267.73 79.9856Z" fill="#29ABE3"/>
<path opacity="0.5" d="M267.73 79.9857C268.391 79.5672 277.484 83.8939 277.484 83.8939L281.818 89.0509C281.818 89.0509 291.297 103.325 292.763 110.277C294.596 119.79 297.348 140.004 297.348 140.004C297.348 140.004 294.7 140.697 292.513 141.136C290.034 141.633 285.521 142.299 285.521 142.299C283.158 141.852 277.222 140.589 272.304 138.245C268.668 136.51 265.68 134.17 264.618 131.202C263.608 128.381 265.017 127.434 264.645 124.398C264.097 119.921 261.472 113.868 260.477 108.513C258.811 99.5314 255.963 92.3269 258.698 87.6109C260.534 84.4497 265.897 81.1489 267.73 79.9857Z" fill="#209BC7"/>
<path d="M292.228 112.008L294.715 124.068C294.715 124.068 292.528 120.823 292.251 117.831C291.971 114.84 292.228 112.008 292.228 112.008Z" fill="#29ABE3"/>
<path d="M264.812 83.7273C264.812 83.7273 269.48 82.3976 271.814 83.0613C274.149 83.7273 278.984 91.2108 280.817 96.8673C282.651 102.524 281.652 105.183 277.815 106.016C273.982 106.848 272.313 108.178 266.645 102.688C260.978 97.2004 257.144 87.3881 264.812 83.7273Z" fill="#A96443"/>
<path d="M274.773 98.24C276.273 99.0725 279.816 106.849 273.147 106.682C270.107 106.606 264.32 100.821 263.644 98.366C263.26 96.9778 261.887 95.567 262.478 95.3713C264.728 94.622 273.273 97.4098 274.773 98.24Z" fill="#7C4631"/>
<path d="M256.477 91.7127L258.894 88.9407C258.894 88.9407 260.06 98.1994 262.812 101.943C265.563 105.687 272.816 110.343 272.816 110.343L280.817 127.143L280.508 137.178C279.762 139.415 275.829 140.025 273.84 141.298L255.333 147.769C255.14 147.891 252.332 160.576 252.332 160.576L251.61 169.668C251.61 169.668 247.808 169.558 237.804 168.559C227.8 167.56 216.821 164.235 216.821 164.235L223.824 136.623L264.147 131.882C264.147 131.882 263.509 131.776 263.152 130.224C262.37 126.806 261.283 119.25 259.562 110.673C257.061 98.1994 256.477 91.7127 256.477 91.7127Z" fill="#273150"/>
<path d="M258.139 89.6135C259.729 83.2708 267.796 79.3693 274.983 77.3533" stroke="#F6CF4C" stroke-width="3" stroke-miterlimit="10" stroke-linecap="round" stroke-linejoin="round"/>
<path d="M276.053 77.2969C276.053 77.2969 276.556 74.4147 277.888 74.5812C279.221 74.7499 279.041 77.1102 276.053 77.2969Z" stroke="#F6CF4C" stroke-width="3" stroke-miterlimit="10" stroke-linecap="round" stroke-linejoin="round"/>
<path d="M275.416 77.6478C275.416 77.6478 276.879 76.0481 275.626 75.1008C274.374 74.1536 273.887 75.5081 275.416 77.6478Z" stroke="#F6CF4C" stroke-width="3" stroke-miterlimit="10" stroke-linecap="round" stroke-linejoin="round"/>
<path d="M275.796 77.4521C275.796 77.4521 278.229 78.6514 278.439 80.6809" stroke="#F6CF4C" stroke-width="3" stroke-miterlimit="10" stroke-linecap="round" stroke-linejoin="round"/>
<path d="M275.529 77.5287C275.529 77.5287 276.582 81.0229 275.369 82.8184" stroke="#F6CF4C" stroke-width="3" stroke-miterlimit="10" stroke-linecap="round" stroke-linejoin="round"/>
<path d="M279.818 127.085C279.818 127.085 289.656 127.141 299.159 125.643" stroke="#F6CF4C" stroke-width="3" stroke-miterlimit="10" stroke-linecap="round" stroke-linejoin="round"/>
<path d="M298.655 125.645C298.655 125.645 297.821 127.641 299.49 128.473C301.159 129.306 300.658 127.308 298.655 125.645Z" stroke="#F6CF4C" stroke-width="3" stroke-miterlimit="10" stroke-linecap="round" stroke-linejoin="round"/>
<path d="M302.325 126.588C302.381 125.755 299.991 124.702 298.825 125.424C297.657 126.144 302.269 127.418 302.325 126.588Z" stroke="#F6CF4C" stroke-width="3" stroke-miterlimit="10" stroke-linecap="round" stroke-linejoin="round"/>
<path d="M298.435 125.922C298.435 125.922 302.102 127.807 301.991 131.578" stroke="#F6CF4C" stroke-width="3" stroke-miterlimit="10" stroke-linecap="round" stroke-linejoin="round"/>
<path d="M298.935 125.978C298.935 125.978 299.88 124.536 301.88 124.648" stroke="#F6CF4C" stroke-width="3" stroke-miterlimit="10" stroke-linecap="round" stroke-linejoin="round"/>
<path d="M266.314 84.3936C266.314 84.3936 259.645 84.3936 258.313 89.3841C256.98 94.3746 255.034 104.027 254.813 106.351C254.479 109.843 249.644 115.833 248.811 121.654C247.977 127.474 250.183 129.904 253.814 131.551C262.065 135.293 264.483 121.156 265.484 117.496C266.486 113.837 270.82 106.351 273.819 99.8646C276.819 93.3778 273.815 83.5611 266.314 84.3936Z" fill="#A96443"/>
<path d="M253.809 131.549C262.06 135.291 264.478 121.154 265.479 117.493C266.481 113.835 270.815 106.349 273.815 99.8624C275.535 96.1409 269.218 107.53 263.377 117.77C262.047 120.103 252.735 131.063 253.809 131.549Z" fill="#D77D5B"/>
<path d="M256.31 124.873C255.135 121.615 250.047 119.953 245.562 119.651C241.211 119.356 233.012 122.029 221.391 122.241C217.769 122.306 215.637 129.954 221.246 130.8C227.793 131.788 246.868 133.871 248.809 133.954C250.749 134.038 258.43 130.757 256.31 124.873Z" fill="#A76241"/>
<path d="M260.41 124.644C260.207 124.158 259.682 123.53 259.33 123.233C259.064 123.584 256.245 128.111 253.372 129.371C249.204 131.2 243.225 131.81 243.225 131.81C243.225 131.81 221.668 131.493 227.335 131.689C233.952 131.918 252.07 134.67 254.007 134.528C255.942 134.386 263.195 130.244 260.41 124.644Z" fill="#D77D5B"/>
<path d="M223.546 126.322C224.789 124.927 222.802 120.574 223.016 118.697C223.231 116.821 221.129 114.978 219.764 112.809C218.4 110.64 218.343 110.788 216.35 110.01C214.356 109.231 212.638 108.815 213.278 111.076C213.919 113.338 215.845 114.004 215.845 114.004C215.845 114.004 216.823 116.809 217.703 117.797C218.77 118.994 214.737 124.563 216.386 126.86C218.037 129.16 221.589 128.518 223.546 126.322Z" fill="#A76241"/>
<path d="M218.287 117.608C218.287 117.608 213.822 117.313 212.965 117.014C212.11 116.715 210.746 115.815 209.895 115.383C209.469 115.167 207.994 112.213 207.085 111.927C206.177 111.641 205.008 112.791 204.911 113.457C204.718 114.791 205.98 117.163 207.099 118.141C208.22 119.12 208.391 119.665 210.944 120.963C213.497 122.263 214.742 123.782 217.929 123.496C221.115 123.211 220.567 118.495 218.287 117.608Z" fill="#A76241"/>
<path d="M205.99 115.597C204.501 115.498 204.937 119.845 205.699 120.317C206.121 120.578 208.157 122.205 208.157 122.205L207.499 123.076C207.334 123.463 207.573 124.246 207.891 124.54L209.37 125.915L210.164 129.252C210.164 129.252 211.596 130.622 214.927 130.631C218.971 130.642 220.985 130.849 221.808 128.064C222.631 125.278 207.478 115.696 205.99 115.597Z" fill="#A76241"/>
<path d="M252.829 51.9754C249.521 51.1902 242.232 52.0654 240.811 58.2214C239.846 62.4087 244.663 76.7816 246.923 80.1634C250.134 84.9694 253.436 83.6351 259.27 81.2726C265.341 78.8156 267.923 74.0907 266.981 69.1047C266.038 64.1187 263.158 54.4279 252.829 51.9754Z" fill="#7A462F"/>
<path d="M251.903 60.1948C250.554 66.1528 250.538 69.3523 251.772 72.4798C253.003 75.6073 257.92 81.5203 260.691 79.4323C262.051 78.4085 263.704 77.27 264.559 75.0313C265.032 73.7938 264.099 70.4323 263.012 68.3848C261.181 64.9265 253.247 54.2503 251.903 60.1948Z" fill="#A96443"/>
<path d="M240.708 58.6512C240.708 58.6512 242.591 60.404 252.187 56.2189C252.392 56.129 253.615 64.0512 256.876 66.434C258.066 67.3047 257.444 62.7462 258.939 63.8757C261.422 65.7522 263.249 68.6795 263.249 68.6795L265.211 75.0875C265.211 75.0875 275.025 72.5945 271.913 62.546C268.826 52.5717 264.8 42.0552 249.783 49.8109C241.874 53.8947 240.649 55.5957 240.708 58.6512Z" fill="#273150"/>
<path d="M254.945 52.4726C255.418 54.2096 261.374 57.3259 261.374 57.3259L268.289 62.8451C268.289 62.8451 270.857 73.8702 271.699 65.7926C272.156 61.3871 268.214 50.1281 261.94 48.0784C258.609 46.9894 253.591 47.5091 254.945 52.4726Z" fill="#48598B"/>
<path d="M260.688 70.1282C262.455 69.9363 263.625 67.3814 263.302 64.4216C262.98 61.4618 261.285 59.2179 259.519 59.4098C257.752 59.6017 256.581 62.1566 256.904 65.1164C257.227 68.0762 258.921 70.3201 260.688 70.1282Z" fill="#A96443"/>
<path d="M246.001 68.631C246.513 68.4235 246.646 67.5667 246.3 66.7173C245.953 65.8678 245.258 65.3473 244.747 65.5547C244.236 65.7621 244.103 66.6189 244.449 67.4684C244.795 68.3179 245.49 68.8384 246.001 68.631Z" fill="#102441"/>
<path d="M243.268 63.2231C243.268 63.2231 244.941 62.5166 246.549 63.6214" stroke="#102441" stroke-width="2" stroke-miterlimit="10" stroke-linecap="round" stroke-linejoin="round"/>
<path d="M255.101 53.8497C255.101 53.8497 259.431 57.056 261.124 57.47C261.124 57.47 258.199 58.154 255.101 53.8497Z" fill="#48598B"/>
<path d="M260.657 70.5987C261.45 70.5987 262.093 69.957 262.093 69.1654C262.093 68.3739 261.45 67.7322 260.657 67.7322C259.863 67.7322 259.22 68.3739 259.22 69.1654C259.22 69.957 259.863 70.5987 260.657 70.5987Z" fill="#F3E7D7"/>
<path d="M165.81 224.717L162.411 223.524L160.115 141.364H165.81V224.717Z" fill="#273150"/>
<path d="M165.81 190.269L161.522 189.291L160.115 141.364H165.81V190.269Z" fill="#102441"/>
<path d="M170.845 224.152L165.81 224.717V140.956H172.327L170.845 224.152Z" fill="#634874"/>
<path d="M170.845 224.152L165.81 224.717V190.269L171.596 181.101L170.845 224.152Z" fill="#634874"/>
<path d="M166.181 142.916L168.012 154.308L199.547 156.09L227.43 154.866L228.693 141.492L166.181 142.916Z" fill="#C83F37"/>
<path d="M166.181 142.916L167.988 154.308L199.071 156.09L198.455 142.173L166.181 142.916Z" fill="#972D29"/>
<path d="M198.507 143.094L198.731 148.197L228.179 146.808L228.635 141.492L198.507 143.094Z" fill="#972D29"/>
<path d="M190.985 233.886L185.476 232.34L180.814 141.418H189.648L190.985 233.886Z" fill="#273150"/>
<path d="M189.914 189.023L183.313 188.222L180.814 141.418H189.648L189.914 189.023Z" fill="#102441"/>
<path d="M195.504 233.4L190.984 233.883L188.844 141.795H195.98L195.504 233.4Z" fill="#634874"/>
<path d="M195.801 176.74L189.913 189.023L190.984 233.883L195.503 233.4L195.801 176.74Z" fill="#634874"/>
<path d="M237.543 231.154L233.452 229.852L229.851 141.604L236.56 141.42L237.543 231.154Z" fill="#273150"/>
<path d="M236.916 174.981L231.132 174.128L229.851 141.604L236.56 141.42L236.916 174.981Z" fill="#102441"/>
<path d="M242.551 230.736L237.542 231.109L236.559 141.42L243.165 141.118L242.551 230.736Z" fill="#634874"/>
<path d="M242.552 230.736L237.543 231.109L236.916 174.981L242.998 167.481L242.552 230.736Z" fill="#634874"/>
<path d="M198.478 144.34L150.136 142.929V134.368L198.478 132.856V144.34Z" fill="#273150"/>
<path d="M198.479 144.34L257.152 142.633V132.661L198.479 132.861V144.34Z" fill="#634874"/>
<path d="M225.17 142.817L256.985 141.609L257.183 134.251L233.792 134.58L225.17 142.817Z" fill="#634874"/>
</svg>
