<svg width="947" height="1080" viewBox="0 0 947 1080" fill="none" xmlns="http://www.w3.org/2000/svg">
<path d="M713.183 932C713.183 932 695.183 963 667.183 944C639.183 925 662.183 845 711.183 869C711.183 869 682.183 824 701.183 774C720.183 724 738.183 740 738.183 740C738.183 740 715.183 715 750.183 639C785.183 563 814.183 532 849.183 544C884.183 556 899.183 680 858.183 743C858.183 743 873.183 724 879.183 743C885.183 762 905.183 834 816.183 888C727.183 942 713.183 932 713.183 932Z" fill="#F3E7D9"/>
<path d="M508.183 996C520.673 992.39 495.183 874 428.183 870C361.183 866 356.183 898 364.183 919C364.183 919 272.183 809 216.183 793C160.183 777 185.183 807 185.183 807C185.183 807 117.183 790 103.183 812C89.1829 834 137.183 907 226.183 942C315.183 977 463.183 1009 508.183 996Z" fill="#F3E7D9"/>
<path d="M625.183 762C625.183 762 598.183 669 609.183 634C609.183 634 582.183 634 604.183 577C626.183 520 636.183 513 651.183 521C666.183 529 673.183 567 652.183 604C652.183 604 658.183 581 680.183 588C702.183 595 656.183 736 641.183 758C626.183 780 625.183 762 625.183 762Z" fill="#F3E7D9"/>
<path d="M508.183 670C508.183 670 531.803 668.11 537.183 656L539.183 655C539.183 655 544.183 663 531.183 670C518.183 677 504.183 682 508.183 670Z" fill="#F3E7D9"/>
<path d="M534.183 644C534.183 644 545.183 656 529.183 665C513.183 674 489.183 680 481.183 660C473.183 640 495.183 623 513.183 627C531.183 631 534.183 644 534.183 644Z" fill="#992C29"/>
<path d="M380.183 718C379.183 721 365.183 738 379.183 749C393.183 760 446.273 707.21 421.183 698.6C396.093 689.99 381.183 715 380.183 718Z" fill="#992C29"/>
<path d="M422.183 713C422.183 713 422.183 728 405.183 738C388.183 748 383.183 748 378.183 746C373.183 744 374.183 749 376.183 751C378.183 753 382.183 756 396.183 750C410.183 744 425.183 730 427.183 722C429.183 714 428.183 708 422.183 713Z" fill="#F3E7D9"/>
<path d="M593.952 845.63C593.521 846.361 593.313 847.202 593.352 848.05C593.502 850.79 595.132 855.48 599.352 859.58C603.902 863.97 609.452 872.87 610.742 874.99C610.949 875.318 611.194 875.62 611.472 875.89C612.722 877.06 615.762 884.4 622.932 883.08C634.142 881 631.532 870.95 625.482 862.08C619.432 853.21 614.912 841.88 606.242 839.68C599.332 837.89 595.292 843.38 593.952 845.63Z" fill="#C94039"/>
<path d="M594.183 842C593.753 842.73 594.313 846.2 594.353 847C594.503 849.74 596.133 854.43 600.353 858.53C604.987 863.023 608.849 868.25 611.783 874C614.183 879 620.973 883.09 627.183 882C633.393 880.91 632.573 870 626.523 861C620.473 852 615.953 840.8 607.283 838.6C600.333 836.89 595.513 839.75 594.183 842Z" fill="#121721"/>
<path d="M560.183 753C560.183 753 572.183 780 577.183 792C582.183 804 587.183 825 588.183 833C589.183 841 589.183 844 594.183 844C599.183 844 611.183 851 616.183 845C621.183 839 614.183 819 614.183 819C614.183 819 616.183 746 599.183 729C577.593 707.41 560.183 741 560.183 753Z" fill="#273252"/>
<path d="M596.182 777L600.182 822C598.728 823.917 597.393 825.921 596.182 828C595.182 830 602.182 833 602.182 833C602.182 833 589.182 844 594.182 844C599.182 844 611.182 851 616.182 845C621.182 839 614.182 819 614.182 819C614.182 819 616.182 746 599.182 729C577.592 707.41 596.182 765 596.182 777Z" fill="#1D2538"/>
<path d="M546.823 896.5C546.823 896.5 541.723 905.02 547.683 916.09C553.643 927.16 556.193 943.34 564.683 951.01C573.173 958.68 582.563 960.38 590.233 954.42C597.903 948.46 591.083 928.01 585.973 919.5C580.863 910.99 579.293 902.02 574.973 894.15C570.653 886.28 557.043 884.58 546.823 896.5Z" fill="#121721"/>
<path d="M497.182 658C502.182 658 559.182 696 575.182 709C591.182 722 603.182 728 603.182 738C603.182 748 599.182 755 592.182 759C585.182 763 579.182 765 561.182 755C543.182 745 514.182 727 491.182 717C468.182 707 467.182 689 476.182 673C485.182 657 497.182 658 497.182 658Z" fill="#273252"/>
<path d="M575.183 709C591.183 722 603.183 728 603.183 738C603.183 748 600.183 756 593.183 760L586.183 749L591.183 739L548.183 690C548.183 690 559.183 696 575.183 709Z" fill="#273252"/>
<path d="M478.182 798C478.932 801.93 481.182 813 488.182 819C495.182 825 505.182 841 512.182 858C516.905 869.024 522.949 879.434 530.182 889C530.182 889 533.182 902 541.182 906C549.182 910 566.182 904 566.182 904C566.182 904 575.182 901 575.182 894C575.182 887 566.182 869 566.182 869C566.182 869 523.182 766 517.182 764C511.182 762 474.182 777 478.182 798Z" fill="#273252"/>
<path d="M495.183 816C495.933 819.93 524.183 877 531.183 883C538.183 889 540.183 892 545.183 892C550.183 892 554.183 892 547.183 894C540.183 896 533.183 902 541.183 906C549.183 910 566.183 904 566.183 904C566.183 904 575.183 901 575.183 894C575.183 887 566.183 869 566.183 869C566.183 869 523.183 766 517.183 764C511.183 762 491.183 795 495.183 816Z" fill="#1D2538"/>
<path d="M407.183 691C407.183 691 409.183 708 429.183 736C429.943 737.06 438.683 745.12 439.413 746.19C458.023 773.39 476.183 807 487.183 813C506.033 823.28 527.183 821 529.183 799C531.183 777 514.183 755 496.183 720C478.183 685 461.183 653 433.183 666C405.183 679 407.183 691 407.183 691Z" fill="#273252"/>
<path d="M504.183 767L476.183 772L487.183 813C487.183 813 525.183 835 529.183 799C531.623 777 514.183 755 496.183 720C478.183 685 504.183 767 504.183 767Z" fill="#1D2538"/>
<path d="M415.953 711C418.183 709 448.183 713 454.183 712C460.183 711 485.183 696 485.183 696L493.183 678C493.183 678 495.183 687 495.183 686C495.183 685 503.183 661 503.183 661C503.183 661 496.183 656 491.183 656C485.183 656 415.953 711 415.953 711Z" fill="#1D2538"/>
<path d="M365.183 581C361.483 577.3 302.033 488.69 293.263 475.61C292.966 475.164 292.516 474.843 291.998 474.706C291.48 474.57 290.931 474.628 290.453 474.87C290.17 475.01 289.922 475.21 289.723 475.455C289.525 475.7 289.381 475.985 289.303 476.29C289.224 476.596 289.212 476.914 289.267 477.225C289.322 477.535 289.444 477.83 289.623 478.09L363.183 585L365.183 581Z" fill="#D77D5B"/>
<path d="M295.642 478.84C295.642 478.84 251.182 472 237.182 462C223.182 452 219.182 455 226.182 475C233.182 495 245.182 526 245.182 526C245.182 526 290.182 529 307.182 529C324.182 529 328.392 526.93 328.392 526.93L295.642 478.84Z" fill="#FFACFF"/>
<path d="M258.223 497.4L287.023 501.43L289.033 504.18L259.363 500.46L258.223 497.4Z" fill="#3E4C6F"/>
<path d="M254.803 490.2L295.013 495.89L297.013 498.64L255.943 493.26L254.803 490.2Z" fill="#3E4C6F"/>
<path d="M251.383 484L291.593 489.7L293.593 492.44L252.523 487.07L251.383 484Z" fill="#3E4C6F"/>
<path d="M303.733 509.13C301.663 508.54 296.383 507.3 294.733 510.98C292.733 515.56 298.643 518.76 300.643 518.76L298.643 520.76C298.643 520.76 302.473 520.57 304.643 518.76C307.693 516.25 308.343 510.45 303.733 509.13Z" fill="#3E4C6F"/>
<path d="M229.183 497C230.183 498 245.183 526 245.183 526C245.183 526 265.183 516 263.183 508C261.183 500 229.183 497 229.183 497Z" fill="#665070"/>
<path d="M263.183 508C263.183 508 252.693 502.47 236.433 500.74C220.173 499.01 187.183 504 180.183 507C180.183 507 151.183 436 144.183 430C144.183 430 170.183 423 196.183 428C222.183 433 232.183 448 236.183 457C240.183 466 264.183 499 263.183 508Z" fill="#BB83C3"/>
<path d="M207.723 457.56C207.653 460.16 204.653 461.24 201.063 459.96C197.473 458.68 194.693 455.61 194.793 453.06C194.893 450.51 197.793 449.45 201.363 450.66C204.933 451.87 207.793 455 207.723 457.56Z" fill="#F3E7D9"/>
<path d="M194.542 481.07L197.662 463.5L213.142 475.15L217.082 447.81L240.832 482.76L194.542 481.07Z" fill="#F3E7D9"/>
<path d="M429.633 534.1C431.843 512.04 384.403 513.91 360.743 520.3C346.103 524.3 332.013 537.17 329.743 544.88C328.963 547.52 326.163 562.3 327.153 569.56C328.223 577.49 343.153 608.94 355.773 603.13C373.083 595.18 427.413 556.17 429.633 534.1Z" fill="#C94039"/>
<path d="M415.012 544.64C415.312 529.25 390.742 516.7 369.062 520.15C343.812 524.15 330.722 540.76 332.422 549.15C334.122 557.54 354.812 563.45 372.422 563.44C390.032 563.43 414.872 551.5 415.012 544.64Z" fill="#F3E7D9"/>
<path d="M367.093 557.08C345.733 551.39 337.803 555.38 337.663 544.18C337.473 529.18 376.603 524.86 385.663 523.63C394.723 522.4 419.983 540.19 417.273 558C414.563 575.81 388.453 562.77 367.093 557.08Z" fill="#273252"/>
<path d="M464.983 384.61C464.983 384.61 450.933 360 450.933 359C450.933 358 453.183 344.75 453.183 338C453.183 334 459.183 321 465.183 322C471.183 323 469.183 324 465.183 342C464.003 347.33 472.323 332.21 476.183 338C480.043 343.79 486.183 341 490.183 344C494.183 347 496.043 364.14 492.183 368C488.323 371.86 485.663 383.14 480.833 386C476.003 388.86 464.983 384.61 464.983 384.61Z" fill="#F5894E"/>
<path d="M463.183 347C466.872 346.321 470.486 345.282 473.973 343.9C478.183 342 484.183 348 477.183 353C470.183 358 466.183 358 466.183 358C466.183 358 451.183 362 463.183 347Z" fill="#F5894E"/>
<path d="M586.183 225C586.183 225 571.083 273 582.633 307C594.183 341 659.183 285 630.183 252C601.183 219 586.183 225 586.183 225Z" fill="#665070"/>
<path d="M604.183 193C606.183 195 629.183 230 673.183 223C717.183 216 737.183 197 763.183 198C763.183 198 747.183 245 763.183 294C763.183 294 737.183 294 688.183 307C639.183 320 613.183 329 590.183 316C567.183 303 598.183 297 613.183 286C628.183 275 628.713 265.69 617.443 246.85C606.173 228.01 604.183 193 604.183 193Z" fill="#856792"/>
<path d="M634.453 297.35C648.216 297.35 659.373 286.193 659.373 272.43C659.373 258.667 648.216 247.51 634.453 247.51C620.69 247.51 609.533 258.667 609.533 272.43C609.533 286.193 620.69 297.35 634.453 297.35Z" fill="#F7BC4B"/>
<path d="M645.123 268.55C646.879 268.55 648.303 267.126 648.303 265.37C648.303 263.614 646.879 262.19 645.123 262.19C643.367 262.19 641.943 263.614 641.943 265.37C641.943 267.126 643.367 268.55 645.123 268.55Z" fill="#121721"/>
<path d="M623.733 268.55C625.489 268.55 626.913 267.126 626.913 265.37C626.913 263.614 625.489 262.19 623.733 262.19C621.976 262.19 620.553 263.614 620.553 265.37C620.553 267.126 621.976 268.55 623.733 268.55Z" fill="#121721"/>
<path d="M634.993 285.45C638.505 285.45 641.353 282.365 641.353 278.56C641.353 274.755 638.505 271.67 634.993 271.67C631.48 271.67 628.633 274.755 628.633 278.56C628.633 282.365 631.48 285.45 634.993 285.45Z" fill="#121721"/>
<path d="M626.743 257.7C625.493 256.28 621.823 256.08 619.963 258.94" stroke="#121721" stroke-linecap="round" stroke-linejoin="round"/>
<path d="M641.883 257.7C643.123 256.28 646.803 256.08 648.653 258.94" stroke="#121721" stroke-linecap="round" stroke-linejoin="round"/>
<path d="M532.183 451L322.663 127.37C322.239 126.718 321.966 125.98 321.861 125.209C321.757 124.439 321.825 123.654 322.06 122.913C322.296 122.172 322.692 121.492 323.222 120.923C323.751 120.353 324.401 119.908 325.123 119.62C326.263 119.163 327.528 119.12 328.697 119.498C329.866 119.876 330.866 120.652 331.523 121.69L538.183 447L532.183 451Z" fill="#7A462F"/>
<path d="M331.183 140L340.183 135C341.694 134.722 343.22 134.525 344.753 134.41C354.403 134.02 365.683 134.5 372.183 138C385.183 145 379.183 155 416.183 165C453.183 175 463.183 175 476.183 168C489.183 161 501.183 137 553.183 151C605.183 165 614.183 181 614.183 181C614.183 181 607.183 232 623.183 258C623.183 258 614.183 240 576.183 242C538.183 244 523.183 253 491.183 263C469.643 269.73 441.133 270.47 426.183 270C418.923 269.77 416.183 275 416.183 275L331.183 140Z" fill="#BB83C3"/>
<path d="M581.843 242.1C581.843 242.1 613.843 241.73 623.183 258C632.523 274.27 614.023 286.41 607.183 289.84C600.343 293.27 583.973 298.84 581.863 308.03C581.863 308.03 573.953 296.69 581.863 242.1" fill="#665070"/>
<path d="M722.517 270.184C728.321 257.443 723.728 242.879 712.259 237.655C700.79 232.431 686.787 238.524 680.984 251.265C675.18 264.006 679.773 278.569 691.242 283.794C702.711 289.018 716.714 282.925 722.517 270.184Z" fill="#C94039"/>
<path d="M691.761 267.073C693.376 266.706 694.452 265.382 694.164 264.116C693.876 262.851 692.333 262.123 690.718 262.491C689.102 262.858 688.026 264.182 688.314 265.448C688.602 266.713 690.145 267.441 691.761 267.073Z" fill="#121721"/>
<path d="M696.333 264.04L686.753 260.62" stroke="#121721" stroke-width="2" stroke-linecap="round" stroke-linejoin="round"/>
<path d="M712.243 265.34C713.859 264.973 714.935 263.649 714.647 262.383C714.359 261.118 712.816 260.39 711.201 260.757C709.585 261.125 708.509 262.449 708.797 263.715C709.085 264.98 710.628 265.708 712.243 265.34Z" fill="#121721"/>
<path d="M706.643 263.16L716.223 258.12" stroke="#121721" stroke-width="2" stroke-linecap="round" stroke-linejoin="round"/>
<path d="M709.423 273.45C709.783 271.3 706.623 270.63 702.493 271.1C698.363 271.57 695.803 273.19 695.563 274.98C695.323 276.77 709.063 275.59 709.423 273.45Z" fill="#121721"/>
<path d="M500.453 213.82C505.613 228.34 501.823 242.11 489.813 245.15C474.483 249 452.013 234.64 443.943 212C435.873 189.36 448.523 176.1 467.003 181.09C481.473 185 495.283 199.31 500.453 213.82Z" fill="#F7BC4B"/>
<path d="M476.603 223.24C480.723 217.55 487.823 222.69 487.823 222.69" stroke="#121721" stroke-width="3" stroke-linecap="round" stroke-linejoin="round"/>
<path d="M489.373 206.93C490.083 208.93 489.423 210.5 487.843 210.41C486.263 210.32 484.263 208.51 483.503 206.41C482.743 204.31 483.503 202.75 485.183 202.95C486.863 203.15 488.653 204.92 489.373 206.93Z" fill="#121721"/>
<path d="M466.863 204.87C467.723 207.29 466.613 209.14 464.323 209.01C462.033 208.88 459.223 206.66 458.323 204.08C457.423 201.5 458.693 199.67 461.123 199.97C462.414 200.239 463.617 200.828 464.62 201.685C465.624 202.541 466.395 203.637 466.863 204.87Z" fill="#121721"/>
<path d="M552.503 224.16C567.906 224.16 580.393 211.673 580.393 196.27C580.393 180.867 567.906 168.38 552.503 168.38C537.1 168.38 524.613 180.867 524.613 196.27C524.613 211.673 537.1 224.16 552.503 224.16Z" fill="#F7BC4B"/>
<g style="mix-blend-mode:multiply">
<path d="M537.343 181.18L545.783 185.78L533.123 188.84" stroke="#121721" stroke-width="2" stroke-linecap="round" stroke-linejoin="round"/>
</g>
<g style="mix-blend-mode:multiply">
<path d="M567.013 181.18L558.573 185.78L571.233 188.84" stroke="#121721" stroke-width="2" stroke-linecap="round" stroke-linejoin="round"/>
</g>
<path d="M567.183 192.29C557.295 189.994 546.994 190.155 537.183 192.76C536.218 193.011 535.381 193.614 534.837 194.45C534.293 195.286 534.081 196.296 534.243 197.28C535.243 204.37 542.643 214.08 552.813 214.08C562.983 214.08 569.683 204.83 570.393 196.64C570.499 195.645 570.228 194.646 569.634 193.841C569.04 193.035 568.165 192.482 567.183 192.29Z" fill="#121721"/>
<path d="M539.183 207.73C540.706 205.447 542.799 203.601 545.254 202.373C547.709 201.146 550.442 200.579 553.183 200.73C562.813 201.17 566.453 206.73 566.453 206.73C566.453 206.73 563.393 213.42 554.183 214C544.973 214.58 539.183 207.73 539.183 207.73Z" fill="#EE5D4F"/>
<path opacity="0.46" d="M331.183 140L340.183 135C341.694 134.722 343.22 134.525 344.753 134.41C354.403 134.02 365.683 134.5 372.183 138C385.183 145 379.183 155 416.183 165C453.183 175 463.183 175 476.183 168C489.183 161 414.893 269 414.893 269L331.183 140Z" fill="#FFACFF"/>
<path d="M468.263 337.81C468.263 337.81 464.123 351.11 469.333 353.62C474.543 356.13 475.333 347.28 475.333 347.28C475.333 347.28 474.113 353.17 475.493 357.1C476.873 361.03 479.283 360.05 481.203 356.1C483.123 352.15 481.403 355.1 481.403 355.1C481.403 355.1 479.773 362.96 484.173 362.96C488.573 362.96 492.833 347.1 490.303 343.73C487.773 340.36 487.933 340.99 484.303 341.66C484.303 341.66 481.213 337.25 476.773 338.81C476.773 338.81 475.443 334.2 468.273 337.81" fill="#F5894E"/>
<path d="M466.183 369C466.183 369 471.183 357.9 468.703 354.45C468.703 354.45 475.183 361 466.183 369Z" fill="#CC6D3D"/>
<path d="M463.183 347C466.872 346.321 470.486 345.282 473.973 343.9C478.183 342 484.183 348 477.183 353C470.183 358 466.183 358 466.183 358C466.183 358 451.183 362 463.183 347Z" fill="#CC6D3D"/>
<path d="M461.183 347C464.872 346.321 468.486 345.282 471.973 343.9C476.183 342 482.183 348 475.183 353C471.658 355.418 468.316 358.092 465.183 361C465.183 361 449.183 362 461.183 347Z" fill="#F5894E"/>
<path d="M460.183 381.44C461.903 386.63 464.603 381.8 473.453 382.52C480.813 383.11 486.453 386.25 487.743 381.9C489.253 376.63 483.683 377.11 472.113 377.06C464.683 377 458.423 376.24 460.183 381.44Z" fill="#F3E7D9"/>
<path d="M477.123 487.33C471.244 485.892 465.985 482.6 462.123 477.94C457.123 471.78 458.363 465.63 459.493 456.03C461.733 436.94 459.783 445.34 458.093 432.12C455.943 415.23 452.363 384.12 466.403 381.91C483.643 379.16 487.663 380.76 489.263 386.31C490.863 391.86 488.173 389.8 489.263 393.79C490.353 397.78 493.183 435.88 494.703 444.28C496.223 452.68 495.423 457.39 495.423 457.39C495.423 457.39 496.353 467.1 496.313 472.27C496.273 477.44 495.323 489.5 477.123 487.33Z" fill="#C94039"/>
<path d="M477.063 487.81C477.063 487.81 486.433 470.47 487.203 463.59C488.283 453.89 476.993 391.51 476.993 391.51C476.993 391.51 483.093 372.98 489.293 386.31C491.723 391.54 490.713 415.4 491.803 419.39C492.893 423.38 493.213 435.88 494.733 444.28C496.253 452.68 495.453 457.39 495.453 457.39C495.453 457.39 496.383 467.1 496.343 472.27C496.303 477.44 495.253 490 477.063 487.81Z" fill="#992C29"/>
<path d="M486.703 454.35L479.993 433.44L471.333 419.82C471.333 419.82 486.763 429.43 488.493 438.52C489.551 443.855 488.925 449.386 486.703 454.35Z" fill="#992C29"/>
<path d="M463.363 571.9C457.113 572.44 437.453 541.34 437.453 529.41C437.453 524.23 448.853 509.73 448.853 509.73L449.853 504.55C450.673 500.63 454.183 476 458.183 472C462.183 468 468.183 475 478.183 475C488.183 475 496.843 460.42 496.523 475.53C496.203 490.64 484.703 514.13 483.463 525.76C482.223 537.39 469.763 571.34 463.363 571.9Z" fill="#273252"/>
<path d="M463.363 571.9C457.113 572.44 437.453 541.34 437.453 529.41C437.453 524.23 451.033 531.41 454.453 531.68C457.873 531.95 470.023 522.19 470.023 522.19L466.593 516.65C466.593 516.65 468.183 475 478.183 475C488.183 475 496.843 460.42 496.523 475.53C496.203 490.64 484.703 514.13 483.463 525.76C482.223 537.39 469.763 571.34 463.363 571.9Z" fill="#1D2538"/>
<path d="M507.183 648C505.183 651 505.183 653 509.183 654C513.183 655 512.183 650 521.183 649C526.793 648.38 533.933 652.84 536.183 657C537.543 659.52 533.923 663.13 536.183 662C542.183 659 543.183 648 529.183 644C525.241 642.8 521.058 642.629 517.032 643.504C513.005 644.379 509.27 646.272 506.183 649" fill="#F3E7D9"/>
<path d="M373.353 552.05C373.353 552.05 389.523 538.33 421.183 532.05C431.183 530.05 447.633 541.68 459.183 568.05C470.733 594.42 499.183 651.05 499.183 651.05C499.183 651.05 477.493 680.73 452.183 698.05C433.413 710.89 410.843 713.87 403.183 709.05C385.183 697.68 347.463 568.93 373.353 552.05Z" fill="#F7BC4B"/>
<path d="M418.113 541.17C421.053 548.02 414.283 560.92 404.993 564.91C395.703 568.9 381.203 562.68 378.253 555.83C375.303 548.98 385.913 545 395.183 541C404.453 537 415.183 534.32 418.113 541.17Z" fill="#F5894E"/>
<path d="M457.183 666.15L444.733 605.87L418.453 537.72C430.673 535.72 454.883 549.99 466.453 576.36C478.023 602.73 499.773 651 499.773 651L492.773 666L448.183 708L405.183 711L418.853 708.12C418.853 708.12 444.793 701.12 448.653 696.25C456.523 686.25 469.053 654.11 469.053 654.11L457.183 666.15Z" fill="#CE9436"/>
<path d="M419.543 537.48C421.383 530.83 429.183 527 435.183 527C441.183 527 432.183 527 452.183 548C457.413 553.49 464.263 558.29 467.693 564C493.243 606.79 522.853 617 529.183 624C536.363 632 544.603 649.78 539.183 662C536.703 667.58 547.183 647 525.183 643C516.333 641.39 506.183 649 506.183 649C496.183 645 471.983 622.35 463.023 601.7C458.413 591.08 447.183 569.39 437.183 556C427.703 543.36 419.183 538.72 419.543 537.48Z" fill="#C94039"/>
<path d="M419.543 537.48C421.383 530.83 429.183 527 435.183 527C441.183 527 432.183 527 452.183 548C457.413 553.49 464.263 558.29 467.693 564C493.243 606.79 522.853 617 529.183 624C536.363 632 544.603 649.78 539.183 662C536.703 667.58 547.183 647 525.183 643L515.383 623.46C505.383 619.46 482.153 600.52 482.153 600.52C482.153 600.52 447.183 569.39 437.183 556C427.703 543.36 419.183 538.72 419.543 537.48Z" fill="#992C29"/>
<path d="M406.683 535.5C423.013 540.95 430.843 591.08 423.683 593.41C416.523 595.74 371.563 554.69 380.683 544.5" stroke="#992C29" stroke-miterlimit="10"/>
<path d="M426.628 602.556C428.038 602.124 428.51 599.586 427.682 596.888C426.855 594.19 425.041 592.353 423.631 592.785C422.221 593.218 421.749 595.756 422.577 598.454C423.404 601.152 425.218 602.989 426.628 602.556Z" fill="#29ABE2"/>
<path d="M414.623 531.29C420.563 528.79 423.273 529.77 427.483 530.96C431.693 532.15 435.023 536.23 442.223 547.06C449.423 557.89 460.633 590.49 457.223 592C453.813 593.51 442.513 565.14 435.223 556C427.933 546.86 408.683 533.79 414.623 531.29Z" fill="#F3E7D9"/>
<path d="M400.183 722C407.403 719.59 411.183 712 404.183 713C397.183 714 395.183 719 388.183 724C381.183 729 372.513 737.66 377.183 747C379.183 751 380.183 751 383.183 745C386.183 739 388.183 726 400.183 722Z" fill="#F3E7D9"/>
<path d="M373.073 556.11C380.253 558.72 396.073 589.66 401.743 607.11C407.413 624.56 403.993 652.29 407.473 663.33C410.953 674.37 412.363 710.07 410.123 713.16C409.233 714.39 392.543 719.3 386.183 725.97C380.352 732.29 376.828 740.395 376.183 748.97C376.183 748.97 341.393 719.76 359.183 661.97C358.183 638.97 334.533 589.73 336.183 581.97C337.833 574.21 365.893 553.49 373.073 556.11Z" fill="#992C29"/>
<path d="M381.623 568.54C388.813 571.15 396.083 589.66 401.743 607.14C407.403 624.62 403.993 652.32 407.473 663.36C410.953 674.4 412.363 710.1 410.123 713.19C408.483 715.46 403.183 673 403.183 673C403.183 673 392.823 670.81 391.743 662.64C391.223 658.64 393.473 607.32 393.473 607.32C393.473 607.32 374.443 565.92 381.623 568.54Z" fill="#C94039"/>
<path d="M405.483 618.33C407.713 613.94 404.723 606.82 399.973 595.96C395.223 585.1 388.183 567.27 379.563 557.72C370.513 547.72 350.343 558.64 359.463 562.72C368.883 566.93 379.353 574.63 389.173 591.04C400.093 609.29 403.263 622.71 405.483 618.33Z" fill="#F3E7D9"/>
<path d="M387.953 686.55L391.853 687.55C391.853 687.55 389.163 702.75 377.013 706.42L375.803 703.65C375.803 703.65 384.773 700.22 387.953 686.55Z" fill="#F3E7D9"/>
<path d="M395.733 612.36C395.733 612.36 404.913 637.66 388.953 647.31C392.682 635.993 394.96 624.25 395.733 612.36Z" fill="#C94039"/>
<path d="M496.183 626L497.183 629.79C497.183 629.79 502.183 633 519.183 631L518.183 627C518.183 627 505.183 632 496.183 626Z" fill="#F3E7D9"/>
<path d="M601.983 438.13C620.772 438.13 636.003 422.899 636.003 404.11C636.003 385.321 620.772 370.09 601.983 370.09C583.194 370.09 567.963 385.321 567.963 404.11C567.963 422.899 583.194 438.13 601.983 438.13Z" fill="#29ABE2"/>
<path d="M579.503 406.64L598.593 387.61L625.603 395.91" stroke="#F3E7D9" stroke-width="5" stroke-linecap="round" stroke-linejoin="round"/>
<path d="M617.393 396.66C617.334 395.621 616.953 394.626 616.302 393.814C615.652 393.002 614.764 392.413 613.763 392.13L601.943 388.58C600.952 388.288 599.901 388.272 598.902 388.532C597.903 388.793 596.994 389.321 596.273 390.06L588.273 398.27C587.536 399.011 587.051 399.964 586.884 400.996C586.717 402.027 586.878 403.084 587.343 404.02L596.183 421.13C596.759 422.179 597.67 423.004 598.77 423.476C599.87 423.947 601.096 424.036 602.253 423.73L614.013 420.84C615.21 420.571 616.278 419.899 617.037 418.935C617.796 417.972 618.201 416.777 618.183 415.55L617.393 396.66ZM604.743 410.21C603.669 410.408 602.56 410.286 601.554 409.861C600.549 409.436 599.689 408.725 599.083 407.817C598.476 406.909 598.149 405.843 598.141 404.751C598.134 403.659 598.446 402.588 599.04 401.672C599.634 400.756 600.484 400.033 601.484 399.594C602.483 399.155 603.59 399.018 604.667 399.201C605.743 399.384 606.743 399.878 607.542 400.622C608.341 401.367 608.904 402.329 609.163 403.39C609.48 404.88 609.193 406.436 608.364 407.715C607.535 408.993 606.233 409.891 604.743 410.21Z" fill="#F3E7D9"/>
<path opacity="0.5" d="M631.183 394.29C631.183 406.75 575.313 406.75 575.313 394.29C575.313 381.83 587.813 371.73 603.243 371.73C618.673 371.73 631.183 381.83 631.183 394.29Z" fill="#FFFCF3"/>
<path d="M556.993 478.96L570.183 505.07" stroke="#F7BC4B" stroke-width="3" stroke-linecap="round" stroke-linejoin="round"/>
<path d="M547.153 508.34L571.813 490.21" stroke="#F7BC4B" stroke-width="3" stroke-linecap="round" stroke-linejoin="round"/>
<path d="M542.963 500.18L567.623 482.06" stroke="#F7BC4B" stroke-width="3" stroke-linecap="round" stroke-linejoin="round"/>
<path d="M546.533 486.85L559.723 512.96" stroke="#F7BC4B" stroke-width="3" stroke-linecap="round" stroke-linejoin="round"/>
<path d="M376.393 296.96L309.933 334.41L362.153 357.62L376.393 296.96Z" fill="#33A86D"/>
<path opacity="0.5" d="M376.392 296.96L350.812 312.52L362.152 357.62L376.392 296.96Z" fill="#FFFCF3"/>
<path d="M376.393 296.96L372.853 300.97L333.403 344.69L336.303 345.75L376.393 296.96Z" fill="#288453"/>
<path d="M278.923 241.9C279.753 243.63 286.103 257.33 282.353 265.72C282.269 265.903 282.246 266.109 282.288 266.307C282.33 266.504 282.435 266.683 282.586 266.816C282.737 266.95 282.928 267.031 283.129 267.048C283.33 267.064 283.531 267.016 283.703 266.91C290.973 262.37 306.563 250.34 306.093 230.81C305.493 205.58 278.663 232.81 278.833 241.51C278.833 241.645 278.864 241.778 278.923 241.9Z" fill="#F7BC4B"/>
<path d="M282.883 196.89H261.463C248.644 196.89 238.253 207.281 238.253 220.1V230.01C238.253 242.828 248.644 253.22 261.463 253.22H282.883C295.701 253.22 306.093 242.828 306.093 230.01V220.1C306.093 207.281 295.701 196.89 282.883 196.89Z" fill="#F7BC4B"/>
<path opacity="0.5" d="M256.833 213.78C255.766 213.134 254.899 212.204 254.329 211.094C253.759 209.984 253.508 208.738 253.604 207.494C253.701 206.25 254.14 205.057 254.875 204.048C255.609 203.039 256.609 202.254 257.763 201.78C267.903 197.72 284.413 201.02 288.303 201.48C299.943 202.88 302.433 216.48 302.133 229.83C302.106 230.977 301.779 232.096 301.183 233.076C300.586 234.057 299.743 234.863 298.737 235.414C297.731 235.965 296.598 236.242 295.451 236.217C294.304 236.191 293.184 235.865 292.203 235.27L256.833 213.78Z" fill="#FFFCF3"/>
<path d="M169.953 377.13C190.746 377.13 207.603 360.273 207.603 339.48C207.603 318.686 190.746 301.83 169.953 301.83C149.159 301.83 132.303 318.686 132.303 339.48C132.303 360.273 149.159 377.13 169.953 377.13Z" fill="#29ABE2"/>
<path d="M161.263 365.24C158.003 367.12 154.603 366.33 152.263 362.31L147.733 353.73C145.413 349.73 145.593 345.66 148.853 343.73C152.113 341.85 155.323 342.29 157.643 346.31L162.173 354.89C164.513 359 164.523 363.36 161.263 365.24Z" fill="#F3E7D9"/>
<path d="M159.113 345.05C157.853 342.94 158.673 340.64 159.203 338.23C159.873 335.18 161.093 328.23 160.603 327.03C159.783 324.97 155.603 317.03 156.503 314.83C157.403 312.63 162.973 312.15 165.333 314.53C168.203 317.43 168.203 318.83 169.243 322.95C170.113 326.44 169.783 327.14 173.243 326.03C177.243 324.74 182.903 324.19 184.643 323.43C185.225 323.188 185.85 323.068 186.481 323.08C187.111 323.091 187.732 323.233 188.305 323.496C188.878 323.759 189.39 324.137 189.81 324.608C190.229 325.078 190.547 325.631 190.743 326.23C190.955 326.713 191.039 327.244 190.986 327.769C190.934 328.295 190.747 328.798 190.443 329.23C191.075 329.588 191.625 330.077 192.056 330.663C192.487 331.248 192.789 331.919 192.943 332.63C193.28 334.21 193.105 335.856 192.443 337.33C192.443 337.33 195.943 338.83 194.743 343.83C194.743 343.83 197.053 348.4 194.043 351.03C191.753 353.03 187.623 354.7 182.643 356.83C174.243 360.43 168.393 360.58 166.743 358.93C165.093 357.28 159.113 345.05 159.113 345.05Z" fill="#F3E7D9"/>
<path opacity="0.5" d="M197.603 334.6C197.603 350.6 139.003 350.6 139.003 334.6C139.003 326.829 142.09 319.376 147.585 313.882C153.08 308.387 160.532 305.3 168.303 305.3C176.074 305.3 183.526 308.387 189.021 313.882C194.516 319.376 197.603 326.829 197.603 334.6Z" fill="#FFFCF3"/>
<path d="M319.983 409.61C320.449 411.211 320.59 412.889 320.4 414.545C320.209 416.202 319.69 417.804 318.873 419.257C318.056 420.711 316.957 421.987 315.641 423.01C314.325 424.034 312.817 424.785 311.208 425.219C309.598 425.654 307.917 425.762 306.265 425.539C304.612 425.316 303.021 424.766 301.584 423.921C300.146 423.075 298.892 421.952 297.895 420.616C296.897 419.28 296.176 417.758 295.773 416.14" stroke="#F7BC4B" stroke-width="3" stroke-miterlimit="10"/>
<path d="M295.753 376.08C295.753 376.08 306.393 369.2 314.583 384.59C317.063 389.25 318.783 392.59 321.963 398.31C323.403 400.88 329.443 406.67 329.443 406.67L305.733 413.07" stroke="#F7BC4B" stroke-width="3" stroke-miterlimit="10"/>
<path d="M300.123 374.9C300.123 374.9 287.463 374.31 288.123 391.73C288.323 397 288.523 400.73 288.643 407.29C288.693 410.24 286.373 418.29 286.373 418.29L310.093 411.9" stroke="#F7BC4B" stroke-width="3" stroke-miterlimit="10"/>
<path d="M172.703 605.79C183.993 622.21 205.353 626.55 221.043 616.99C236.423 607.62 242.603 587.12 234.493 569.67C225.573 550.51 202.823 541.78 184.133 552.17C165.003 562.8 160.243 587.7 172.703 605.79Z" fill="#EE5D4F"/>
<path opacity="0.5" d="M199.693 574.41C199.693 574.41 236.103 586.53 229.023 571.31C221.233 554.59 201.393 547 185.093 556C168.403 565.31 199.693 574.41 199.693 574.41Z" fill="#FFFCF3"/>
<g style="mix-blend-mode:color-dodge">
<path d="M180.123 586.05C180.003 572.15 195.963 576.9 198.003 577.57C198.463 575.47 202.383 559.51 214.003 566.57C231.003 577.02 215.673 602.08 213.853 604.92L213.923 605.05H213.763C213.737 605.099 213.707 605.146 213.673 605.19L213.603 605.06C210.243 605.36 180.313 606.89 180.123 586.05Z" fill="#FFFCF3"/>
</g>
<path d="M394.723 621.78L444.673 601.34C446.844 600.454 449.273 600.44 451.453 601.303C453.634 602.166 455.396 603.838 456.373 605.97L475.893 648.64C476.396 649.736 476.676 650.921 476.715 652.127C476.755 653.332 476.554 654.533 476.124 655.66C475.693 656.787 475.043 657.816 474.21 658.689C473.377 659.561 472.378 660.258 471.273 660.74L417.723 684.12C416.577 684.623 415.34 684.883 414.09 684.885C412.839 684.886 411.601 684.629 410.455 684.13C409.308 683.63 408.277 682.899 407.426 681.981C406.576 681.064 405.924 679.981 405.513 678.8L389.583 633.18C388.818 630.983 388.925 628.576 389.881 626.456C390.837 624.335 392.57 622.661 394.723 621.78Z" fill="#F3E7D9"/>
<path d="M433.493 661.18C443.837 661.18 452.223 652.794 452.223 642.45C452.223 632.105 443.837 623.72 433.493 623.72C423.148 623.72 414.763 632.105 414.763 642.45C414.763 652.794 423.148 661.18 433.493 661.18Z" fill="#29ABE2"/>
<path d="M425.763 634.51L433.933 654.02L442.683 638.22L425.763 634.51Z" fill="#C94039"/>
<g opacity="0.5">
<path opacity="0.5" d="M409.493 618.79L445.493 604.06C447.057 603.422 448.808 603.413 450.379 604.035C451.95 604.658 453.22 605.863 453.923 607.4L467.993 638.14C469.503 641.47 406.263 620.11 409.493 618.79Z" fill="#FFFCF3"/>
</g>
<path d="M373.703 523.21L386.643 557.21C386.643 557.21 391.273 563.21 401.483 559.73C411.693 556.25 411.393 547.45 411.393 547.45L397.273 509.3L373.703 523.21Z" fill="#F5894E"/>
<path d="M373.703 523.21C373.703 523.21 390.603 543.21 396.583 546.21C402.563 549.21 410.183 546 410.183 546L398.523 509L373.703 523.21Z" fill="#CC6D3D"/>
<path d="M354.283 517.77C370.683 534.77 379.883 536.27 379.883 536.27C412.973 527.34 418.103 497.76 408.883 478.27C400.083 457.76 395.933 452.76 372.933 460.87C340.873 472.15 339.673 502.64 354.283 517.77Z" fill="#1D2538"/>
<path d="M354.283 517.77C370.683 534.76 378.183 529 378.183 529C411.283 520.08 418.103 497.76 408.863 478.26C400.063 457.75 397.863 449.12 370.643 457.06C332.813 468.09 339.673 502.64 354.283 517.77Z" fill="#3E4C6F"/>
<path d="M352.233 518.81C366.233 533.3 385.443 511.49 385.443 511.49C389.173 506.65 384.383 488.49 381.053 476.54C378.183 466.24 380.293 454.69 353.953 467.95C330.543 479.74 339.783 505.91 352.233 518.81Z" fill="#1D2538"/>
<path d="M373.693 463.35C373.693 463.35 394.193 465.77 398.283 467.86C402.373 469.95 417.743 503.37 416.433 516.28C415.133 529.02 379.563 540.86 368.723 536.06C359.843 532.14 358.983 525.17 353.593 515.14C347.913 504.57 352.803 494.43 352.003 489.8C350.613 481.88 373.693 463.35 373.693 463.35Z" fill="#CC6D3D"/>
<path d="M345.723 517.09C349.523 522.83 355.813 526.56 358.273 525.28C360.733 524 359.683 518.28 355.873 512.48C352.063 506.68 346.943 503.03 344.483 504.37C342.023 505.71 341.923 511.34 345.723 517.09Z" fill="#CC6D3D"/>
<path d="M397.723 473.89C404.643 475.39 420.223 511.66 412.543 520.46C404.863 529.26 395.643 530.98 386.693 527.59C378.853 524.59 372.743 497.7 378.693 488.9C385.893 478.13 390.793 472.4 397.723 473.89Z" fill="#F5894E"/>
<path d="M348.073 483.39C348.073 483.39 356.023 499.07 355.953 504.65L354.393 513.45L344.053 490.84L348.073 483.39Z" fill="#1D2538"/>
<path d="M395.243 454.76C395.243 454.76 391.393 463.35 371.423 470.05C361.513 473.37 354.243 479.78 349.103 480.38C336.463 481.84 349.153 452.97 369.293 445.46C389.653 437.88 395.243 454.76 395.243 454.76Z" fill="#1D2538"/>
<path d="M369.323 445.17C353.393 451.87 341.233 472.54 351.413 471.36C354.303 471.02 358.863 470.36 364.293 469.22C373.043 464.8 381.093 456.95 381.093 456.95C381.923 461.6 377.373 465.05 372.013 467.45C377.091 466.176 382.098 464.633 387.013 462.83C395.373 459.73 396.413 459.88 396.083 456.88C395.433 450.77 386.533 437.94 369.323 445.17Z" fill="#3E4C6F"/>
<path d="M370.003 491C370.743 493.41 372.203 494.12 373.413 493.75C374.623 493.38 375.113 492.07 374.413 489.65C373.713 487.23 372.093 485.58 370.883 485.95C369.673 486.32 369.263 488.56 370.003 491Z" fill="#34283A"/>
<path d="M390.293 485C391.033 487.41 392.493 488.12 393.703 487.75C394.913 487.38 395.403 486.07 394.703 483.66C394.003 481.25 392.383 479.59 391.183 479.96C389.983 480.33 389.553 482.59 390.293 485Z" fill="#34283A"/>
<path d="M364.183 485.09C364.314 485.041 364.43 484.958 364.518 484.849C364.606 484.739 364.663 484.609 364.683 484.47C364.683 484.29 365.403 480.06 368.903 479.83C369.005 479.823 369.105 479.797 369.198 479.752C369.29 479.707 369.372 479.644 369.44 479.566C369.508 479.489 369.56 479.4 369.593 479.302C369.626 479.205 369.639 479.102 369.633 479C369.62 478.792 369.525 478.598 369.37 478.459C369.214 478.321 369.011 478.249 368.803 478.26C364.993 478.51 363.423 482.26 363.133 484.26C363.104 484.465 363.157 484.674 363.28 484.84C363.404 485.006 363.588 485.118 363.793 485.15C363.926 485.16 364.059 485.14 364.183 485.09Z" fill="#34283A"/>
<path d="M397.183 474.68C397.255 474.655 397.323 474.618 397.383 474.57C397.547 474.445 397.655 474.26 397.683 474.056C397.711 473.852 397.657 473.645 397.533 473.48C395.363 470.58 391.533 471.29 389.873 472.07C389.694 472.157 389.555 472.309 389.484 472.495C389.414 472.68 389.417 472.886 389.493 473.07C389.58 473.249 389.731 473.389 389.916 473.461C390.102 473.533 390.308 473.533 390.493 473.46C390.653 473.38 394.303 471.78 396.253 474.38C396.351 474.528 396.496 474.639 396.665 474.694C396.834 474.748 397.017 474.743 397.183 474.68Z" fill="#34283A"/>
<path d="M285.813 650.53C285.813 650.53 322.423 594.86 329.293 585.97C336.293 576.9 345.473 568.9 356.923 574.23C368.373 579.56 377.993 595.9 368.653 608.23C359.313 620.56 338.403 651.85 331.303 657.69C324.203 663.53 311.533 676 311.373 670.37C311.213 664.74 285.813 650.53 285.813 650.53Z" fill="#1D2538"/>
<path d="M285.813 650.53C284.123 648.32 296.303 634.35 308.183 618C317.393 605.32 326.293 589.85 329.293 586C336.293 576.93 352.863 566.54 352.183 579.14C351.113 598.81 316.183 608.14 322.653 637.03C327.243 657.52 288.823 654.45 285.813 650.53Z" fill="#273252"/>
<path d="M341.753 598.53C341.753 598.53 326.563 603.8 318.913 618.53C311.263 633.26 341.753 598.53 341.753 598.53Z" fill="#273252"/>
<path d="M370.183 652C370.183 652 356.183 650 334.183 647C312.183 644 303.183 629 292.183 638C281.183 647 278.183 667 287.183 675C296.183 683 330.183 686 347.183 689C364.183 692 370.183 700 374.183 687C378.183 674 376.183 657 370.183 652Z" fill="#C94039"/>
<path d="M370.183 652C370.183 652 356.183 650 334.183 647C312.183 644 358.723 663.81 358.723 663.81C358.723 663.81 370.183 700 374.183 687C378.183 674 376.183 657 370.183 652Z" fill="#992C29"/>
<path d="M377.503 657.24C377.503 657.24 369.713 654.87 367.123 665.12C364.533 675.37 367.603 687.34 372.983 688.85C378.363 690.36 377.503 684.05 377.503 684.05C377.503 684.05 374.043 682.47 374.043 675.37C374.043 668.27 380.103 661.18 380.103 661.18L377.503 657.24Z" fill="#F3E7D9"/>
<path d="M373.363 679.44C370.363 674.19 371.793 669.21 373.273 662.52C375.123 654.19 378.963 645.99 381.183 641C385.183 632 392.743 632.56 397.293 631.37C404.913 629.37 407.873 629.79 407.873 629.79C407.873 629.79 413.813 631.97 412.723 633.95C411.633 635.93 402.863 635.65 403.033 635.95C403.203 636.25 404.803 635.57 406.693 636.65C407.345 637.09 407.877 637.687 408.238 638.386C408.6 639.085 408.78 639.863 408.763 640.65C408.829 641.475 408.625 642.3 408.183 643C408.759 642.879 409.36 642.974 409.871 643.267C410.382 643.56 410.767 644.031 410.953 644.59C411.431 645.924 411.698 647.324 411.743 648.74C411.54 650.012 411.066 651.226 410.353 652.3C410.353 652.3 411.743 651.3 412.733 653.88C413.723 656.46 412.283 659.75 412.193 660.34C411.193 667.34 394.193 670.96 394.193 670.96C393.64 673.198 392.629 675.297 391.225 677.124C389.821 678.952 388.053 680.469 386.033 681.58C379.033 685.58 378.643 685.36 377.193 683.96C375.831 682.527 374.553 681.018 373.363 679.44Z" fill="#F5894E"/>
</svg>
