<svg width="411" height="232" viewBox="0 0 411 232" fill="none" xmlns="http://www.w3.org/2000/svg">
<path d="M329.663 203.458C323.017 193.924 277.732 159.425 206.53 162.271C146.141 164.686 103.904 192.635 97.459 195.778C91.0136 198.921 93.7 201.017 111.962 198.397C130.223 195.776 139.353 196.3 139.353 196.3L138.279 198.919C138.279 198.919 123.733 211.189 122.661 215.38C121.586 219.571 127.494 220.095 133.94 217.477C140.385 214.858 187.693 205.73 193.601 205.206C199.509 204.682 209.923 208.033 214.219 208.555C218.516 209.079 246.875 217.949 252.836 218.467C258.798 218.987 255.81 209.326 248.264 195.669C244.92 189.615 275.833 205 282.816 206.573C289.798 208.145 279.523 198.923 278.449 197.353C277.374 195.782 318.209 206.252 326.803 210.968C335.396 215.687 336.31 212.991 329.663 203.458Z" fill="#F4E8D8"/>
<path d="M169.762 157.771C169.762 157.771 117.569 167.384 96.4563 136.388C75.3433 105.392 94.7395 60.6378 134.619 52.0066C134.619 52.0066 92.7423 69.4947 107.6 112.651C122.459 155.807 169.762 157.771 169.762 157.771Z" fill="#F4E8D8"/>
<path d="M292.271 142.242C303.621 131.228 305.173 121.845 311.571 110.872C317.969 99.8997 324.759 93.8892 324.759 93.8892C324.759 93.8892 320.619 93.8827 310.413 103.109C301.328 111.321 292.271 130.345 292.271 130.345C294.318 120.872 293.718 108.922 293.718 108.922C281.819 135.03 240.31 153.505 228.579 147.485C228.581 147.485 259.52 174.024 292.271 142.242Z" fill="#F4E8D8"/>
<path d="M266.722 98.9204C268.676 98.9204 303.478 82.762 305.037 67.1407C306.21 55.371 303.864 37.7153 275.323 28.691C242.944 18.4529 229.58 23.5913 217.07 27.1207C217.07 27.1207 251.866 22.021 273.368 37.3222C309.316 62.9045 266.722 98.9204 266.722 98.9204Z" fill="#F4E8D8"/>
<path d="M250.691 57.7253C250.691 57.7253 227.623 36.1471 204.948 39.6787C189.103 42.1469 147.866 52.3012 141.611 77.3422C137.327 94.4973 156.467 101.275 156.467 101.275C156.467 101.275 144.346 94.6047 150.212 78.1262C156.077 61.6478 192.436 43.9922 215.503 45.5625C238.57 47.1328 250.691 57.7253 250.691 57.7253Z" fill="#F4E8D8"/>
<path d="M134.183 79.3034C134.183 79.3034 115.027 96.5659 126.755 106.767C138.484 116.969 162.724 108.338 162.724 108.338C162.724 108.338 145.522 109.908 137.702 100.1C129.883 90.289 134.183 79.3034 134.183 79.3034Z" fill="#F4E8D8"/>
<path d="M96.4561 136.388C96.4561 136.388 68.307 124.03 74.7588 99.9019C81.2106 75.7739 92.3526 86.955 92.3526 86.955C92.3526 86.955 90.0064 64.5928 102.321 57.5297C114.636 50.4666 119.329 54.9799 119.329 54.9799C119.329 54.9799 125.194 48.703 128.125 49.8802C129.428 50.4043 129.61 51.3903 129.413 52.3269C129.148 53.5814 121.495 57.6521 120.305 58.1183C116.863 59.4695 113.911 60.6488 106.817 67.9267C96.4219 78.5901 92.8877 93.8764 93.5235 106.965C94.6966 131.091 96.4561 136.388 96.4561 136.388Z" fill="#F4E8D8"/>
<path d="M131.839 84.4032C131.839 84.4032 137.313 74.9879 130.274 73.4176C123.236 71.8473 122.846 86.7576 122.846 86.7576C122.846 86.7576 120.5 83.226 116.981 89.5029C113.462 95.7798 121.281 105.197 126.755 106.765C132.231 108.336 129.493 89.505 131.839 84.4032Z" fill="#F4E8D8"/>
<path d="M296.138 76.949C296.138 76.949 307.721 75.5999 313.439 62.5306C318.718 50.4666 313.439 42.5206 307.28 40.757C301.122 38.9912 296.138 41.6398 296.138 41.6398C296.138 41.6398 301.417 26.3386 288.222 24.5728C275.027 22.807 275.321 28.693 275.321 28.693C275.321 28.693 270.922 22.2184 264.765 19.5719C258.607 16.9233 258.9 25.4579 258.9 25.4579C258.9 25.4579 253.035 18.9833 244.825 20.7491C236.616 22.5149 236.83 24.5213 240.643 24.8156C244.455 25.1098 267.353 25.1507 282.308 40.4519C297.262 55.7532 296.138 76.949 296.138 76.949Z" fill="#F4E8D8"/>
<path d="M171.715 51.0552C171.715 51.0552 184.715 34.5768 202.6 32.2224C216.908 30.3385 209.724 40.394 211.787 39.2855C217.261 36.3426 224.12 33.7497 226.84 35.363C231.141 37.9129 227.427 41.0513 227.427 41.0513C227.427 41.0513 239.742 47.9168 241.501 51.6438C241.696 52.6255 231.31 43.8417 217.848 42.8171C202.405 41.6399 171.715 51.0552 171.715 51.0552Z" fill="#F4E8D8"/>
<path d="M136.828 126.11C136.828 126.11 136.141 123.603 135.356 121.807C134.604 120.088 134.028 121.28 133.662 122.975C133.279 124.752 133.459 127.452 133.453 128.097C133.446 128.743 136.717 128.376 136.828 126.11Z" fill="#1D2538"/>
<path d="M143.773 147.363C145.653 146.631 149.679 141.707 148.876 138.3C148.074 134.893 147.273 129.843 146.222 127.955C146.222 127.955 146.057 124.376 145.717 122.453C145.378 120.533 144.873 120.447 144.201 121.375C143.529 122.303 142.639 125.465 142.639 125.465C142.639 125.465 138.158 123.665 134.549 125.231C130.94 126.797 129.838 129.252 129.54 131.347L129.431 131.499C129.431 131.499 125.477 132.479 123.617 133.248C121.757 134.017 121.194 134.975 122.037 136.981C122.881 138.988 123.022 139.991 124.165 140.728C125.308 141.464 130.356 143.071 132.946 143.454C132.946 143.454 134.046 148.139 134.928 149.389C135.81 150.641 141.896 148.098 143.773 147.363Z" fill="#273150"/>
<path d="M144.346 141.578C144.346 141.578 149.679 141.707 148.878 138.3C148.077 134.893 147.275 129.843 146.224 127.955C146.224 127.955 146.059 124.376 145.718 122.453C145.38 120.533 144.875 120.447 144.203 121.375C143.531 122.303 142.64 125.465 142.64 125.465C142.64 125.465 138.16 123.665 134.551 125.231C134.551 125.231 138.736 125.338 140.363 126.904C141.989 128.47 144.012 134.882 144.012 134.882C144.012 134.882 139.427 140.485 139.703 140.878C140.583 142.13 144.346 141.578 144.346 141.578Z" fill="#1D2538"/>
<path d="M135.931 126.165C135.931 126.165 135.409 123.716 135.032 122.09C134.608 120.262 133.724 121.313 133.358 123.008C132.975 124.784 132.77 126.608 132.763 127.254C132.759 127.901 136.058 127.746 135.931 126.165Z" fill="#273150"/>
<path d="M135.208 130.301C135.488 129.499 135.283 128.697 134.749 128.509C134.216 128.322 133.557 128.82 133.277 129.621C132.997 130.423 133.202 131.225 133.736 131.412C134.269 131.6 134.928 131.102 135.208 130.301Z" fill="#121721"/>
<path d="M121.651 135.183C121.516 136.291 122.077 136.801 122.357 137.426C122.741 138.278 125.076 136.682 125.213 135.574C125.348 134.466 125.361 132.906 124.042 133.151C123.124 133.323 121.786 134.075 121.651 135.183Z" fill="#121721"/>
<path d="M138.481 141.98C138.481 141.98 133.402 144.598 133.083 143.4C130.54 143.054 126.44 141.722 126.44 141.722L133.314 141.718L138.481 141.98Z" fill="#1D2538"/>
<path d="M162.581 145.26C162.387 144.624 161.798 141.157 161.045 139.924C160.293 138.691 158.397 135.858 156.127 135.939C156.127 135.939 157.431 134.296 161.511 136.296C165.591 138.294 166.163 144.283 166.208 144.79C166.405 147.054 163.136 147.073 162.581 145.26Z" fill="#1D2538"/>
<path d="M134.29 175.91C134.654 174.842 136.084 173.708 136.084 173.708C136.221 173.467 136.696 172.984 136.733 172.754C137.017 170.997 137.794 166.202 137.839 165.435C137.936 163.841 137.231 159.094 137.362 155.444C137.492 151.795 143.022 154.664 143.276 158.19C143.458 160.703 141.716 170.988 141.534 171.994L140.183 175.28C139.684 175.981 138.299 176.479 136.876 176.548C135.455 176.612 133.935 176.954 134.29 175.91Z" fill="#1D2538"/>
<path d="M158.631 155.715C157.252 155.257 155.11 156.45 155.086 158.411C155.067 160.08 162.63 166.677 162.63 166.677L163.053 168.022C163.053 168.022 161.987 169.257 162.443 169.921C162.55 170.078 164.008 169.82 165.183 169.583C166.044 169.409 166.656 168.997 166.654 168.582L166.65 168.06L167.095 166.08L161.889 160.643C161.891 160.645 160.515 156.342 158.631 155.715Z" fill="#1D2538"/>
<path d="M139.319 142.038C139.319 142.038 145.025 137.943 150.037 140.195C154.517 142.207 156.559 142.547 161.555 142.622C164.693 142.669 166.849 153.75 166.198 155.906C165.021 159.936 151.16 160.293 149.384 160.353C144.148 160.531 139.77 157.842 137.61 156.815C135.673 155.893 132.82 150.553 135.243 146.487C136.168 144.936 137.234 143.256 139.319 142.038Z" fill="#273150"/>
<path d="M140.741 142.452C144.002 139.842 145.023 137.946 150.036 140.195C154.516 142.208 157.907 142.614 162.901 142.766C168.555 142.94 167.795 152.474 166.134 156.559C164.873 159.661 151.16 160.293 149.385 160.353C149.385 160.353 154.18 157.238 153.945 155.023C153.711 152.809 148.21 149.554 148.21 149.554C145.56 146.854 139.585 143.378 140.741 142.452Z" fill="#1D2538"/>
<path d="M143.749 175.555C143.743 174.591 146.11 172.26 146.095 172.024C145.853 168.037 144.856 164.263 144.697 163.354C144.374 161.489 142.272 158.329 141.549 154.299C140.851 150.416 147.748 152.321 148.651 156.798C149.171 159.38 150.456 168.254 150.785 170.677C150.832 171.018 150.811 171.364 150.723 171.699L149.347 174.642C149.186 175.487 147.855 176.213 146.226 176.309C144.597 176.406 143.76 176.868 143.749 175.555Z" fill="#273150"/>
<path d="M166.268 151.717C164.547 150.143 160.719 152.211 160.021 152.852C159.289 153.524 162.487 157.749 162.648 158.34C162.815 158.957 169.9 162.877 171.339 164.024C172.895 165.266 171.594 166.971 172.523 167.504C172.993 167.775 176.922 166.948 176.671 165.401C176.436 163.94 174.89 161.64 174.852 161.524C174.777 161.298 168.693 156.561 168.547 156.267C168.408 155.979 166.777 152.186 166.268 151.717Z" fill="#1D2538"/>
<path d="M149.071 138.465C149.071 138.465 150.105 139.567 150.366 140.538C150.366 140.538 147.217 142.822 141.541 145.537C138.499 146.991 133.8 148.327 133.8 148.327L133.117 145.769C133.119 145.767 142.718 143.239 149.071 138.465Z" fill="#992C29"/>
<path d="M133.155 145.795C133.155 145.795 131.504 149.191 131.77 150.899L136.027 152.267C136.027 152.267 134.375 147.296 133.155 145.795Z" fill="#C93F37"/>
<path d="M133.154 145.795C134.412 147.051 136.027 152.267 136.027 152.267C136.027 152.267 133.807 150.493 133.58 149.81C133.353 149.126 133.154 145.795 133.154 145.795Z" fill="#992C29"/>
<path d="M133.821 147.486C133.821 147.486 136.867 150.169 138.228 150.504L138.582 148.235C138.584 148.235 136.377 147.116 133.821 147.486Z" fill="#992C29"/>
<path d="M204.949 106.958L185.009 105.781C179.353 105.023 179.411 97.2595 179.537 91.481L179.796 71.3808C179.912 65.7698 183.093 61.9375 188.744 61.9375H205.141C211.482 61.9375 215.307 65.744 215.307 71.9371L216.872 97.4099C216.872 103.865 211.471 107.848 204.949 106.958Z" fill="#634874"/>
<path d="M184.186 67.9826C186.029 63.7142 180.936 59.8261 176.084 58.1484C169.195 55.7682 168.379 54.4987 165.556 53.0251C162.088 51.2142 159.147 50.5482 157.045 52.1357C154.945 53.7232 154.489 56.4728 155.733 57.6715C158.667 60.5049 160.067 61.1364 163.803 63.8152C170.644 68.7194 174.298 69.7849 176.51 71.2692C180.215 73.7589 181.981 73.0887 184.186 67.9826Z" fill="#A86243"/>
<path d="M185.626 68.6378C187.469 64.3694 160.065 61.1365 163.801 63.8131C170.642 68.7173 174.296 69.7828 176.507 71.2671C180.215 73.759 183.424 73.7439 185.626 68.6378Z" fill="#D77E5B"/>
<path d="M161.157 46.8362C159.667 48.995 157.293 52.707 159.303 54.7263C160.752 56.1806 160.129 57.6392 162.272 56.5952C164.68 55.4201 166.17 49.9273 166.234 49.7963C167.367 47.4956 162.664 44.6558 161.157 46.8362Z" fill="#7A4630"/>
<path d="M169.829 34.6454C169.829 34.6454 160.089 41.9792 157.531 44.8512C155 47.6932 152.798 51.1603 154.264 55.0657C155.155 57.4372 156.178 59.0419 159.346 58.0108C162.983 56.8272 165.783 51.6652 167.249 48.3785C169.216 43.9769 171.742 41.7557 173.234 40.2198C175.148 38.25 175 32.0289 169.829 34.6454Z" fill="#A86243"/>
<path d="M183.562 33.1268L183.735 36.087L181.828 36.609L180.323 34.0699L183.562 33.1268Z" fill="#273150"/>
<path d="M168.058 38.3723L170.288 34.7978C170.288 34.7978 174.985 33.0341 177.693 32.8344C180.4 32.6346 181.937 33.9127 181.937 33.9127L182.166 39.1521C182.192 39.7428 181.803 40.2798 181.27 40.3915L180.437 40.5655L179.155 40.5033L179.105 41.2057C179.082 41.558 178.857 41.8652 178.547 41.9726L176.866 42.5504L174.366 43.0982C174.366 43.0982 172.48 42.6192 172.679 41.3561C172.878 40.093 169.199 42.5075 168.058 38.3723Z" fill="#A86243"/>
<path d="M165.231 38.1772L167.07 41.3113L171.694 39.814C172.094 39.6852 172.313 39.1331 172.156 38.6433C171.979 38.0848 171.493 37.7991 171.043 37.986L167.888 38.871L167.276 37.4769L165.231 38.1772Z" fill="#273150"/>
<path d="M161.842 26.9853C157.15 28.751 137.015 34.8325 137.015 34.8325C136.885 35.8142 137.146 39.9322 137.863 40.3897C137.863 40.3897 140.796 44.3122 158.518 40.5208C179.209 36.0934 200.427 27.3526 200.427 27.3526L200.089 21.6879C200.091 21.6901 166.532 25.2195 161.842 26.9853Z" fill="#B44C29"/>
<path d="M160.474 23.7822C155.739 25.4277 139.622 30.5511 137.276 34.1471C135.444 36.9568 141.707 39.541 164.383 34.2459C187.058 28.9507 196.051 24.2076 199.373 22.6394C202.696 21.0691 194.974 19.0434 180.673 18.2916C177.398 18.1176 170.64 20.2507 160.474 23.7822Z" fill="#F08650"/>
<path d="M137.929 36.467L145.487 33.8505L138.971 37.3821L137.929 36.467Z" fill="#B44C29"/>
<path d="M180.851 18.502L168.194 22.6715C168.196 22.6694 180.826 19.054 180.851 18.502Z" fill="#B44C29"/>
<path d="M154.903 32.5768C156.956 31.5951 148.312 34.2653 143.956 36.1084C143.956 36.1084 152.85 33.5564 154.903 32.5768Z" fill="#B44C29"/>
<path d="M191.164 26.3963L190.186 25.2192L193.508 25.7111L191.164 26.3963Z" fill="#B44C29"/>
<path d="M156.37 36.4992L157.836 34.931L159.594 36.2049L156.37 36.4992Z" fill="#B44C29"/>
<path d="M173.072 25.1486C173.631 25.9692 172.325 27.2731 169.431 28.287C165.276 29.7413 159.719 30.042 159.049 28.3579C158.417 26.7683 162.885 24.9058 167.153 24.358C170.201 23.9649 172.528 24.3516 173.072 25.1486Z" fill="#B44C29"/>
<path d="M172.806 24.4609C173.275 25.0581 171.933 26.1751 169.101 27.1869C165.036 28.639 159.725 29.3028 159.218 28.0418C158.738 26.8518 163.131 25.0559 167.234 24.2998C170.165 23.7606 172.35 23.8809 172.806 24.4609Z" fill="#F08650"/>
<path d="M205.652 62.4104C206.485 59.4825 210.982 61.2397 213.228 62.6553C216.801 64.9044 216.426 66.5757 218.847 67.8431C223.22 70.133 235.321 78.5194 232.018 82.3366C228.717 86.1539 223.175 82.7598 218.851 80.0553C215.756 78.1198 210.263 73.9739 207.172 70.9385C205.886 69.6754 204.82 65.3383 205.652 62.4104Z" fill="#A86243"/>
<path d="M231.261 87.9369C232.854 85.3183 234.489 82.9596 232.327 80.3367C228.941 76.2316 226.284 78.4786 224.009 81.2905C221.772 84.0573 221.782 84.981 219.74 87.765C217.683 90.5684 213.725 94.5962 213.725 94.5962C213.725 94.5962 210.375 97.6036 211.972 99.8613C213.657 102.246 214.847 102.271 216.711 101.251C219.432 99.7646 230.062 89.9089 231.261 87.9369Z" fill="#A86243"/>
<path d="M178.418 159.872C178.369 159.889 178.319 159.913 178.272 159.938C177.564 160.329 171.778 163.47 171.105 164.312C170.555 165.002 170.906 167.543 171.099 168.686C171.159 169.04 171.405 169.33 171.743 169.448C173.113 169.923 176.722 171.186 180.222 170.832C184.611 170.387 184.476 168.729 187.742 167.16C189.879 166.136 191.18 165.474 191.827 165.141C192.137 164.98 192.272 164.669 192.289 164.318L192.469 160.478C192.49 159.996 192.225 159.569 191.754 159.474C189.577 159.028 183.444 158.052 178.418 159.872Z" fill="#29ACE4"/>
<path d="M178.343 159.9C178.343 159.9 171.694 163.544 170.979 164.439C170.264 165.335 170.942 168.424 170.942 168.424C170.942 168.424 175.701 170.323 180.089 169.879C184.478 169.434 184.475 167.967 187.742 166.399C190.272 165.185 191.632 164.482 192.115 164.227C192.246 164.158 192.329 164.027 192.336 163.881L192.535 160.229C192.554 159.894 192.327 159.595 192.002 159.527C190.077 159.112 183.591 157.967 178.343 159.9Z" fill="#13161F"/>
<path d="M175.103 161.629C175.103 161.629 178.425 160.452 181.683 161.956" stroke="#29ACE4" stroke-width="2" stroke-miterlimit="10" stroke-linecap="round" stroke-linejoin="round"/>
<path d="M177.511 160.19C177.511 160.19 180.833 159.013 184.091 160.516" stroke="#29ACE4" stroke-width="2" stroke-miterlimit="10" stroke-linecap="round" stroke-linejoin="round"/>
<path d="M213.831 160.016C217.515 161.309 222.858 162.565 223.109 164.22C223.359 165.861 223.533 167.592 223.389 168.206C223.28 168.67 223.083 168.948 222.728 169.1C221.822 169.489 220.016 170.421 216.362 170.786C214.784 170.945 211.32 170.095 209.208 168.524C207.529 167.276 205.515 165.824 204.759 165.281C204.562 165.139 204.432 164.924 204.398 164.684L204.121 162.823C204.066 162.443 204.256 162.067 204.599 161.893C206.202 161.077 210.826 158.961 213.831 160.016Z" fill="#29ACE4"/>
<path d="M215.318 159.253C218.536 160.471 222.939 162.312 223.19 164.138C223.414 165.783 223.515 166.688 223.47 167.317C223.449 167.624 222.708 167.77 222.346 167.923C221.426 168.312 219.587 169.246 215.873 169.616C214.267 169.775 211.116 169.3 208.971 167.732C207.184 166.426 205.024 164.896 204.352 164.421C204.217 164.327 204.127 164.181 204.099 164.018L203.83 162.413C203.714 161.721 204.106 161.047 204.763 160.81C207.152 159.945 212.456 158.17 215.318 159.253Z" fill="#13161F"/>
<path d="M213.286 162.74C213.286 162.74 216.283 159.994 219.671 161.04" stroke="#29ACE4" stroke-width="2" stroke-miterlimit="10" stroke-linecap="round" stroke-linejoin="round"/>
<path d="M211.2 161.431C211.2 161.431 214.328 158.946 217.716 159.992" stroke="#29ACE4" stroke-width="2" stroke-miterlimit="10" stroke-linecap="round" stroke-linejoin="round"/>
<path d="M212.765 105.197C212.765 105.197 213.73 118.028 215.5 128.346C216.455 133.909 217.35 143.87 217.915 151.124C218.296 156.014 218.609 159.702 218.382 159.87C217.823 160.286 215.124 159.476 210.192 160.716C205.324 161.94 203.32 162.647 203.32 162.647L202.556 160.288C202.556 160.288 202.098 159.191 202.697 154.665C202.875 153.326 201.349 151.249 201.131 149.543C199.739 138.614 197.727 121.916 196.732 110.69C195.214 93.5391 209.58 90.8303 212.765 105.197Z" fill="#F6BE4A"/>
<path opacity="0.5" d="M212.764 105.197C212.764 105.197 213.729 118.028 215.499 128.346C216.589 134.695 217.445 145.537 218.179 153.084C218.333 154.667 218.909 154.8 219.016 156.024C219.145 157.5 218.929 159.62 218.293 159.956C217.603 160.319 215.125 159.476 210.193 160.716C205.325 161.94 203.321 162.647 203.321 162.647L202.557 160.288C202.317 159.169 202.281 158.613 202.698 154.665C202.84 153.341 201.337 151.155 201.131 149.543C199.74 138.573 197.7 121.609 196.732 110.69C195.212 93.5391 209.578 90.8303 212.764 105.197Z" fill="#F6BE4A"/>
<path d="M180.234 104.467C180.234 104.467 179.536 119.1 179.166 127.819C178.898 134.089 178.061 159.848 178.061 159.848C178.061 159.848 179.161 159.423 183.83 159.569L190.53 162.557C190.53 162.557 192.033 162.965 192.429 162.737C192.825 162.512 193.9 161.453 194.004 158.879C194.338 150.697 194.4 132.865 194.278 131.544C194.167 130.352 194.281 116.576 195.175 106.363C195.567 101.889 193.512 98.1424 187.617 96.6151C181.957 95.15 180.381 99.9619 180.234 104.467Z" fill="#F6BE4A"/>
<path d="M215.501 128.345C216.58 134.635 217.432 145.327 218.159 152.864C218.213 153.408 218.909 154.781 218.96 155.288C219.251 158.168 218.735 159.986 218.17 160.104C217.603 160.22 215.126 159.476 210.194 160.716C205.326 161.94 203.323 162.647 203.323 162.647L202.559 160.288C202.559 160.288 207.439 153.292 210.027 148.746C210.809 147.374 213.82 143.297 214.621 137.86C215.37 132.773 215.066 125.819 215.501 128.345Z" fill="#F6BE4A"/>
<path d="M196.28 112.26C204.953 112.26 211.983 107.1 211.983 100.735C211.983 94.3703 204.953 89.2105 196.28 89.2105C187.607 89.2105 180.576 94.3703 180.576 100.735C180.576 107.1 187.607 112.26 196.28 112.26Z" fill="#F6BE4A"/>
<path opacity="0.5" d="M196.28 112.26C204.953 112.26 211.983 107.1 211.983 100.735C211.983 94.3703 204.953 89.2105 196.28 89.2105C187.607 89.2105 180.576 94.3703 180.576 100.735C180.576 107.1 187.607 112.26 196.28 112.26Z" fill="#F6BE4A"/>
<path d="M193.932 100.587C194.341 98.1661 192.58 99.6848 191.212 100.488C190.201 101.083 189.401 101.53 190.343 102.213C191.858 103.313 193.667 102.162 193.932 100.587Z" stroke="#FEED7F" stroke-width="3" stroke-miterlimit="10"/>
<path d="M194.193 100.293C194.193 100.293 196.147 102.548 197.907 102.843C199.666 103.137 199.373 100.488 198.2 99.9985C197.027 99.5087 194.878 99.5087 194.193 100.293Z" stroke="#FEED7F" stroke-width="3" stroke-miterlimit="10"/>
<path d="M194.292 100.097C194.292 100.097 196.735 102.501 196.833 105.835" stroke="#FEED7F" stroke-width="3" stroke-miterlimit="10"/>
<path d="M193.901 104.952C193.901 104.952 194.145 101.274 194.293 100.097" stroke="#FEED7F" stroke-width="3" stroke-miterlimit="10"/>
<path d="M211.037 146.278C213.251 143.982 215.267 138.504 215.109 135.8C215.109 135.8 206.79 147.84 206.508 148.353C205.72 149.791 210.952 146.369 211.037 146.278Z" fill="#F6BE4A"/>
<path d="M184.791 60.7951C184.791 60.7951 183.346 61.1323 182.91 65.6993C182.715 67.7336 181.045 77.136 181.165 83.6342C181.306 91.2515 180.658 101.55 180.658 101.55C180.658 101.55 185.949 99.9837 193.756 99.3822C201.565 98.7808 211.033 102.037 211.033 102.037C214.056 102.538 210.862 93.3567 210.168 89.8595C209.357 85.7673 210.502 78.3647 209.83 72.8462C208.818 64.5479 207.403 62.8809 207.234 62.1999C206.863 60.7048 202.075 60.6597 198.847 60.1957C194.124 59.5212 188.263 60.2924 184.791 60.7951Z" fill="#29ACE4"/>
<path d="M180.903 71.8728C180.903 71.8728 195.565 67.8106 207 71.1618L207.586 74.2078C207.586 74.2078 194.197 69.3337 180.512 74.8179L180.903 71.8728Z" fill="#3D4C6D"/>
<path d="M180.413 75.5291C180.413 75.5291 195.562 71.366 206.998 74.7171L207.584 77.7632C207.584 77.7632 194.291 73.194 180.608 78.6761L180.413 75.5291Z" fill="#3D4C6D"/>
<path opacity="0.5" d="M184.789 60.7948C184.789 60.7948 183.344 61.1321 182.908 65.699C182.713 67.7333 181.043 77.1358 181.163 83.6339C188.452 72.412 205.977 99.1328 211.984 99.6569C213.645 99.8009 210.078 93.4058 209.899 87.202C209.689 79.952 210.778 73.5978 210.778 73.5978C209.766 65.2995 207.403 62.8849 207.234 62.2018C206.863 60.7067 202.075 60.6616 198.847 60.1976C194.122 59.5209 188.261 60.2921 184.789 60.7948Z" fill="#29ACE4"/>
<path d="M202.013 60.5521C202.234 60.5393 202.013 61.0613 202.013 61.0613C200.466 62.4705 196.839 64.6637 193.614 64.6637C190.43 64.6637 187.75 64.4618 187.059 62.4125C186.761 61.5296 188.168 60.3674 188.168 60.3674C188.168 60.3674 190.696 59.9335 193.609 59.8432C196.452 59.753 201.793 60.565 202.013 60.5521Z" fill="#7A4630"/>
<path d="M193.502 61.7938C190.944 61.7122 191.023 59.7294 191.042 58.4856L191.295 54.4256C191.31 53.4375 192.339 52.6191 193.932 52.6663L196.683 52.7093C198.228 52.7565 198.986 53.6094 199.127 54.5674C199.127 54.5674 199.581 58.8465 199.423 60.1805C199.26 61.5339 196.062 61.8733 193.502 61.7938Z" fill="#7A4630"/>
<path d="M211.617 70.1116C211.617 70.1116 212.329 79.1145 211.099 77.9674C206.612 73.7828 207.303 65.9636 207.648 63.8734C207.993 61.7833 208.975 60.982 210.322 61.8907C212.394 63.2827 211.617 70.1116 211.617 70.1116Z" fill="#A86243"/>
<path d="M183.207 59.5856C184.393 59.6222 185.962 59.9809 185.682 60.6017C184.834 62.4813 183.501 67.1514 182.803 71.0503C181.985 75.6173 181.251 79.7739 180.898 82.921C180.735 84.3731 179.47 85.5224 178.344 84.7104C178.025 84.4805 177.785 84.1583 177.71 83.7093C177.417 81.9113 176.398 74.0792 180.6 61.2419C181.12 59.6565 181.959 59.547 183.207 59.5856Z" fill="#634874"/>
<path d="M209.35 60.6038C208.569 59.9937 205.308 59.3256 204.099 59.6994C202.889 60.0732 203.243 65.4221 204.75 71.467C206.207 77.3099 208.461 84.8843 209.665 86.2204C209.902 86.4825 210.236 86.6178 210.581 86.5942C211.304 86.5427 212.456 86.2892 212.396 85.1915C212.31 83.5997 211.041 76.571 210.058 68.93C209.224 62.4168 210.108 61.1945 209.35 60.6038Z" fill="#634874"/>
<path d="M213.405 103.242C214.069 103.453 214.803 103.283 215.291 102.785C216.449 101.605 216.927 99.8373 216.768 97.9427C216.574 95.5883 213.739 94.7054 211.913 94.3144C210.468 94.003 209.27 93.6936 208.833 93.5776C208.722 93.5476 208.602 93.5733 208.512 93.6464L203.325 97.861C203.235 97.9341 203.186 98.0458 203.192 98.1618L203.295 100.119C203.306 100.312 203.464 100.462 203.657 100.462C203.974 100.462 204.136 100.841 203.922 101.072L203.805 101.199C203.704 101.307 203.681 101.466 203.74 101.599L204.256 102.718C204.346 102.911 204.58 102.986 204.764 102.881L205.093 102.692C205.235 102.611 205.412 102.634 205.528 102.75L206.457 103.682C206.564 103.79 206.727 103.82 206.864 103.756L207.977 103.24C208.159 103.156 208.371 103.236 208.456 103.418C208.574 103.667 208.78 103.99 209.111 104.155C209.621 104.411 211.779 103.309 212.335 103.017C212.421 102.971 212.519 102.963 212.611 102.993L213.405 103.242Z" fill="#A86243"/>
<path d="M208.356 93.7754L203.328 97.859C203.238 97.932 203.189 98.0437 203.195 98.1597L203.298 100.117C203.309 100.31 203.467 100.46 203.66 100.46C203.977 100.46 204.139 100.838 203.925 101.07L203.808 101.197C203.707 101.305 203.683 101.464 203.743 101.597L204.259 102.716C204.349 102.909 204.583 102.984 204.767 102.879L205.096 102.69C205.238 102.609 205.415 102.632 205.531 102.748L206.46 103.68C206.567 103.788 206.73 103.818 206.867 103.754L207.98 103.238C208.162 103.154 208.374 103.234 208.459 103.416C208.577 103.665 208.782 103.988 209.114 104.153C209.6 104.398 211.589 103.403 212.252 103.058C212.383 102.989 212.46 102.847 212.445 102.699L212.272 100.946C212.218 100.402 211.972 99.8933 211.578 99.5152L210.914 98.8772C210.482 98.4626 210.229 97.8955 210.21 97.2962L210.178 96.3596C210.163 95.9171 210.022 95.4874 209.769 95.1244L208.879 93.8441C208.759 93.6765 208.519 93.6422 208.356 93.7754Z" fill="#D77E5B"/>
<path d="M203.805 46.7805C203.523 54.3806 201.943 56.7651 196.904 56.851C193.094 56.9155 190.002 52.342 190.002 46.7805C190.002 41.2189 193.094 36.71 196.904 36.71C200.714 36.71 204.058 39.9386 203.805 46.7805Z" fill="#273150"/>
<path d="M201.68 45.0576C201.643 40.0718 201.102 37.219 195.607 36.813C192.738 36.6025 189.915 36.8646 188.251 37.7282C186.749 38.5101 185.841 39.7259 185.317 42.9976C184.921 45.4615 184.364 49.7234 185.186 53.85C185.713 56.4944 189.093 57.4954 192.072 57.7016C199.766 58.2344 200.948 56.1829 201.427 52.5439C202.073 47.6182 201.692 47.1048 201.68 45.0576Z" fill="#7A4630"/>
<path d="M200.684 48.0758C200.637 43.7538 198.866 41.8763 193.919 41.5089C191.338 41.3178 186.252 42.6518 186.014 45.5131C185.759 48.6107 185.389 51.3088 185.937 53.9897C186.408 56.2947 188.872 57.1024 191.556 57.2914C198.483 57.7769 200.061 55.4225 200.47 52.269C200.819 49.5838 200.703 49.8502 200.684 48.0758Z" fill="#A96344"/>
<path d="M187.071 37.655C186.61 37.9343 186.433 38.2114 186.107 39.9943C186.039 40.3702 186.728 38.9181 187.349 38.351C187.97 37.7839 187.826 38.5443 191.076 38.4648C194.325 38.3854 198.932 37.8247 198.932 37.8247L199.383 42.3315L201.062 46.2454L202.074 44.0844C202.226 40.2478 201.537 38.0137 199.026 37.1674C194.43 35.6164 188.759 36.6282 187.071 37.655Z" fill="#273150"/>
<path d="M195.219 41.5969C195.161 42.3574 194.804 42.9438 194.418 42.9138C194.033 42.8837 193.763 42.25 193.812 41.4895C193.862 40.7205 194.221 40.1125 194.615 40.1426C195.007 40.1727 195.277 40.8279 195.219 41.5969Z" fill="#102342"/>
<path d="M193.651 40.0825L195.589 39.4659" stroke="#273150" stroke-miterlimit="10" stroke-linecap="round" stroke-linejoin="round"/>
<path d="M189.784 41.7879C189.759 42.5054 189.446 43.0575 189.087 43.0296C188.725 43.0016 188.447 42.4044 188.464 41.687C188.481 40.963 188.793 40.3916 189.162 40.4196C189.532 40.4475 189.81 41.064 189.784 41.7879Z" fill="#102342"/>
<path d="M189.594 40.0824L187.854 39.584" stroke="#273150" stroke-miterlimit="10" stroke-linecap="round" stroke-linejoin="round"/>
<path d="M204.139 48.3205C203.634 50.3763 202.182 51.8198 200.883 51.6093C200.883 51.6093 200.923 46.9478 200.904 46.0585C200.891 45.5 201.212 43.7772 202.597 44.0049C203.978 44.2304 204.661 46.1938 204.139 48.3205Z" fill="#7A4630"/>
<path d="M203.407 49.7878C203.334 50.284 202.865 50.6471 202.36 50.6062C201.855 50.5654 201.495 50.1337 201.562 49.6374C201.626 49.1369 202.097 48.7631 202.611 48.804C203.122 48.8469 203.48 49.2894 203.407 49.7878Z" fill="#E2D6C9"/>
<path d="M223.923 90.0399C223.923 90.0399 218.37 90.1322 215.782 89.1247C213.194 88.1194 213.924 77.4173 219.07 76.0082C224.95 74.397 232.017 77.8384 235.925 80.6052C239.834 83.372 238.246 87.5093 232.59 89.4599C226.851 91.4383 223.923 90.0399 223.923 90.0399Z" fill="#1689CB"/>
<path d="M236.022 85.0112C236.022 87.7608 225.63 87.9004 222.46 87.9004C219.291 87.9004 216.723 85.6706 216.723 82.921C216.723 80.1714 219.291 77.9416 222.46 77.9416C225.628 77.9394 236.022 82.2615 236.022 85.0112Z" fill="#992C29"/>
<path d="M233.91 86.7448C233.91 86.7448 248.017 91.5631 256.228 103.595C263.258 113.897 273.169 107.257 279.035 110.003C284.9 112.748 249.924 119.446 243.881 121.087C236.648 123.048 215.244 98.8088 219.251 92.1409C224.093 84.0789 233.91 86.7448 233.91 86.7448Z" fill="#1689CB"/>
<path d="M237.33 89.896C237.401 90.229 244.996 93.5049 249.808 101.013C260.038 116.967 272.745 106.637 278.608 109.382C284.471 112.127 282.778 119.21 282.778 119.21C282.778 119.21 273.004 116.464 270.657 124.309C268.311 132.154 247.969 133.265 241.926 134.904C234.693 136.865 218.06 133.929 218.06 133.929C218.06 133.929 211.782 107.26 219.706 89.5029C221.106 86.3645 230.979 87.1486 230.979 87.1486L237.33 89.896Z" fill="#992C29"/>
<path d="M225.701 66.6121C225.701 66.6121 223.103 65.7421 220.504 69.2199C218.462 71.9524 217.424 74.4356 219.444 77.8147C220.016 78.7706 217.713 78.9747 219.155 83.0304C220.667 87.2773 229.261 87.4728 232.149 85.4449C232.149 85.4449 237.732 90.1773 243.987 86.7961C248.195 84.5212 242.447 78.4892 242.447 78.4892C242.447 78.4892 245.451 71.9266 238.522 65.4564C233.587 60.8507 228.3 64.0042 225.701 66.6121Z" fill="#273150"/>
<path d="M223.71 73.9435C225.544 73.9435 227.03 71.4141 227.03 68.2939C227.03 65.1737 225.544 62.6443 223.71 62.6443C221.877 62.6443 220.39 65.1737 220.39 68.2939C220.39 71.4141 221.877 73.9435 223.71 73.9435Z" fill="#273150"/>
<path d="M230.857 65.5488C231.827 63.267 231.484 60.9337 230.091 60.3372C228.698 59.7407 226.782 61.1069 225.812 63.3887C224.842 65.6704 225.184 68.0038 226.577 68.6003C227.97 69.1968 229.886 67.8306 230.857 65.5488Z" fill="#273150"/>
<path d="M224.997 68.0404C224.997 68.0404 222.835 66.6355 220.418 69.4904C218.001 72.3453 217.614 74.8715 219.356 77.7844C219.849 78.6093 217.802 79.3869 219.046 82.8841C219.74 84.8303 222.918 85.6272 222.715 85.2642C222.512 84.9012 222.687 83.8765 222.687 83.8765C224.873 85.1869 228.446 85.9581 232.215 85.6616C234.332 86.9355 238.237 86.8066 240.761 85.4425C244.389 83.4834 239.433 78.2827 239.433 78.2827C239.433 78.2827 242.024 72.6267 236.049 67.0479C231.796 63.0717 227.238 65.7913 224.997 68.0404Z" fill="#3D4C6D"/>
<path d="M224.639 68.4078C224.639 71.0973 224.866 74.3603 223.284 74.3603C221.705 74.3603 220.422 72.1799 220.422 69.4904C220.422 66.801 221.705 64.6206 223.284 64.6206C224.864 64.6206 224.639 65.7183 224.639 68.4078Z" fill="#3D4C6D"/>
<path d="M228.787 65.5185C227.95 67.4841 226.953 70.2767 225.752 69.7611C224.551 69.2477 224.255 67.2349 225.09 65.2693C225.927 63.3038 227.578 62.1266 228.779 62.64C229.979 63.1556 229.624 63.553 228.787 65.5185Z" fill="#3D4C6D"/>
<path d="M236.69 86.7915C236.69 86.7915 239.118 86.1127 239.514 84.3555C239.514 84.3555 240.362 86.9054 236.69 86.7915Z" fill="#273150"/>
<path d="M239.366 92.7567C239.366 92.7567 243.39 100.681 244.535 102.675C245.68 104.666 242.609 106.986 240.605 106.447C238.601 105.908 234.78 96.5718 233.821 94.5955C232.86 92.6171 236.831 89.513 239.366 92.7567Z" fill="#F6874E"/>
<path d="M239.922 93.73C239.922 93.73 236.236 86.3425 233.755 86.7334C231.267 87.1244 231.316 88.25 231.845 90.424C232.629 93.6462 234.774 97.9597 234.774 97.9597C234.774 97.9597 236.908 94.5591 239.922 93.73Z" fill="#C93F37"/>
<path d="M249.55 102.222C249.55 102.222 244.564 101.895 243.391 101.502C242.218 101.109 238.063 103.023 239.775 105.818C241.175 108.106 248.832 107.223 250.136 106.701C251.44 106.179 251.992 102.679 249.55 102.222Z" fill="#F6874E"/>
<path d="M262.42 49.5491C262.42 49.5491 254.547 90.7163 254.453 91.3564C254.359 91.9966 254.275 92.5723 254.275 92.5723C254.145 92.8709 253.826 92.9203 252.659 92.6518L247.661 91.7796L254.637 48.0261C254.671 47.8027 258.852 44.0563 258.852 44.0563C258.991 44.0434 259.166 43.8415 259.517 44.2561L262.332 48.7694C262.499 49.1131 262.454 49.3687 262.42 49.5491Z" fill="#F6BE4A"/>
<path d="M262.42 49.5491C262.42 49.5491 254.547 90.7162 254.453 91.3563C254.359 91.9965 254.275 92.5722 254.275 92.5722C254.144 92.8708 254.697 92.9374 253.532 92.6667L261.547 49.0937C261.547 49.0937 259.166 43.8393 259.52 44.2539L262.335 48.7672C262.499 49.113 262.454 49.3686 262.42 49.5491Z" fill="#F6874E"/>
<path d="M258.202 69.9328L258.611 68.2615C258.662 68.1412 258.437 68.0703 258.204 68.1347L256.62 68.573C256.479 68.6116 256.412 68.6997 256.472 68.7663L257.87 70.0552C257.971 70.1669 258.146 70.0552 258.202 69.9328Z" fill="#F6874E"/>
<path d="M252.974 58.3631L254.102 57.5876L253.261 56.6553L252.974 58.3631Z" fill="#F6874E"/>
<path d="M260.632 56.2641L259.3 54.9795L260.964 54.8721L260.632 56.2641Z" fill="#F6874E"/>
<path d="M259.159 44.0627L250.584 92.1405" stroke="#F4E8D8" stroke-miterlimit="10"/>
<path d="M251.74 66.1971L252.772 66.3775L253.667 65.1015L253.033 63.8255L255.24 61.7955L256.084 61.0007" stroke="#F4E8D8" stroke-miterlimit="10"/>
<path d="M248.813 108.342C248.791 108.408 248.295 108.642 247.404 108.406C246.36 108.129 246.452 107.409 246.452 107.409L248.218 92.0974L253.09 92.8814L248.813 108.342Z" fill="#1D2538"/>
<path d="M246.618 112.971C248.044 113.338 249.38 112.286 249.572 110.696C249.757 109.186 248.83 107.772 247.526 107.469C246.237 107.171 244.97 108.054 244.668 109.502C244.351 111.025 245.21 112.608 246.618 112.971ZM247.38 108.947C247.869 109.119 248.228 109.796 248.181 110.472C248.134 111.164 247.68 111.585 247.173 111.398C246.67 111.211 246.319 110.503 246.387 109.826C246.454 109.164 246.897 108.775 247.38 108.947Z" fill="#1D2538"/>
<path d="M246.483 111.985C247.29 112.208 248.053 111.6 248.175 110.657C248.198 110.473 248.194 110.288 248.168 110.112C248.185 110.23 248.19 110.352 248.181 110.475C248.134 111.166 247.68 111.587 247.173 111.401C246.67 111.214 246.319 110.505 246.387 109.828C246.453 109.167 246.897 108.78 247.38 108.95C247.682 109.057 247.935 109.356 248.072 109.729C247.886 109.205 247.49 108.788 246.993 108.662C246.233 108.466 245.497 109.01 245.336 109.901C245.173 110.818 245.681 111.764 246.483 111.985Z" fill="#F6BE4A"/>
<path d="M248.153 110.025C248.151 110.01 248.149 109.993 248.145 109.979C248.149 109.995 248.151 110.01 248.153 110.025Z" fill="#F6BE4A"/>
<path d="M248.11 109.844C248.103 109.82 248.095 109.796 248.086 109.77C248.095 109.794 248.103 109.818 248.11 109.844Z" fill="#F6BE4A"/>
<path d="M248.091 108.383C248.119 108.383 248.146 108.393 248.17 108.411C248.346 108.548 248.487 108.698 248.587 108.862C248.626 108.922 248.6 109.003 248.534 109.042C248.468 109.081 248.382 109.064 248.346 109.003C248.26 108.866 248.138 108.735 247.986 108.617C247.928 108.572 247.924 108.49 247.975 108.434C248.003 108.398 248.048 108.38 248.091 108.383Z" fill="#F4E8D8"/>
<path d="M248.567 102.106C247.67 102.106 247.041 102.389 247.041 102.389L247.922 94.9073C247.982 94.0996 248.179 91.7538 248.179 91.7538C248.179 91.7538 252.779 92.424 253.36 92.598C253.36 92.598 252.732 95.1457 252.52 95.8653L250.588 102.366C250.588 102.368 249.464 102.106 248.567 102.106Z" fill="#C73F37"/>
<path d="M251.2 100.305L250.928 101.206C250.928 101.206 249.376 101.075 247.509 101.075C247.511 101.075 248.074 100.537 251.2 100.305Z" fill="#1D2538"/>
<path d="M247.036 102.447C247.036 102.447 249.6 102.426 250.441 102.862L250.114 103.932C250.114 103.932 247.498 103.201 246.948 103.201L247.036 102.447Z" fill="#C73F37"/>
<path d="M247.352 99.7643L247.388 99.47C247.388 99.47 249.347 99.3583 250.649 99.7729L247.352 99.7643Z" fill="#1D2538"/>
<path d="M251.611 98.7869L251.851 98.0243C251.851 98.0243 249.246 97.4572 247.531 98.1339C247.531 98.1339 250.678 98.0243 251.611 98.7869Z" fill="#1D2538"/>
<path d="M252.52 95.8674L252.129 97.1671C252.129 97.1671 249.571 96.1252 247.717 96.4732L247.987 94.1296C247.987 94.1296 249.926 94.9158 252.52 95.8674Z" fill="#1D2538"/>
<path d="M252.922 94.3059L253.112 93.627C253.112 93.627 250.678 92.4585 248.602 92.9676C248.602 92.9676 252.667 93.7323 252.922 94.3059Z" fill="#1D2538"/>
<path d="M243.952 88.0077C244.098 87.9454 244.263 87.926 244.421 87.954L258.646 90.1472C258.827 90.1859 259.007 90.4909 259.517 91.2578C259.859 91.7734 260.02 92.4372 259.44 92.71C258.68 93.0687 257.836 93.6766 257.524 93.5843L243.875 91.1461C243.665 91.1053 243.01 90.5769 242.743 90.3577C242.439 90.1086 242.015 89.6295 241.756 89.2235C241.563 88.9228 241.683 88.5275 242.009 88.3879L243.952 88.0077Z" fill="#C73F37"/>
<path d="M243.596 87.3995C243.75 87.3329 243.919 87.3136 244.086 87.3437L258.529 89.9193C258.567 89.9279 259.567 91.0278 259.439 91.4381C259.31 91.8484 257.574 92.5745 257.574 92.5745C257.574 92.5745 242.851 90.1857 242.72 90.0074C242.478 89.6766 242.078 89.3415 241.806 88.9183C241.605 88.6047 241.731 88.1922 242.07 88.0461L243.596 87.3995Z" fill="#F6874E"/>
<path d="M243.596 87.3995C243.75 87.3329 243.919 87.3136 244.086 87.3437L245.893 89.3973L257.574 92.5745C257.574 92.5745 242.851 90.1857 242.72 90.0074C242.363 89.653 242.078 89.3415 241.806 88.9183C241.605 88.6047 241.731 88.1922 242.07 88.0461L243.596 87.3995Z" fill="#F6BE4A"/>
<path d="M251.794 68.004L251.161 71.7697L255.714 78.4654L256.405 74.7921L251.794 68.004Z" fill="#F6BE4A"/>
<path d="M251.026 72.8802L250.846 74.3302L255.397 81.026L255.637 79.6662L251.026 72.8802Z" fill="#F6BE4A"/>
<path d="M246.042 87.7562L246.464 88.3533C246.605 88.5639 246.648 88.5853 246.864 88.4457L247.552 88.0225L246.042 87.7562Z" fill="#C73F37"/>
<path d="M247.867 101.493C247.733 101.818 248.079 101.921 248.569 101.975C248.923 102.013 249.576 101.657 249.576 101.657C249.576 101.657 250.164 101.85 250.41 101.998C250.537 102.073 249.426 101.975 249.032 101.998C248.638 102.022 247.745 102.4 247.745 102.4C247.72 102.402 247.694 102.406 247.67 102.415C247.371 102.522 247.182 102.84 247.238 103.336C247.247 103.403 247.279 103.452 247.328 103.498C247.39 103.556 247.503 103.579 247.461 103.757C247.403 103.992 247.133 104.161 247.135 104.331C247.135 104.428 247.324 105.244 247.388 105.317L248.253 105.351C248.253 105.351 247.259 105.465 247.189 105.921C247.067 106.711 247.737 107.126 248.201 107.051C248.777 106.958 248.773 107.242 249.269 107.328C249.269 107.328 250.494 107.461 250.657 107.033C250.828 106.584 251.374 106.234 251.543 105.601C251.641 105.229 251.641 104.49 251.911 104.045C252.44 103.177 251.789 102.924 251.935 102.365C252.063 101.882 252.401 101.848 252.23 101.279C252.095 100.836 251.633 100.711 251.295 100.587C250.956 100.464 250.064 100.389 249.18 100.488C249.182 100.492 248.004 101.169 247.867 101.493Z" fill="#CE6D3E"/>
<path d="M247.866 101.493C247.731 101.817 248.074 101.97 248.564 102.023C248.917 102.062 249.572 101.656 249.572 101.656C249.572 101.656 250.161 101.849 250.407 101.998C250.533 102.073 249.422 101.974 249.028 101.998C248.635 102.021 247.742 102.399 247.742 102.399C247.716 102.401 247.691 102.406 247.667 102.414C247.367 102.522 247.153 102.868 247.211 103.362C247.22 103.428 247.355 103.592 247.404 103.637C247.466 103.695 247.417 103.77 247.404 103.796C247.297 104.013 247.166 104.06 247.13 104.225C247.044 104.608 247.145 104.962 247.384 105.317L248.292 105.351C248.292 105.351 247.245 105.463 247.185 105.92C247.128 106.361 247.504 106.96 248.007 106.831C248.727 106.646 249.596 106.943 249.688 106.902C250.336 106.605 249.769 105.974 249.983 105.486C250.142 105.125 250.154 104.713 250.321 104.324C250.467 103.987 250.407 103.02 250.407 103.02L251.255 102.255C251.255 102.255 251.227 101.519 251.169 101.235C251.064 100.707 249.701 100.389 249.178 100.487C249.084 100.509 248.003 101.168 247.866 101.493Z" fill="#F6874E"/>
<path d="M246.766 103.448C247.278 104.222 247.929 103.418 247.777 102.243C247.704 101.678 247.526 100.948 246.674 101.199C245.822 101.451 245.852 102.067 246.766 103.448Z" fill="#F6874E"/>
<path d="M254.502 127.69C254.545 128.863 250.127 129.396 248.997 130.981C247.365 133.271 248.772 133.362 233.753 134.494C221.603 135.411 217.795 129.518 217.947 127.035C218.097 124.586 226.807 121.349 235.971 121.338C245.152 121.33 254.412 125.205 254.502 127.69Z" fill="#EC5E4D"/>
<path d="M219.642 135.321C219.642 135.321 217.296 125.762 217.102 122.853C216.907 119.944 226.681 115.788 228.44 120.567C230.2 125.347 230.592 133.035 230.592 136.569C230.592 140.103 230.005 143.22 225.705 143.011C219.42 142.706 221.169 141.583 219.642 135.321Z" fill="#273150"/>
<path d="M219.642 135.321C219.642 135.321 217.296 125.762 217.102 122.853C216.907 119.944 226.681 115.788 228.44 120.567C230.2 125.347 230.592 133.035 230.592 136.569C230.592 140.103 230.005 143.22 225.705 143.011C219.42 142.706 221.169 141.583 219.642 135.321Z" fill="#102441"/>
<path d="M226.514 136.127C223.932 135.508 220.295 137.656 220.552 140.518C220.747 142.7 218.566 143.323 217.099 147.583C215.633 151.843 226.482 154.648 227.46 149.245C228.436 143.843 233.454 137.789 226.514 136.127Z" fill="#273150"/>
<path d="M226.681 135.426C224.1 134.808 220.3 137.656 220.557 140.517C220.752 142.7 222.055 143.965 220.589 148.225C219.123 152.485 226.486 154.65 227.465 149.245C228.439 143.843 233.619 137.089 226.681 135.426Z" fill="#102441"/>
<path d="M227.462 149.245C226.484 154.648 220.621 169.717 220.034 172.417C219.448 175.119 217.494 176.123 217.494 176.123C217.494 176.123 214.818 177.356 214.901 171.266C214.963 166.613 215.638 151.844 217.104 147.584C217.104 147.584 220.818 146.025 223.164 146.65C225.508 147.271 227.462 149.245 227.462 149.245Z" fill="#F6874E"/>
<path d="M227.459 149.245C226.481 154.648 220.618 169.717 220.031 172.417C219.745 173.743 219.413 175.732 218.696 175.786C217.953 175.842 217.653 176.342 217.458 171.689C217.264 167.324 219.12 151.842 220.586 147.583C220.586 147.583 220.815 146.023 223.161 146.648C225.505 147.271 227.459 149.245 227.459 149.245Z" fill="#CE6D3E"/>
<path d="M217.654 169.981C216.582 172.018 214.625 173.218 214.625 173.218C214.625 173.218 213.238 175.682 213.437 176.61C213.565 177.173 214.128 178.608 214.128 178.608C214.128 178.608 214.548 183.603 214.696 184.191C214.914 185.072 223.714 186.481 224.303 186.705C224.892 186.928 224.763 181.959 224.763 181.959C224.763 181.959 220.991 177.285 220.285 175.285C219.589 173.322 218.812 167.786 217.654 169.981Z" fill="#CE6D3E"/>
<path d="M232.545 119.111C230.591 120.773 229.45 124.513 230.916 128.047C232.382 131.581 233.718 137.952 235.086 139.409C236.454 140.865 238.8 142.803 241.538 142.803C244.274 142.803 245.447 138.854 244.959 135.737C244.471 132.62 242.711 123.787 241.343 119.839C239.975 115.891 234.5 117.448 232.545 119.111Z" fill="#102441"/>
<path d="M235.456 137.2C234.486 138.24 234.244 141.679 233.698 143.531C232.964 146.023 232.823 147.909 232.964 151.32C233.107 154.787 233.801 159.274 234.139 161.691C234.833 166.655 233.39 168.501 235.736 168.776C238.082 169.053 237.69 168.221 238.602 165.727C239.514 163.233 242.839 150.211 243.489 147.578C244.14 144.946 244.532 142.036 244.662 139.681C244.793 137.327 238.046 134.423 235.456 137.2Z" fill="#273150"/>
<path d="M235.785 136.893C234.302 137.896 234.109 141.662 234.546 145.698C234.892 148.901 242.841 150.214 243.491 147.582C244.142 144.951 244.534 142.04 244.664 139.686C244.795 137.331 238.6 134.612 235.785 136.893Z" fill="#102441"/>
<path d="M233.163 145.911C232.373 148.489 232.767 152.88 233.88 161.041C234.556 166.007 233.554 169.515 235.9 169.792C238.247 170.069 238.651 170.147 239.124 167.534C239.604 164.886 242.838 150.216 243.489 147.585C243.489 147.585 240.556 145.784 237.821 145.645C235.085 145.505 233.163 145.911 233.163 145.911Z" fill="#F6874E"/>
<path d="M234.546 145.698C234.561 148.643 235.732 157.807 235.867 162.707C236.006 167.77 234.661 169.068 237.008 169.345C239.354 169.622 238.664 170.148 239.127 167.534C239.628 164.694 242.841 150.216 243.492 147.584C243.492 147.584 240.681 145.874 237.823 145.645C236.669 145.55 234.546 145.698 234.546 145.698Z" fill="#CE6D3E"/>
<path d="M234.287 167.002C234.287 167.002 234.018 168.651 233.277 170.385C232.641 171.871 235.951 172.552 237.156 173.659C237.156 173.659 245.905 178.252 248.835 176.797C252.091 175.182 243.062 170.589 245.644 171.998C245.644 171.998 240.17 169.296 239.389 167.219C238.605 165.143 234.287 167.002 234.287 167.002Z" fill="#F6874E"/>
<path d="M235.688 166.731C235.575 169.195 234.498 169.751 234.106 171.208C233.351 174.015 238.901 175.74 238.537 175.523C238.537 175.523 245.803 178.056 248.735 176.602C252.051 174.956 242.999 170.621 245.64 172C245.64 172 240.167 169.298 239.385 167.221C238.604 165.143 235.791 164.508 235.688 166.731Z" fill="#CE6D3E"/>
<path d="M233.488 169.169C233.627 168.892 233.882 168.651 233.924 168.928C233.969 169.205 234.391 170.267 234.969 170.593C235.545 170.92 242.121 174.516 244.426 173.86C245.833 173.461 244.816 172.187 243.81 171.253C243.168 170.655 242.528 170.198 242.528 170.198C242.528 170.198 245.477 171.865 246.832 172.649C248.187 173.433 251.037 176.114 251.306 177.16C251.578 178.206 241.29 178.337 239.815 177.65C238.341 176.962 236.155 175.001 235.342 174.217C234.592 173.495 233.721 173.818 233.443 173.497C232.813 172.778 233.066 170 233.488 169.169Z" fill="#992C29"/>
<path d="M230.493 86.5619C230.493 86.5619 233.096 85.9733 234.012 87.1505C235.065 88.506 237.88 91.9881 238.019 94.7592C238.13 96.9675 237.751 98.7333 236.643 101.805C235.733 104.329 234.506 108.204 232.961 108.909C228.251 111.055 224.229 110.705 221.598 109.122C220.62 108.533 219.582 107.04 219.661 103.133C219.695 101.449 219.644 100.884 219.252 94.901C218.728 86.8584 221.892 86.5254 225.111 86.345C228.328 86.1624 230.493 86.5619 230.493 86.5619Z" fill="#F6BE4A"/>
<path d="M230.148 89.6962L229.634 89.6683C228.714 89.6189 228.007 88.8283 228.059 87.9046L228.423 81.1294C228.472 80.2057 229.26 79.4968 230.18 79.5484L230.694 79.5763C231.614 79.6257 232.321 80.4162 232.269 81.3399L231.905 88.1152C231.854 89.0389 231.068 89.7456 230.148 89.6962Z" fill="#F6874E"/>
<path d="M230.28 86.9509L229.766 86.923C228.846 86.8736 228.139 86.0831 228.191 85.1594L228.555 78.384C228.604 77.4603 229.391 76.7514 230.312 76.803L230.826 76.8309C231.746 76.8803 232.453 77.6709 232.401 78.5946L232.037 85.3699C231.986 86.2914 231.2 87.0003 230.28 86.9509Z" fill="#CE6D3E"/>
<path d="M214.969 172.95C214.691 173.04 214.1 173.51 213.995 173.785C213.535 174.991 213.148 176.129 213.261 176.844C213.306 177.124 213.574 177.837 213.85 179.19C214.156 180.681 213.95 183.366 214.777 184.496C215.601 185.626 222.639 188.079 224.202 187.785C225.767 187.491 224.881 182.87 224.761 181.961C224.634 181.003 221.207 176.711 219.782 173.519C219.782 173.519 219.794 173.833 220.021 174.632C220.556 176.501 221.599 180.419 220.141 180.563C218.054 180.767 215.059 177.921 214.935 176.496C214.813 175.089 214.584 173.966 214.625 173.676C214.665 173.382 214.969 172.95 214.969 172.95Z" fill="#992C29"/>
<path d="M236.973 124.863L240.956 128.384C241.374 128.715 241.956 128.455 241.873 127.97C241.586 126.305 240.738 123.493 236.973 124.863Z" fill="#EC5E4D"/>
<path d="M219.772 104.478C219.122 105.719 214.104 121.414 218.925 131.875C218.925 131.875 223.172 127.248 229.238 125.996C241.32 123.504 240.277 126.926 240.588 127.83C240.793 128.432 241.444 128.743 242.043 128.537C242.198 128.483 242.371 128.419 242.564 128.342C245.278 127.255 249.998 125.605 254.391 127.164C254.391 127.164 245.869 112.939 234.472 105.844C223.563 99.0601 220.423 103.236 219.772 104.478Z" fill="#F6BE4A"/>
<path opacity="0.5" d="M241.433 126.905C241.433 126.905 240.305 118.746 237.481 116.254C237.481 116.254 238.609 118.181 238.609 119.652L237.254 118.746C237.254 118.746 238.659 120.825 239.626 122.939C240.474 124.791 240.853 126.692 241.433 126.905Z" fill="#F6BE4A"/>
<path d="M238.206 73.8575C239.861 81.8465 236.616 84.5704 230.999 84.3942C226.778 84.261 223.32 81.5801 223.044 76.2785C222.766 70.9769 224.99 66.6269 229.158 65.9266C234.659 65.0029 237.13 68.6676 238.206 73.8575Z" fill="#CE6D3E"/>
<path d="M236.271 75.6751C236.354 76.0682 236.42 76.4441 236.474 76.8029C237.253 82.1496 234.723 84.0013 230.538 83.8746C227.181 83.7715 224.431 81.6856 224.21 77.559C223.99 73.4324 227.453 70.6635 230.769 70.12C235.147 69.4003 235.414 71.6344 236.271 75.6751Z" fill="#F6874E"/>
<path d="M223.662 80.1233C224.953 79.9238 225.792 78.4183 225.535 76.7607C225.278 75.1032 224.023 73.9212 222.732 74.1207C221.441 74.3201 220.603 75.8256 220.86 77.4832C221.116 79.1408 222.371 80.3228 223.662 80.1233Z" fill="#F6874E"/>
<path d="M223.04 74.0832L224.395 75.5762C224.395 75.5762 224.402 69.3315 229.278 67.6109C233.619 66.0771 235.606 67.7956 235.606 67.7956C235.606 67.7956 233.262 63.9096 227.36 66.4552C222.424 68.584 223.04 74.0832 223.04 74.0832Z" fill="#F6BE4A"/>
<path d="M227.075 74.9488C227.455 74.9488 227.762 74.3718 227.762 73.6599C227.762 72.9481 227.455 72.371 227.075 72.371C226.696 72.371 226.388 72.9481 226.388 73.6599C226.388 74.3718 226.696 74.9488 227.075 74.9488Z" fill="#273150"/>
<path d="M234.137 74.3968C234.516 74.3968 234.824 73.8197 234.824 73.1079C234.824 72.396 234.516 71.819 234.137 71.819C233.757 71.819 233.45 72.396 233.45 73.1079C233.45 73.8197 233.757 74.3968 234.137 74.3968Z" fill="#273150"/>
<path d="M233.328 71.5442L234.612 70.8375" stroke="#273150" stroke-miterlimit="10" stroke-linecap="round" stroke-linejoin="round"/>
<path d="M228.169 71.9114L226.465 71.4517" stroke="#273150" stroke-miterlimit="10" stroke-linecap="round" stroke-linejoin="round"/>
<path d="M234.96 66.6999C234.96 66.6999 236.197 68.21 237.467 68.8566C238.426 69.3464 239.196 69.4366 239.196 69.4366L239.004 69.0499L239.481 68.6805C239.481 68.6805 237.687 68.4914 235.332 66.4743L234.96 66.6999Z" fill="#EE5D4F"/>
<path d="M234.836 66.524C234.836 66.524 235.485 68.3671 236.457 69.4111C237.191 70.1994 237.885 70.5496 237.885 70.5496L237.835 70.1221L238.411 69.9395C238.411 69.9395 236.791 69.1469 235.267 66.4402L234.836 66.524Z" fill="#EE5D4F"/>
<path d="M235.62 67.497C236.079 67.4153 236.513 64.9643 235.423 64.9127C234.398 64.8633 233.236 64.9965 233.428 65.772C233.623 66.5475 235.164 67.5786 235.62 67.497Z" fill="#EE5D4F"/>
<path d="M236.016 66.1029C236.016 66.1029 235.847 65.0524 235.522 65.0761C235.196 65.0997 235.487 65.5487 235.571 66.2404C235.656 66.9321 236.074 66.5476 236.016 66.1029Z" fill="#F7BC4B"/>
<path d="M235.241 66.9901C235.241 66.9901 235.172 66.5068 235.874 66.0385C236.576 65.5702 237.111 65.3146 237.557 65.5939C238.002 65.8731 238.158 67.0954 237.904 67.7119C237.649 68.3284 236.086 67.8601 235.692 67.6281C235.298 67.394 235.241 66.9901 235.241 66.9901Z" fill="#EE5D4F"/>
<path d="M237.796 66.5799C237.796 66.5799 237.943 67.5616 237.507 67.7206C236.858 67.959 237.267 66.1009 237.306 65.8087C237.342 65.5144 237.913 65.8774 237.796 66.5799Z" fill="#F7BC4B"/>
<path d="M220.815 99.4831C220.815 99.4831 223.367 105.193 224.532 106.445C225.705 107.708 227.257 109.111 228.783 108.518C230.305 107.927 230.977 104.123 229.904 102.13C228.845 100.162 226.901 94.4865 226.246 93.5907C225.595 92.6992 223.17 93.3308 221.988 94.0504C220.798 94.7722 219.959 97.35 220.815 99.4831Z" fill="#F6874E"/>
<path d="M227.046 95.1477C227.046 95.1477 224.854 86.2995 221.921 86.6904C219.122 87.0642 218.606 89.4615 218.959 92.7461C219.318 96.1015 220.858 99.6502 220.858 99.6502C220.858 99.6502 221.442 96.4323 227.046 95.1477Z" fill="#EC5E4D"/>
<path d="M226.158 92.2739C226.158 92.2739 224.857 86.2998 221.924 86.6908C219.124 87.0646 218.608 89.4619 218.961 92.7465C219.321 96.1019 219.873 96.7528 219.873 96.7528C219.873 96.7528 220.164 94.6347 220.554 93.3608C220.89 92.2674 223.031 91.7583 223.031 91.7583L226.158 92.2739Z" fill="#C93F37"/>
<path d="M243.683 97.4811C243.683 97.4811 239.252 98.3962 236.78 99.2147C234.601 99.9365 230.868 101.157 228.736 102.669C226.584 104.196 226.336 106.379 226.908 107.805C227.486 109.244 230.262 108.387 232.554 107.601C234.836 106.817 243.514 102.652 245.638 101.275C247.744 99.9064 247.201 96.1428 243.683 97.4811Z" fill="#CE6D3E"/>
<path d="M234.398 100.031C232.051 100.684 230.868 101.157 228.736 102.669C226.584 104.196 226.336 106.379 226.908 107.805C227.486 109.244 230.262 108.387 232.554 107.601C234.839 106.817 236.463 99.4552 234.398 100.031Z" fill="#F6874E"/>
<path d="M245.191 100.261C245.836 101.146 247.471 101.01 248.021 100.542C248.689 99.977 249.087 99.4959 249.511 99.498C249.776 99.498 250.755 99.6827 251.29 99.9255C251.32 99.9835 251.191 100.211 251.215 100.276C251.247 100.366 251.275 100.42 251.371 100.426C251.979 100.469 252.48 100.067 252.448 99.4293L252.386 98.5807L253.009 97.8246L253.129 95.4552L251.063 93.2254C250.96 93.1159 250.815 93.0578 250.665 93.0686L247.856 93.277C247.687 93.2898 247.533 93.3822 247.443 93.524L244.894 97.5282C244.892 97.5303 244.547 99.3756 245.191 100.261Z" fill="#CE6D3E"/>
<path d="M251.187 98.7462C251.382 98.9589 251.688 99.2833 251.951 99.4895C252.236 99.7129 252.469 99.7924 252.45 99.4293L252.388 98.5808L253.165 97.96C253.165 97.96 253.345 96.1212 253.285 95.5906C253.124 94.1814 251.043 93.1353 251.043 93.1353C250.859 93.0429 250.814 93.0601 250.665 93.0708C250.665 93.0708 250.003 94.1685 249.962 94.4993C249.922 94.8302 250.532 96.2845 250.532 96.2845C250.532 96.2845 249.866 97.133 249.83 97.3865C249.742 97.9815 250.51 98.0094 251.187 98.7462Z" fill="#F6874E"/>
<path d="M219.949 94.9955C219.949 94.9955 220.144 93.6723 221.122 93.2792C221.122 93.2792 220.037 96.452 219.87 96.7527C219.703 97.0535 219.705 95.7324 219.949 94.9955Z" fill="#C93F37"/>
<path d="M219.315 88.4565C218.793 89.9602 216.838 95.0599 214.884 106.308C212.929 117.555 216.057 132.07 217.881 133.641C219.705 135.211 226.09 123.57 239.775 130.829C239.775 130.829 230.388 117.321 225.114 113.631C218.662 109.12 219.184 98.1983 219.966 92.379C220.749 86.5618 219.315 88.4565 219.315 88.4565Z" fill="#29ACE4"/>
<path d="M214.884 106.31C212.929 117.557 216.057 132.072 217.881 133.643C219.705 135.213 226.09 123.572 239.775 130.831C239.775 130.831 234.811 123.888 231.733 120.296C231.733 120.296 227.768 126.154 226.751 125.942C226.148 125.815 221.216 126.242 218.283 122.713C215.35 119.183 214.884 106.31 214.884 106.31Z" fill="#1689CB"/>
<path d="M218.115 119.566C218.115 119.566 218.278 120.833 219.725 122.964C221.474 125.54 226.755 126.618 226.755 126.618L228.872 125.215C228.872 125.215 225.965 124.975 223.48 123.729C220.994 122.483 218.209 120.356 218.115 119.566Z" fill="#1689CB"/>
<path d="M227.656 86.0226C226.673 85.7949 221.108 85.3352 219.543 88.0827C217.978 90.828 219.25 95.9127 219.25 95.9127C219.25 95.9127 219.541 91.7217 221.645 90.3877C222.863 89.6143 230.043 92.1406 231.077 92.2995C232.982 92.5938 230.589 89.8485 230.589 89.8485C230.589 89.8485 228.928 86.3169 227.656 86.0226Z" fill="#29ACE4"/>
<path d="M232.199 86.3986C231.523 86.5726 229.633 93.0063 231.497 91.8592C231.988 91.5563 234.687 90.7314 237.769 91.0257C239.822 91.2212 241.438 92.3833 241.582 92.1535C242.072 91.3673 235.079 85.6532 232.199 86.3986Z" fill="#1689CB"/>
<path d="M231.418 91.3027C231.607 91.3027 231.76 91.1488 231.76 90.959C231.76 90.7692 231.607 90.6153 231.418 90.6153C231.229 90.6153 231.075 90.7692 231.075 90.959C231.075 91.1488 231.229 91.3027 231.418 91.3027Z" fill="#273150"/>
<path d="M177.252 117.341C177.252 117.341 177.483 113.038 175.232 112.789C172.98 112.54 168.18 117.528 167.095 118.058C166.01 118.591 165.153 120.305 164.599 120.836C164.045 121.366 162.555 121.772 161.729 122.438C160.9 123.106 158 125.115 160.08 127.358C162.165 129.605 162.953 130.264 165.826 129.04C168.69 127.817 178.001 119.562 177.252 117.341Z" fill="#1D2436"/>
<path d="M172.792 140.91C172.792 140.91 165.191 138.413 156.474 137.307C152.544 136.809 152.345 142.74 154.944 147.313C156.371 149.829 163.986 151.64 171.028 155.128C176.851 158.011 182.162 162.907 184.578 162.806C189.911 162.58 186.522 143.859 172.792 140.91Z" fill="#48598B"/>
<path d="M165.816 143.548C164.656 143.447 166.749 145.715 167.295 146.71C168.884 149.603 170.183 152.907 171.581 155.004C172.816 156.855 171.949 154.374 170.945 151.223C170.489 149.792 170.147 148.422 169.815 147.485C169.629 146.957 165.816 143.548 165.816 143.548Z" fill="#273150"/>
<path d="M166.059 178.232C166.059 178.232 161.6 181.997 160.04 184.03C158.473 186.068 162.658 188.281 166.372 187.77C170.077 187.26 173.59 185.903 174.844 183.879C176.094 181.862 176.103 181.841 178.062 179.675C180.014 177.519 177.327 172.941 176.221 171.979C175.112 171.018 166.671 174.969 166.059 178.232Z" fill="#EC6141"/>
<path d="M166.176 177.25C166.176 177.25 161.717 181.016 160.156 183.048C158.589 185.086 163.044 186.448 166.758 185.937C170.463 185.428 172.993 184.788 174.248 182.764C175.498 180.747 176.41 180.451 178.369 178.285C180.321 176.129 177.444 171.961 176.337 170.999C175.228 170.037 166.788 173.987 166.176 177.25Z" fill="#13161F"/>
<path d="M163.587 171.229C163.587 171.229 164.944 173.317 164.681 174.167C164.417 175.02 163.615 177.385 166.796 178.457C169.506 179.37 176.071 175.452 178.141 174.079C178.509 173.834 178.753 173.439 178.794 173.02C178.905 171.854 178.967 169.452 177.848 168.03C176.328 166.103 176.527 166.657 174.123 160.305C171.738 153.998 164.124 140.878 163.647 139.531C163.169 138.186 156.977 136.906 155.729 137.054C154.479 137.202 149.634 143.625 149.763 145.395C149.891 147.169 152.635 153.309 154.994 158.525C157.366 163.77 160.277 166.202 160.973 167.706C162.063 170.062 163.587 171.229 163.587 171.229Z" fill="#48598B"/>
<path d="M176.278 166.14C175.159 164.047 175.698 167.186 175.109 169.409C174.771 170.685 177.4 168.232 176.278 166.14Z" fill="#273150"/>
<path d="M163.5 170.586C163.5 170.586 164.844 174.086 165.595 174.346C166.347 174.608 168.596 174.313 170.123 173.529C171.649 172.743 166.225 173.987 163.5 170.586Z" fill="#273150"/>
<path d="M152.132 148.108C152.132 148.108 152.95 146.703 153.599 145.416C154.247 144.13 154.555 148.488 153.153 149.61C151.751 150.733 152.132 148.108 152.132 148.108Z" fill="#273150"/>
<path d="M169.054 148.059L164.668 145.898L159.254 141.552C159.254 141.552 160.521 141.578 161.514 142.276C161.964 142.592 164.329 144.557 165.618 145.586C167.17 146.83 168.574 147.56 169.054 148.059Z" fill="#273150"/>
<path d="M195 118.732C195 118.732 172.539 113.768 176.82 110.494C181.073 107.24 192.941 101.382 197.28 107.682C201.649 114.028 197.633 120.988 195 118.732Z" fill="#1D2436"/>
<path d="M203.637 164.333C203.637 164.333 203.988 163.502 205.031 162.778C206.071 162.056 209.297 162.357 209.873 163.64C210.449 164.926 210.442 173.747 210.442 174.344C210.442 174.943 209.284 177.429 208.233 178.889C207.18 180.354 205.196 180.636 203.447 179.948C201.698 179.261 202.882 176.234 203.355 174.788C203.828 173.349 202.82 165.882 203.637 164.333Z" fill="#EC6141"/>
<path d="M202.954 163.648C202.954 163.648 203.016 163.137 204.058 162.413C205.099 161.691 208.325 161.992 208.9 163.274C209.476 164.561 209.759 173.061 209.759 173.658C209.759 174.258 208.601 176.743 207.55 178.204C206.496 179.669 204.512 179.95 202.763 179.263C201.014 178.576 202.198 175.549 202.671 174.103C203.144 172.662 202.136 165.197 202.954 163.648Z" fill="#13161F"/>
<path d="M197.568 166.967C197.568 166.967 201.472 163.618 203.305 163.537C207.218 163.36 206.312 167.309 206.304 170.03C206.297 172.761 204.187 174.771 203.403 175.293C202.62 175.815 203.985 175.549 201.71 178.662C199.422 181.789 195.359 185.538 192.653 185.92C190.592 186.212 183.677 182.567 187.374 175.13C188.53 172.808 195.491 168.933 197.568 166.967Z" fill="#273150"/>
<path d="M184.932 150.413C184.932 150.413 184.209 168.247 184.506 174.986C184.806 181.785 184.498 184.988 186.138 186.67C187.779 188.356 190.759 188.67 192.848 187.978C194.933 187.286 194.184 186.414 195.845 185.95C197.504 185.488 198.694 180.434 199.118 178.726C199.542 177.022 200.674 160.467 201.115 154.482C201.554 148.546 200.364 145.513 195.524 145.573C190.676 145.638 185.804 146.929 184.932 150.413Z" fill="#273150"/>
<path d="M184.492 153.296C184.492 153.296 184.248 169.876 184.481 176.069C184.718 182.318 184.474 185.259 185.765 186.807C187.058 188.356 189.409 188.646 191.055 188.008C192.699 187.372 196.783 181.147 197.117 179.579C197.451 178.013 198.641 167.341 197.571 157.23C196.995 151.795 196.978 148.987 193.163 149.043C189.342 149.097 185.179 150.093 184.492 153.296Z" fill="#47588A"/>
<path d="M171.476 144.693C172.662 146.246 173.95 147.376 175.515 148.615C175.881 148.905 188.286 154.108 188.286 154.108C188.286 154.108 181.325 151.453 182.292 152.147C186.426 155.109 187.505 157.116 192.328 158.293C193.454 158.568 195.795 156.349 196.466 157.083C198.617 159.438 197.853 163.895 198.03 161.693C198.664 153.833 201.393 150.248 195.489 147.176C189.271 143.941 168.166 140.354 171.476 144.693Z" fill="#273150"/>
<path d="M174.147 140.76C174.329 139.131 173.937 132.833 173.999 124.857C174.061 116.967 174.006 113.835 178.561 111.992C183.095 110.157 188.776 109.614 193.083 112.436C195.08 113.744 195.956 142.394 196.337 144.955C196.718 147.524 192.218 151.737 188.151 151.999C184.077 152.263 173.627 145.442 174.147 140.76Z" fill="#F6BE4A"/>
<path opacity="0.5" d="M184.25 142.601C184.25 142.601 183.604 143.812 183.871 144.976C181.498 143.941 179.162 142.77 178.516 141.948C178.516 141.948 180.601 145.479 183.728 146.656C186.856 147.833 189.722 147.309 189.722 147.309C189.722 147.309 185.256 144.227 184.25 142.601Z" fill="#F6BE4A"/>
<path d="M171.44 143.226C171.44 143.31 171.47 143.389 171.528 143.449C171.994 143.939 173.407 146.057 175.58 146.796C176.162 146.994 177.164 146.566 177.168 146.317L177.179 145.808C177.181 145.685 175.965 145.804 175.858 145.748C175.216 145.408 172.504 143.275 171.374 141.935C171.179 141.703 171.442 142.916 171.44 143.226Z" fill="#F4E8D8"/>
<path d="M180.435 111.141C180.986 110.834 173.729 114.359 176.987 128.941C177.854 132.818 176.993 139.587 177.276 140.899C177.561 142.212 178.436 145.142 177.147 145.806C174.761 147.034 172.5 143.258 171.667 142.412C170.375 141.101 173.033 140.487 172.924 135.656C172.808 130.549 171.102 123.424 171.436 120.524C172.2 113.906 174.375 113.394 175.229 112.789C176.161 112.129 179.77 111.515 180.435 111.141Z" fill="#972B28"/>
<path d="M180.434 111.141C180.642 110.368 176.221 112.677 175.616 113.227C175.025 113.764 174.4 114.505 173.833 115.532C172.015 118.814 176.624 127.22 176.624 127.22C176.624 127.22 176.609 119.179 176.784 117.345C176.958 115.515 180.034 112.636 180.434 111.141Z" fill="#F4E8D8"/>
<path d="M180.582 110.507C180.582 110.507 180.362 111.016 180.385 111.639C180.473 114.144 180.995 121.067 181.926 121.153C182.872 121.239 183.309 121.011 184.495 117.13C184.748 116.303 187.261 110.075 186.471 109.538" stroke="#913636" stroke-miterlimit="10"/>
<path d="M182.101 123.293C182.378 123.293 182.602 122.777 182.602 122.141C182.602 121.505 182.378 120.99 182.101 120.99C181.824 120.99 181.6 121.505 181.6 122.141C181.6 122.777 181.824 123.293 182.101 123.293Z" fill="#29ACE4"/>
<path d="M180.412 108.166L180.558 112.075C180.617 113.701 182.105 114.902 183.811 114.7L184.043 114.672C185.68 114.479 186.879 113.061 186.723 111.51L186.331 107.635C186.147 105.807 184.184 104.688 182.362 105.367C181.155 105.818 180.367 106.948 180.412 108.166Z" fill="#CE6D3E"/>
<path d="M188.674 147.745L188.689 148.072C188.698 148.259 188.769 148.433 188.888 148.562C189.747 149.49 193.405 153.341 195.822 154.252C197.682 154.952 200.178 155.083 201.602 155.094C202.278 155.098 202.899 154.658 203.186 153.969C203.374 153.517 203.136 152.995 202.704 152.907C200.538 152.463 194.668 150.965 189.768 147.067C189.304 146.695 188.644 147.103 188.674 147.745Z" fill="#F4E8D8"/>
<path d="M187.194 109.882C186.526 110.402 183.659 115.607 186.059 122.788C188.478 130.034 186.264 143.052 187.834 146.282C188.281 147.202 194.692 153.053 197.126 153.156C198.729 153.223 201.039 153.483 202.642 153.693C203.396 153.792 204.556 152.325 204.582 151.556C204.661 149.124 204.582 143.982 202.951 138.824C200.724 131.78 200.553 111.601 194.906 108.926C190.595 106.883 187.861 109.362 187.194 109.882Z" fill="#972B28"/>
<path d="M194.774 140.122C194.774 140.122 199.31 142.895 200.513 143.286L199.832 144.914C199.832 144.914 194.752 142.141 193.958 141.073L194.774 140.122Z" fill="#F4E8D8"/>
<path d="M187.066 109.495C188.402 108.328 192.747 107.731 194.049 108.562C194.785 109.031 191.305 107.555 189.539 111.55C187.351 116.495 186.563 124.364 186.563 124.364C186.563 124.364 185.375 123.715 184.951 117.423C184.669 113.224 185.728 110.663 187.066 109.495Z" fill="#F4E8D8"/>
<path d="M198.226 137.271C198.226 137.271 198.763 135.701 198.519 134.966C198.275 134.231 197.639 136.732 196.907 137.761C196.554 138.255 197.999 137.439 198.226 137.271Z" fill="#972B28"/>
<path d="M172.847 137.63L172.667 138.498L173.823 137.827L174.035 136.796L172.847 137.63Z" fill="#F4E8D8"/>
<path d="M186.172 154.991C186.172 154.991 188.127 156.136 189.43 157.182C190.734 158.228 193.211 159.047 193.211 159.047C193.211 159.047 190.081 159.569 186.172 154.991Z" fill="#273150"/>
<path d="M171.156 127.561C172.162 130.556 168.889 134.156 165.808 134.186C163.963 134.206 162.576 133.353 161.341 131.647C160.874 131.003 161.159 130.255 160.821 129.551C160.56 129.005 159.646 128.504 159.472 127.98C158.488 124.988 160.191 122.827 163.242 122.528C165.44 122.314 165.894 123.776 167.101 124.324C167.536 124.522 168.846 124.56 169.253 124.814C170.721 125.74 170.663 126.099 171.156 127.561Z" fill="#C93F37"/>
<path d="M170.555 129.48C170.707 131.033 169.731 132.58 168.37 132.934C167.006 133.286 165.782 132.307 165.634 130.75C165.486 129.194 166.152 126.93 167.509 126.582C168.864 126.232 170.403 127.929 170.555 129.48Z" fill="#F4E8D8"/>
<path d="M169.854 129.637C169.965 130.805 169.254 131.972 168.265 132.236C167.276 132.502 166.386 131.763 166.279 130.59C166.172 129.42 166.855 127.102 168.353 127.495C169.34 127.753 169.743 128.47 169.854 129.637Z" fill="#CE6D3E"/>
<path d="M167.98 127.757C167.426 128.195 166.98 129.106 166.824 130.502C166.668 131.898 169.686 133.408 169.686 133.408C169.686 133.408 171.568 134.107 172.822 131.08C173.321 129.875 170.748 127.643 170.767 126.874C170.838 124.083 168.89 127.037 167.98 127.757Z" fill="#F6874E"/>
<path d="M170.373 127.364C170.373 127.364 169.395 127.478 169.592 128.215C169.787 128.949 171.326 130.258 172.94 129.867C174.554 129.476 170.373 127.364 170.373 127.364Z" fill="#CE6D3E"/>
<path d="M160.894 128.541C160.764 127.69 160.852 126.876 160.83 126.711C160.766 126.221 160.049 128.608 160.049 128.608C160.926 129.882 160.961 128.981 160.894 128.541Z" fill="#972B28"/>
<path d="M166.661 124.421C166.661 124.421 164.803 122.754 164.218 125.403C164.216 125.403 165.293 124.715 166.661 124.421Z" fill="#972B28"/>
<path d="M194.925 127.141C193.591 124.975 192.234 122.223 190.836 120.069C189.441 117.921 190.243 111.096 193.281 109.921C196.31 108.75 196.875 110.196 199.671 114.256C202.477 118.333 206.805 129.029 205.467 132.715C204.755 134.676 198.48 135.675 194.925 127.141Z" fill="#1D2436"/>
<path d="M204.604 129.147C203.112 126.992 201.209 125.501 197.317 126.286C195.378 126.676 195.132 128.526 195.132 128.526C195.132 128.526 192.92 128.324 191.912 129.226C190.902 130.131 187.479 129.226 187.588 133.737C187.697 138.249 188.8 140.322 191.805 140.897C194.808 141.473 199.501 137.533 199.501 137.533C199.501 137.533 201.155 137.855 203.354 135.759C205.571 133.645 206.974 132.569 204.604 129.147Z" fill="#C93F37"/>
<path d="M195.633 127.918C195.633 127.918 197.403 126.354 199.143 127.897C199.334 128.066 196.996 127.596 195.633 127.918Z" fill="#972B28"/>
<path d="M187.689 135.645C187.46 139.724 192.33 139.318 192.33 139.318C192.33 139.318 191.397 139.75 191.977 139.909C192.662 140.096 193.86 140.3 194.593 139.787C197.208 137.95 198.666 133.441 195.466 131.594C194.879 131.256 194.706 133.804 194.62 133.07C194.528 132.29 193.702 131.082 192.24 130.316C191.424 129.886 187.972 130.588 187.689 135.645Z" fill="#972B28"/>
<path d="M200.104 130.502C200.104 130.502 199.265 129.619 198.184 129.226C197.103 128.833 195.21 128.393 195.21 128.393C195.508 128.303 200.222 128.01 200.104 130.502Z" fill="#972B28"/>
<path d="M189.877 130.657C189.138 130.702 186.792 130.939 186.612 135.112C186.469 138.481 189.459 139.265 189.459 139.265C189.459 139.265 191.636 139.454 192.628 138.608C193.963 137.467 194.072 134.754 193.244 132.432C192.818 131.241 190.615 130.612 189.877 130.657Z" fill="#F4E8D8"/>
<path d="M188.393 131.432C187.657 131.465 185.516 131.063 185.405 135.024C185.315 138.218 188.307 139.005 188.307 139.005C188.307 139.005 190.478 139.213 191.452 138.422C192.764 137.357 192.828 134.784 191.966 132.569C191.523 131.43 189.129 131.4 188.393 131.432Z" fill="#CE6D3E"/>
<path d="M173.778 117.233C173.778 117.233 174.628 116.075 177.053 116.151C180.442 116.256 184.081 117.276 185.164 118.812C185.967 119.949 186.012 121.102 186.012 121.102C186.012 121.102 187.088 121.207 187.621 121.998C187.957 122.496 187.808 128.762 187.808 128.762C187.75 129.869 187.2 130.629 186.078 130.614L185.128 130.601L173.547 129.083C173.551 129.083 172.671 118.591 173.778 117.233Z" fill="#634874"/>
<path d="M169.785 125.991C169.916 128.999 172.487 129.525 173.227 129.649C175.229 129.985 186.007 130.93 186.007 130.93C186.007 130.93 187.886 130.208 186.814 130.133C186.557 130.116 181.237 128.923 179.495 128.605C176.526 128.064 175.52 126.12 175.52 126.12C175.52 126.12 169.725 124.619 169.785 125.991Z" fill="#7E6391"/>
<path d="M185.618 139.943L186.504 131.108C186.453 130.653 186.095 130.462 184.687 130.214C184.687 130.214 184.006 130.152 183.473 130.098C183.214 130.073 182.589 130.199 182.563 130.981L182.12 140.987C182.081 141.353 183.389 141.097 183.389 141.097C185.322 140.856 185.577 140.768 185.618 139.943Z" fill="#634874"/>
<path d="M175.462 127.413C173.598 128.247 172.384 128.496 170.674 127.667C169.402 127.123 169.051 124.342 169.083 123.469L169.107 120.471C169.175 118.516 170.836 116.933 172.816 116.933C175.665 116.931 177.153 119.158 177.076 121.976L176.976 123.665C176.952 124.535 176.318 127.031 175.462 127.413Z" fill="#634874"/>
<path d="M182.997 140.923L183.241 130.672C183.284 129.832 183.338 129.692 182 129.581L180.793 129.572C179.797 129.626 179.305 130.133 179.275 130.958L179.69 139.151C179.671 140.609 179.483 141.015 180.508 141.097C182.216 141.232 182.978 141.424 182.997 140.923Z" fill="#7E6391"/>
<path d="M178.614 130.908C178.738 132.18 179.004 133.557 180.766 133.995C180.841 134.015 182.223 133.927 182.223 133.927L181.643 130.556C181.654 129.892 181.301 129.54 180.881 129.493L179.393 129.39C178.848 129.327 178.533 130.064 178.614 130.908Z" fill="#7E6391"/>
<path d="M180.095 130.934C180.2 132.144 180.504 133.503 182.026 133.922C182.09 133.94 182.159 133.94 182.225 133.927C183.131 134.002 184.578 133.43 184.588 132.797L184.734 130.217C184.691 130.109 180.883 129.609 180.883 129.609C180.412 129.551 180.025 130.133 180.095 130.934Z" fill="#634874"/>
<path d="M174.78 121.633C174.679 122.685 173.727 123.484 172.652 123.418C171.577 123.351 170.79 122.443 170.892 121.388C170.995 120.335 171.95 119.54 173.022 119.607C174.093 119.676 174.88 120.582 174.78 121.633Z" fill="#1D2436"/>
<path d="M174.192 121.076C174.053 122.539 172.73 123.652 171.236 123.56C169.74 123.467 168.646 122.202 168.789 120.737C168.933 119.276 170.258 118.17 171.748 118.264C173.238 118.359 174.332 119.618 174.192 121.076Z" fill="#F6BE4A"/>
<path d="M173.056 120.859C172.968 121.781 172.133 122.479 171.193 122.421C170.254 122.363 169.562 121.566 169.654 120.645C169.744 119.725 170.579 119.027 171.517 119.087C172.454 119.147 173.143 119.94 173.056 120.859Z" fill="#1D2436"/>
<path d="M177.431 117.242C178.797 118.189 179.137 119.59 178.782 122.056C178.752 122.258 178.915 122.438 179.154 122.475L184.151 123.302C184.452 123.349 185.225 123.566 185.257 123.308C185.39 122.266 185.561 119.291 183.391 118.18C182.365 117.656 179.889 116.939 177.868 116.561C177.371 116.468 177.048 116.975 177.431 117.242Z" fill="#BB83C3"/>
<path d="M177.899 116.368C177.899 116.368 181.515 117.845 180.014 122.857" stroke="#634874" stroke-width="2" stroke-miterlimit="10" stroke-linecap="round" stroke-linejoin="round"/>
<path d="M180.487 116.939C180.487 116.939 183.481 118.922 182.041 123.094" stroke="#634874" stroke-width="2" stroke-miterlimit="10" stroke-linecap="round" stroke-linejoin="round"/>
<path d="M182.45 117.519C182.45 117.519 185.128 119.487 183.987 123.311" stroke="#634874" stroke-width="2" stroke-miterlimit="10" stroke-linecap="round" stroke-linejoin="round"/>
<path d="M178.664 123.57L185.227 124.715" stroke="#BB83C3" stroke-width="2" stroke-miterlimit="10" stroke-linecap="round" stroke-linejoin="round"/>
<path d="M191.02 132.84C191.02 132.84 190.494 130.756 190.194 130.185C190.046 129.903 190.081 129.342 189.74 128.518C189.372 127.624 189.552 126.902 189.158 126.193C188.824 125.592 187.281 126.687 187.343 127.819C187.377 128.46 187.454 129.71 187.625 130.335C187.818 131.044 185.179 130.483 185.179 130.483C184.898 130.384 183.085 130.513 182.79 130.545L180.919 130.571C180.142 130.823 180.011 131.39 180.037 132.208C180.05 132.646 182.148 132.399 183.036 132.543C183.682 132.646 185.123 132.404 185.144 132.498C185.144 132.498 180.2 133.74 179.928 134.378C179.393 135.643 179.547 137.299 179.744 137.546C180.328 138.279 180.373 138.335 180.373 138.335C180.373 138.335 180.339 139.278 181.024 139.74C182.058 140.438 185.35 141.018 185.35 141.018C185.35 141.018 189.233 139.703 189.882 139.086C190.53 138.472 191.339 137.969 191.423 136.008C191.502 134.053 191.02 132.84 191.02 132.84Z" fill="#F6874E"/>
<path d="M179.924 134.376C179.399 135.645 179.543 137.297 179.74 137.544C180.324 138.277 180.369 138.333 180.369 138.333C180.369 138.333 180.335 139.276 181.02 139.737C182.054 140.436 185.346 141.016 185.346 141.016L184.164 138.762C184.164 138.762 183.116 133.613 182.807 133.437C182.499 133.261 180.116 133.912 179.924 134.376Z" fill="#CE6D3E"/>
<path d="M171.088 114.78L170.951 107.908L167.787 110.776L164.174 105.478L163.801 111.74L158.574 111.803L162.628 114.554L160.693 116.922L165.895 117.16C166.357 117.179 163.412 115.914 163.412 115.914L163.75 114.668L162.622 112.741L164.993 112.628L165.445 110.136L167.62 112.258L169.848 110.817C169.846 110.814 171.09 114.829 171.088 114.78Z" fill="#F6BE4A"/>
<path d="M167.726 131.566L170.117 133.78C170.158 133.817 170.207 133.841 170.263 133.847C170.785 133.905 174.026 133.86 175.09 133.69C175.554 133.617 176.682 132.459 177.887 131.276C178.264 130.904 178.534 130.687 178.917 130.221C179.129 129.963 179.183 129.626 178.894 129.46C178.894 129.46 178.42 129.196 178.159 129.392C178.046 129.478 178.037 129.445 178.065 129.381C178.123 129.246 178.065 129.089 177.928 129.033C177.663 128.926 177.256 128.831 176.856 129.033C176.269 129.327 176.333 129.246 176.333 129.246C176.333 128.969 176.023 128.64 175.616 128.625C175.073 128.603 174.64 128.921 174.557 128.988C174.546 128.997 173.81 129.162 173.157 129.473C172.382 129.843 171.234 129.36 170.631 129.13C169.52 128.709 167.799 128.664 167.638 131.362C167.638 131.437 167.67 131.514 167.726 131.566Z" fill="#F6874E"/>
<path d="M190.809 98.9177C189.738 105.014 187.713 106.144 187.713 106.144C178.885 109.401 171.53 105.727 170.783 100.402C169.818 95.0575 169.171 92.2541 178.147 90.512C187.065 88.7827 191.75 93.5645 190.809 98.9177Z" fill="#1D2436"/>
<path d="M189.811 97.7366C188.899 102.903 181.242 101.412 181.242 101.412C179.695 101.006 174.365 99.9278 173.361 97.06C172.504 94.6154 171.383 91.8636 178.997 90.3857C185.93 89.0409 190.614 93.1954 189.811 97.7366Z" fill="#3D4C6D"/>
<path d="M188.797 100.553C188.797 100.553 189.431 98.8838 188.842 97.0751C188.842 97.0751 191.169 97.6143 188.797 100.553Z" fill="#1D2436"/>
<path d="M175.517 92.6586C175.517 92.6586 170.249 94.0635 169.66 95.0903C169.072 96.1192 171.703 107.545 173.865 110.013C176.031 112.488 185.632 108.407 187.357 105.698C188.77 103.483 188.081 102.727 187.732 99.8205C187.37 96.7916 184.711 95.5263 184.187 94.4845C183.298 92.708 175.517 92.6586 175.517 92.6586Z" fill="#CE6D3E"/>
<path d="M186.653 101.363C187.04 103.345 185.101 107.874 181.111 109.096C177.106 110.325 173.867 110.011 172.212 105.751C170.515 101.38 174.83 95.4145 178.801 94.2245C182.757 93.0408 185.3 96.9032 186.653 101.363Z" fill="#F6874E"/>
<path d="M175.096 100.897C175.254 101.593 174.98 101.981 174.618 102.067C174.254 102.153 173.94 101.906 173.783 101.208C173.625 100.512 173.792 99.8763 174.156 99.7904C174.516 99.7066 174.937 100.201 175.096 100.897Z" fill="#34273A"/>
<path d="M180.224 95.8097L179.209 96.8429" stroke="#34273A" stroke-miterlimit="10" stroke-linecap="round" stroke-linejoin="round"/>
<path d="M174.787 98.9523L173.361 99.0446" stroke="#34273A" stroke-miterlimit="10" stroke-linecap="round" stroke-linejoin="round"/>
<path d="M179.604 98.426C179.773 97.8847 180.685 96.8342 181.836 97.1565C181.836 97.1565 180.293 98.6365 179.764 99.1328C179.683 99.208 179.572 98.5291 179.604 98.426Z" fill="#34273A"/>
<path d="M188.555 98.1447C188.592 99.9083 187.77 101.455 186.719 101.592C185.668 101.73 184.788 100.407 184.756 98.6409C184.724 96.8772 185.548 95.3434 186.595 95.2081C187.641 95.0706 188.519 96.3853 188.555 98.1447Z" fill="#F6874E"/>
<path d="M180.865 90.433C180.865 90.433 172.418 99.6163 169.533 100.742C166.639 101.872 168.09 93.9903 172.333 91.1956C176.552 88.4202 180.865 90.433 180.865 90.433Z" fill="#1D2436"/>
<path d="M181.414 90.2677C181.414 90.2677 181.516 90.91 179.782 92.0678C176.781 94.0721 171.008 97.1611 169.546 97.7304C167.23 98.6326 169.017 93.4985 172.327 91.1355C175.852 88.62 181.414 90.2677 181.414 90.2677Z" fill="#3D4C6D"/>
<path d="M175.632 92.8496C175.632 92.8496 173.288 96.3769 170.841 97.5025C170.839 97.5046 176.638 94.9505 175.632 92.8496Z" fill="#1D2436"/>
<path d="M183.014 92.7703C183.014 92.7703 183.617 97.1052 184.484 98.2115L186.192 99.7517L185.037 93.608L183.014 92.7703Z" fill="#3D4C6D"/>
</svg>
