<svg width="242" height="272" viewBox="0 0 242 272" fill="none" xmlns="http://www.w3.org/2000/svg">
<path d="M94.1703 101.751C94.1703 101.751 81.4048 88.2513 92.1763 72.7641C102.948 57.277 124.887 42.5878 152.412 48.5423C179.937 54.4967 178.739 90.6326 177.144 95.3977C177.144 95.3977 187.116 85.0746 199.483 98.5744C211.848 112.074 188.313 143.841 188.313 143.841C188.313 143.841 203.869 135.503 205.866 141.46C207.86 147.417 135.26 198.242 121.3 205.785C121.3 205.785 127.682 193.874 114.917 202.212C102.151 210.55 103.747 215.712 84.2004 222.86C64.6539 230.009 39.5237 243.11 35.5357 243.11C31.5478 243.11 46.7055 226.434 55.4806 220.08C64.2556 213.727 68.6443 211.742 68.6443 211.742C68.6443 211.742 52.6875 194.669 66.2521 181.962C79.8142 169.255 84.6012 176.801 84.6012 176.801C84.6012 176.801 57.0762 139.874 97.3667 137.49C97.3667 137.49 79.5621 135.42 82.209 118.034C84.1979 104.925 94.1703 101.751 94.1703 101.751Z" fill="#F3E7D9"/>
<path d="M24.4976 134.442L37.2605 147.678L53.0838 130.206L24.4976 134.442Z" fill="#665070"/>
<path d="M53.084 130.206L30.8452 141.011L30.878 147.678L53.084 130.206Z" fill="#856792"/>
<path d="M38.6245 48.4596L61.6599 59.2293L79.8099 38.3849L38.6245 48.4596Z" fill="#856792"/>
<path d="M79.8103 38.3849L52.8575 60.8528L48.9805 53.5935L79.8103 38.3849Z" fill="#BB83C3"/>
<path d="M164.378 34.8443L194.495 27.1007L182.128 41.9907L164.378 34.8443Z" fill="#856792"/>
<path d="M194.495 27.1007L172.755 38.6157L174.151 46.161L194.495 27.1007Z" fill="#BB83C3"/>
<path d="M77.4175 216.901L99.4899 209.489L88.3201 224.577L77.4175 216.901Z" fill="#856792"/>
<path d="M99.4899 209.489L82.1592 220.173L82.2524 224.916L99.4899 209.489Z" fill="#665070"/>
<path d="M138.272 112.438C134.362 112.92 125.26 121.818 118.917 129.285C110.709 138.946 100.548 149.269 96.2776 151.444C90.9839 154.144 85.0776 157.622 82.5542 157.753C82.5542 157.753 94.8836 169.529 99.8673 173.468C104.851 177.408 101.892 169.167 108.277 173.032C114.662 176.896 125.776 188.712 125.776 188.712C125.776 188.712 131.113 186.838 138.764 179.084C148.759 168.957 163.241 125.863 160.521 118.636C157.801 111.409 141.958 111.221 138.272 112.438Z" fill="#992C29"/>
<path d="M103.286 173.717C103.603 173.202 108.665 166.101 110.437 164.144C112.209 162.187 98.7607 172.585 98.7607 172.585C98.7607 172.585 100.296 174.063 101.513 174.462C102.655 174.836 102.968 174.231 103.286 173.717Z" fill="#C94039"/>
<path d="M152.48 118.935C152.48 118.935 162.377 117.725 166.751 115.454C171.124 113.183 167.411 95.9246 157.938 94.8858C147.113 93.6964 135.323 101.033 128.999 106.496C122.674 111.959 126.43 118.315 136.934 120.106C147.587 121.926 152.48 118.935 152.48 118.935Z" fill="#29ABE2"/>
<path d="M129.333 112.957C130.11 118.556 148.431 116.322 154.005 115.557C159.578 114.792 163.468 109.633 162.691 104.035C161.915 98.4364 156.768 94.5194 151.191 95.2873C145.615 96.0551 128.557 107.359 129.333 112.957Z" fill="#992C29"/>
<path d="M123.092 105.324C123.092 105.324 120.498 104.928 118.106 103.339C115.714 101.751 114.365 97.2846 114.516 96.3913C114.753 94.9786 118.504 91.428 120.302 91.6263C122.097 91.8245 125.686 97.5832 125.686 100.361C125.684 103.139 124.887 105.126 123.092 105.324Z" fill="#FFFCF3"/>
<path d="M119.568 101.852C119.568 101.852 119.568 105.919 122 108.157C124.433 110.396 132.538 112.022 136.79 108.157C141.043 104.293 140.844 98.5971 140.844 98.5971L136.183 100.632C136.183 100.632 123.823 97.5808 122.404 97.5808C120.985 97.5808 119.568 101.852 119.568 101.852Z" fill="#FFFCF3"/>
<path d="M120.799 101.154L123.093 98.9708L125.185 104.032L120.799 101.154Z" fill="#F6BE4A"/>
<path d="M119.072 100.433C119.282 100.344 119.365 100.07 119.257 99.8213C119.15 99.5731 118.893 99.4446 118.684 99.5343C118.474 99.6241 118.391 99.8982 118.498 100.146C118.605 100.395 118.862 100.523 119.072 100.433Z" fill="#1D2538"/>
<path d="M122.86 97.8501C123.067 97.7582 123.141 97.4743 123.026 97.2161C122.91 96.9578 122.649 96.823 122.441 96.9149C122.234 97.0068 122.16 97.2907 122.275 97.5489C122.391 97.8072 122.652 97.942 122.86 97.8501Z" fill="#1D2538"/>
<path d="M128.761 101.32C130.695 108.659 136.876 109.332 143.899 109.492C148.121 109.588 152.182 107.487 154.441 104.198C155.938 102.015 156.642 99.3121 156.067 96.3788C154.63 89.0266 145.575 84.914 138.552 84.7559C131.529 84.5928 126.684 93.4354 128.761 101.32Z" fill="#273252"/>
<path d="M139.103 89.7263C139.477 87.5505 136.758 85.2714 133.03 84.6358C129.302 84.0002 125.976 85.2488 125.602 87.4247C125.227 89.6005 127.946 91.8796 131.674 92.5152C135.403 93.1508 138.728 91.9022 139.103 89.7263Z" fill="#273252"/>
<path d="M140.306 86.9411C141.515 85.4925 140.197 82.4179 137.362 80.0739C134.528 77.7298 131.25 77.004 130.041 78.4527C128.832 79.9013 130.149 82.9759 132.984 85.3199C135.819 87.664 139.097 88.3898 140.306 86.9411Z" fill="#273252"/>
<path d="M155.037 96.0254C157.436 93.9173 157.083 89.6146 154.246 86.4153C151.41 83.2159 147.165 82.3313 144.765 84.4395C142.365 86.5477 142.719 90.8503 145.555 94.0497C148.392 97.2491 152.637 98.1336 155.037 96.0254Z" fill="#273252"/>
<path d="M163.876 99.0244C164.207 94.4617 160.721 90.4928 156.09 90.1595C151.459 89.8263 147.437 93.255 147.105 97.8177C146.774 102.38 150.26 106.349 154.89 106.683C159.521 107.016 163.544 103.587 163.876 99.0244Z" fill="#273252"/>
<path d="M157.745 90.5822C159.092 86.0521 155.38 80.9644 149.454 79.2186C143.528 77.4727 137.632 79.7298 136.285 84.2599C134.938 88.79 138.65 93.8777 144.576 95.6235C150.502 97.3694 156.398 95.1123 157.745 90.5822Z" fill="#273252"/>
<path d="M129.404 101.191C131.013 107.176 138.431 108.81 144.159 108.907C147.602 108.965 150.042 107.64 151.867 104.945C153.08 103.156 152.127 99.4199 151.648 97.0261C150.446 91.029 144.406 86.8561 138.678 86.7582C132.951 86.6603 127.677 94.7627 129.404 101.191Z" fill="#48598B"/>
<path d="M138.986 90.1287C139.307 88.2588 136.971 86.3002 133.767 85.754C130.563 85.2078 127.705 86.2808 127.383 88.1507C127.061 90.0205 129.398 91.9792 132.602 92.5254C135.806 93.0716 138.664 91.9986 138.986 90.1287Z" fill="#48598B"/>
<path d="M139.891 87.1692C140.715 86.1822 139.816 84.0862 137.883 82.4878C135.95 80.8894 133.715 80.3938 132.891 81.3809C132.067 82.368 132.966 84.464 134.899 86.0624C136.832 87.6608 139.067 88.1563 139.891 87.1692Z" fill="#48598B"/>
<path d="M153.347 97.4446C155.409 95.6335 154.647 91.4201 151.644 88.0337C148.642 84.6473 144.537 83.3702 142.475 85.1813C140.414 86.9924 141.176 91.2058 144.178 94.5922C147.181 97.9786 151.286 99.2557 153.347 97.4446Z" fill="#48598B"/>
<path d="M160.321 99.3561C160.605 95.4347 157.61 92.0237 153.63 91.7373C149.651 91.4509 146.193 94.3977 145.909 98.3191C145.624 102.24 148.619 105.651 152.599 105.938C156.579 106.224 160.036 103.277 160.321 99.3561Z" fill="#48598B"/>
<path d="M155.457 91.2437C156.615 87.3501 153.426 82.9777 148.334 81.4777C143.242 79.9777 138.176 81.918 137.019 85.8116C135.861 89.7052 139.05 94.0776 144.142 95.5776C149.233 97.0777 154.299 95.1373 155.457 91.2437Z" fill="#48598B"/>
<path d="M120.221 171.852C120.221 171.852 120.848 175.037 137.93 177.325C144.9 178.258 151.741 177.89 157.214 177.731C161.819 177.598 170.347 176.01 174.25 174.695C178.127 173.39 181.595 170.558 172.667 164.006C163.72 157.444 124.708 160.212 120.221 171.852Z" fill="#EE5D4F"/>
<path d="M165.017 182.982C165.184 185.902 164.78 193.124 160.886 193.516C157.064 193.899 154.654 191.039 153.144 186.723C150.991 180.573 141.778 151.681 151.506 150.366C161.233 149.051 162.325 153.34 163.714 158.948C165.1 164.554 164.71 177.574 165.017 182.982Z" fill="#273252"/>
<path opacity="0.4" d="M164.803 187.809C164.697 188.426 161.889 184.042 161.889 184.042C161.889 184.042 161.579 174.495 160.026 173.506C154.569 169.499 149.827 171.983 149.827 171.983C147.14 162.332 145.365 151.194 151.506 150.363C161.234 149.048 162.325 153.336 163.714 158.945C164.521 162.199 164.728 167.95 164.818 173.262C164.884 177.102 165.34 184.657 164.803 187.809Z" fill="#273252"/>
<path d="M168.765 194.268C173.411 208.136 174.684 219.726 176.043 236.689C176.582 243.419 172.458 242.518 171.057 237.477C169.227 230.9 163.814 217.23 157.772 198.528C155.937 193.866 165.4 184.22 168.765 194.268Z" fill="#CC6D3D"/>
<path d="M166.217 193.309C171.957 208.033 172.554 217.383 173.729 232.019C173.845 233.46 174.009 234.614 173.895 235.59C173.635 237.811 171.339 238.885 170.429 235.615C168.851 229.939 162.972 214.924 157.762 198.789C156.176 194.764 162.897 184.79 166.217 193.309Z" fill="#F5894E"/>
<path d="M166.873 190.23C166.132 189.011 163.561 183.28 156.369 184.983C154.372 185.455 154.4 189.181 156.47 195.326C157.904 199.59 158.322 200.596 158.454 200.922C158.454 200.922 163.969 197.71 169.964 197.74C169.964 197.74 168.6 193.076 166.873 190.23Z" fill="#273252"/>
<g opacity="0.4">
<path opacity="0.4" d="M163.847 187.121C163.847 187.121 165.034 187.088 166.436 189.628C168.092 192.631 169.93 197.71 169.93 197.71" fill="#273252"/>
</g>
<path opacity="0.4" d="M158.38 190.83C158.38 190.83 161.932 191.266 163.107 189.839C163.107 189.839 162.666 192.162 161.443 192.662C160.221 193.161 159.003 191.979 159.003 191.979L160.117 191.796L158.38 190.83Z" fill="#273252"/>
<path d="M171.298 238.799C171.581 243.697 171.81 249.963 182.279 249.318C187.59 248.992 181.379 242.548 179.597 240.177C179.597 240.177 176.476 236.275 176.227 235.665C175.589 234.11 173.098 233.603 171.581 236.619C170.797 238.177 171.258 238.089 171.298 238.799Z" fill="#CC6D3D"/>
<path d="M169.996 240.724C169.786 241.572 169.945 242.847 171.112 243.677C173.57 245.421 177.593 247.04 181.74 246.824C186.948 246.55 176.545 244.036 175.675 242.779C174.803 241.522 174.611 236.24 173.951 234.571C173.18 232.619 172.945 234.057 172.027 235.502C171.11 236.947 170.23 239.77 169.996 240.724Z" fill="#F5894E"/>
<path d="M170.961 236.782C170.961 236.782 170.792 236.905 171.639 238.744C174.836 245.687 176.631 245.84 181.032 246.041C183.931 246.174 179.708 240.315 179.708 240.315L176.459 236.119C176.459 236.119 179.361 238.895 181.851 242.026C183.381 243.951 185.247 245.607 185.879 246.771C186.994 248.495 188.181 251.235 186.744 251.469C181.924 252.244 175.67 250.696 174.528 250.041C173.386 249.386 173.336 247.737 171.947 245.943C171.42 245.263 169.625 243.933 169.562 243.341C169.544 241.818 169.497 241.309 169.935 239.514C170.402 237.612 170.961 236.782 170.961 236.782Z" fill="#992C29"/>
<path d="M139.735 231.422C140.766 234.659 139.995 235.306 139.143 236.393C132.828 244.453 131.084 241.555 130.035 242.119C126.541 243.999 126.208 239.733 127.779 238.757C129.289 237.816 131.638 234.2 133.511 232.318C134.386 231.437 134.429 230.915 135.672 230.684C136.97 230.441 139.302 230.055 139.735 231.422Z" fill="#F5894E"/>
<path d="M139.929 235.5C136.665 245.419 128.452 243.326 126.824 242.671C126.151 242.4 130.139 237.422 130.139 237.422C130.139 237.422 134.855 235.899 137.378 234.621C140.023 233.281 140.9 232.554 139.929 235.5Z" fill="#CC6D3D"/>
<path d="M140 231.538C139.703 231.051 139.662 231.282 139.594 231.65C139.067 234.506 138.893 235.648 136.753 238.19C136.025 239.055 136.141 240.9 129.697 241.555C126.965 241.833 130.139 237.422 130.139 237.422L133.708 232.075L132.627 233.244C132.627 233.244 128.382 238.476 126.675 239.723C125.004 240.942 123.282 246.453 124.946 246.52C129.188 246.696 133.189 246.044 136.506 245.06C138.049 244.513 138.81 241.193 139.403 240.947C139.403 240.947 140.986 239.683 140.958 238.804C140.928 237.961 140.419 232.22 140 231.538Z" fill="#992C29"/>
<path d="M130.904 190.004C130.904 190.004 127.282 170.929 130.415 160.975C132.291 155.018 136.334 153.72 140.781 153.633C145.228 153.545 146.317 156.972 145.853 160.729C145.389 164.485 143.362 185.006 142.041 189.748C140.625 194.845 137.29 194.656 135.152 194.757C132.664 194.875 131.63 193.63 130.904 190.004Z" fill="#273252"/>
<path opacity="0.4" d="M137.794 174.848C136.055 173.819 129.218 173.616 129.218 173.616C129.054 169.175 129.286 164.56 130.413 160.975C132.288 155.018 136.332 153.72 140.779 153.633C145.225 153.545 146.314 156.972 145.851 160.729C145.649 162.36 145.152 167.15 144.547 172.437C144.547 172.437 143.093 184.833 142.399 187.698C142.236 187.625 141.558 184.727 140.504 180.118C139.808 178.524 139.533 175.877 137.794 174.848Z" fill="#273252"/>
<path opacity="0.4" d="M132.195 192.2C132.195 192.2 135.389 191.914 136.617 191.148C137.842 190.383 134.489 195.469 132.195 192.2Z" fill="#273252"/>
<path d="M142.039 193.74C146.097 205.052 143.009 210.64 139.646 231.721C139.336 233.665 135.482 235.231 134.32 232.388C134.128 231.916 134.154 230.998 134.098 229.952C133.692 222.221 130.617 203.208 131.504 195.735C132.187 189.974 140.037 188.165 142.039 193.74Z" fill="#F5894E"/>
<path d="M143.884 200.997C144.056 202.934 144.111 205.767 143.542 209.742C142.69 215.694 141.049 223.197 140.862 224.494C140.554 226.654 139.637 231.972 139.38 233.314C139.218 234.155 136.735 235.153 136.735 235.153C136.735 235.153 138.094 230.576 138.402 229.41C139.037 226.991 141.88 209.93 142.289 201.419C142.339 200.433 143.711 199.035 143.884 200.997Z" fill="#CC6D3D"/>
<path d="M142.778 191.517C141.253 187.603 139.415 186.828 136.249 186.915C133.582 186.991 131.338 186.956 131.406 193.209C131.452 197.286 131.449 200.26 131.341 201.948C131.341 201.948 134.716 200.368 143.948 201.341C143.95 201.344 143.789 194.112 142.778 191.517Z" fill="#273252"/>
<path opacity="0.4" d="M142.778 191.517C142.463 190.75 142.544 193.434 142.544 193.434L142.274 201.206C142.274 201.206 142.647 201.208 143.948 201.344C143.95 201.344 143.963 196.664 142.778 191.517Z" fill="#273252"/>
<path d="M128.068 121.963C128.068 121.963 122.719 131.099 121.577 133.072C119.45 136.745 122.621 139.096 125.192 137.44C127.763 135.784 133.534 127.34 134.671 125.315C135.805 123.29 130.844 119.446 128.068 121.963Z" fill="#CC6D3D"/>
<path d="M137.991 114.403C136.617 113.309 132.911 114.694 130.408 118.265C127.635 122.219 126.866 123.966 126.866 123.966C126.866 123.966 129.311 123.79 130.393 125.027C132.152 127.037 133.446 129.22 133.446 129.22C133.446 129.22 136.284 124.904 137.875 121.963C139.352 119.233 139.765 115.818 137.991 114.403Z" fill="#C94039"/>
<path d="M139.8 138.007C144.01 141.967 155.553 137.041 155.845 133.059C155.969 131.365 156.377 127.421 157.794 120.192C158.681 115.67 158.792 114.197 158.26 113.595C156.866 112.014 151.91 111.685 146.828 111.186C138.447 110.363 137.958 112.373 135.419 116.363C132.324 121.228 131.522 130.219 139.8 138.007Z" fill="#F7BC4B"/>
<path d="M152.278 121.604C156.488 125.564 155.644 136.108 155.936 132.126C156.059 130.432 156.377 127.423 157.794 120.194C158.681 115.673 158.792 114.2 158.26 113.597C156.866 112.017 153.771 108.9 146.46 109.653C138.081 110.516 137.413 113.525 134.726 117.7C131.607 122.545 144 113.813 152.278 121.604Z" fill="#CE9436"/>
<path d="M136.354 119.022C134.766 119.991 133.559 121.143 133.559 121.143C133.559 121.143 133.745 119.05 135.086 116.93C136.097 115.331 145.028 116.839 145.028 116.839C145.028 116.839 137.363 118.408 136.354 119.022Z" fill="#CE9436"/>
<path d="M146.261 115.996L146.914 116.006C148.401 116.029 149.624 114.845 149.647 113.367L149.72 108.408C149.742 106.928 148.553 105.711 147.068 105.688L146.415 105.678C144.928 105.656 143.705 106.84 143.682 108.318L143.609 113.276C143.587 114.757 144.774 115.974 146.261 115.996Z" fill="#F5894E"/>
<path d="M146.169 110.559L147.215 110.574C148.594 110.594 149.728 109.497 149.748 108.125L149.826 102.775C149.847 101.402 148.745 100.273 147.366 100.253L146.32 100.238C144.941 100.218 143.807 101.315 143.786 102.687L143.708 108.037C143.688 109.409 144.79 110.539 146.169 110.559Z" fill="#CC6D3D"/>
<path d="M165.745 122.217C167.764 125.993 170.232 130.906 170.927 132.126C171.689 133.458 172.178 138.13 170.38 139.277C168.583 140.424 165.944 137.132 164.973 136.208C164.003 135.287 160.189 129.263 158.797 126.073C157.706 123.569 157.932 120.663 159.266 119.838C160.599 119.01 163.725 118.44 165.745 122.217Z" fill="#F5894E"/>
<path d="M165.745 122.217C167.764 125.993 170.24 130.901 170.928 132.126C171.273 132.738 171.261 133.112 171.253 133.543C171.245 133.975 172.13 137.036 171.457 136.396C170.925 135.892 166.736 127.875 165.11 124.151C163.774 121.082 164.832 120.51 165.745 122.217Z" fill="#CC6D3D"/>
<path d="M156.114 113.781C158.101 112.842 161.025 113.645 163.503 118.152C164.804 120.518 166.596 123.685 166.596 123.685C166.596 123.685 163.425 124.545 159.56 127.581C159.56 127.581 157.952 125.132 156.742 122.831C154.196 117.989 154.564 114.513 156.114 113.781Z" fill="#EC5E4D"/>
<path d="M156.115 113.781C158.102 112.842 161.026 113.645 163.504 118.152C164.804 120.518 166.597 123.685 166.597 123.685L165.175 124.154L161.752 121.86L155.906 120.927C154.179 116.887 154.734 114.433 156.115 113.781Z" fill="#C94039"/>
<path d="M159.183 122.189C159.183 122.189 162.727 122.498 164.051 123.113C165.372 123.727 165.115 124.151 165.115 124.151L159.183 122.189Z" fill="#C94039"/>
<path d="M165.336 167.702C165.336 167.702 168.001 166.375 167.197 164.681C166.392 162.987 164.104 162.842 164.104 162.842L165.336 167.702Z" fill="#C93F37"/>
<path d="M156.486 135.42C156.486 135.42 172.529 158.892 173.635 161.958C174.744 165.032 178.488 169.032 178.286 170.628C177.25 167.559 167.142 168.327 165.337 167.704C165.337 167.704 169.083 165.366 165.992 164.179C162.901 162.992 155.79 162.711 151.608 162.688C139.122 162.626 124.618 164.688 120.204 172.025C120.204 172.025 128.101 137.403 138.129 130.061C147.958 122.859 156.486 135.42 156.486 135.42Z" fill="#F7BC4B"/>
<path d="M156.486 135.42C156.486 135.42 172.529 158.892 173.635 161.958C174.744 165.032 178.488 169.032 178.286 170.628C177.25 167.559 167.142 168.327 165.337 167.705C165.337 167.705 169.083 165.366 165.992 164.179C162.901 162.992 155.79 162.711 151.608 162.689C139.122 162.626 124.618 164.688 120.204 172.026C120.204 172.026 123.791 163.198 153.108 152.478C159.513 150.135 156.486 135.42 156.486 135.42Z" fill="#CE9436"/>
<path d="M138.272 112.438C134.363 112.92 124.957 121.381 118.612 128.849C110.405 138.509 99.1768 149.066 94.8914 151.209C89.9909 153.658 79.9731 158.556 77.4497 158.686L82.5922 162.044C82.5922 162.044 93.8024 160.789 102.23 150.579C112.424 138.228 129.273 116.847 138.272 112.438Z" fill="#29ABE2"/>
<path d="M143.103 117.434C150.161 116.179 164.129 119.507 164.111 119.354C163.352 112.895 155.528 109.841 152.006 109.402C149.667 109.515 144.449 112.571 143.103 117.434Z" fill="#29ABE2"/>
<path d="M140.914 110.406C143.13 109.793 146.027 115.612 146.327 116.591C146.627 117.57 138.32 115.161 124.645 124.171C119.946 127.265 135.873 110.907 140.914 110.406Z" fill="#29ABE2"/>
<path d="M144.94 116.33C145.298 116.33 145.588 116.041 145.588 115.685C145.588 115.329 145.298 115.04 144.94 115.04C144.582 115.04 144.292 115.329 144.292 115.685C144.292 116.041 144.582 116.33 144.94 116.33Z" fill="#273150"/>
<path d="M131.27 110.385L133.385 114.398L132.23 115.607L132.129 116.945" stroke="#1D2538" stroke-miterlimit="10"/>
<path d="M133.384 114.398L133.399 115.509L133.992 116.536" stroke="#1D2538" stroke-miterlimit="10"/>
<path d="M136.463 112.807L136.556 113.979L137.224 115.03" stroke="#1D2538" stroke-miterlimit="10"/>
<path d="M133.762 108.897L136.462 112.807L135.393 114.142L135.388 115.557" stroke="#1D2538" stroke-miterlimit="10"/>
<path d="M136.545 112.729L137.289 112.774L138.348 113.946" stroke="#1D2538" stroke-miterlimit="10"/>
<path d="M153.343 136.03C153.343 136.03 151.082 129.81 149.355 128.751C147.625 127.692 143.638 124.382 143.638 124.382L122.894 127.426L127.814 133.646L129.41 137.353L153.343 136.03Z" fill="#F3E7D9"/>
<path d="M127.478 129.943C127.178 129.892 124.884 130.736 124.884 130.736C124.884 130.736 126.878 129.544 126.78 129.147C126.679 128.751 125.984 128.354 125.984 128.354L122.293 129.546L120.574 131.182C120.239 131.501 120.175 132.01 120.425 132.399C120.735 132.883 121.126 133.488 121.297 133.714C121.469 133.942 121.59 135.039 121.847 135.947C122.033 136.615 123.044 137.435 123.044 137.435C123.044 137.435 125.736 137.982 126.583 137.287C127.43 136.592 129.873 134.359 130.123 133.563C130.123 133.563 129.724 132.771 129.175 132.72C129.175 132.72 129.175 131.827 128.976 131.528C128.777 131.23 128.179 130.736 128.179 130.736L127.478 129.943Z" fill="#F5894E"/>
<path d="M153.209 131.629C153.209 131.629 153.64 130.603 153.108 129.544C152.576 128.485 150.017 127.855 148.82 127.162C147.522 126.407 147.491 128.485 148.953 129.677C150.415 130.869 151.479 132.555 153.209 131.629Z" fill="#F5894E"/>
<path d="M134.993 130.602L153.607 125.177L147.093 142.516L143.236 133.912L134.993 130.602Z" fill="#856792"/>
<path d="M153.342 125.177L143.103 133.25L143.501 137.222L153.342 125.177Z" fill="#665070"/>
<path d="M168.765 132.72C168.765 132.72 163.373 131.293 159.763 131.9C156.153 132.507 154.351 131.611 153.381 133.217C152.41 134.823 153.32 136.416 155.861 136.906C158.402 137.395 163.857 140.258 166.58 139.972C169.466 139.668 171.029 139.859 171.561 137.882C172.093 135.905 170.883 132.6 168.765 132.72Z" fill="#F5894E"/>
<path d="M156.267 134.178C156.267 134.178 155.42 131.96 154.356 130.638C153.292 129.315 152.695 129.197 151.49 130.166C150.285 131.135 149.188 132.078 148.124 132.078C147.061 132.078 143.637 131.797 142.707 132.59C141.777 133.383 142.707 133.516 142.707 133.516C142.707 133.516 141.379 133.779 141.643 134.309C141.908 134.838 143.504 134.971 143.504 134.971C143.504 134.971 144.701 135.764 145.099 135.897C145.498 136.03 150.169 137.039 150.169 137.039C150.169 137.039 154.008 136.693 155.072 135.897C156.133 135.104 156.267 134.178 156.267 134.178Z" fill="#F5894E"/>
<path d="M153.427 96.6492C155.064 96.0467 155.796 93.9545 155.062 91.976C154.327 89.9975 152.404 88.8821 150.766 89.4846C149.129 90.0871 148.397 92.1794 149.131 94.1579C149.866 96.1363 151.789 97.2517 153.427 96.6492Z" fill="#CC6D3D"/>
<path d="M136.587 88.294C136.216 89.8447 139.249 90.6953 142.433 91.4481C145.617 92.2034 148.5 91.556 148.871 90.0078C149.242 88.4571 146.96 86.5902 143.776 85.8374C140.59 85.0821 136.958 86.7433 136.587 88.294Z" fill="#273150"/>
<path d="M151.455 94.0627C148.994 86.0231 141.702 85.5388 139.972 85.6994C131.349 86.5073 128.815 91.5861 131.785 100.617C133.847 106.885 136.683 107.851 140.802 108.185C145.755 108.586 154.528 104.102 151.455 94.0627Z" fill="#CC6D3D"/>
<path d="M149.521 97.4428C147.295 91.4607 140.779 91.0693 139.236 91.1822C139.236 91.1822 133.017 93.2071 131.84 94.8482C130.663 96.4892 132.848 101.874 132.848 101.874C135.117 107.144 136.569 107.422 140.249 107.688C144.676 108.007 152.301 104.915 149.521 97.4428Z" fill="#F5894E"/>
<path d="M143.436 88.3241C135.117 86.8185 130.832 91.5861 130.832 91.5861C130.832 91.5861 134.429 83.1249 142.427 85.062C151.754 87.3204 151.273 92.4041 151.25 95.0991C151.25 95.0991 149.929 89.4984 143.436 88.3241Z" fill="#F6BE4A"/>
<path d="M152.809 87.5236C153.217 88.1434 150.996 90.8484 149.751 89.5938C148.581 88.4119 147.457 86.9038 148.523 86.4421C149.587 85.9804 152.398 86.9038 152.809 87.5236Z" fill="#C94039"/>
<path d="M152.257 88.5373C152.257 88.5373 150.727 90.0303 150.195 89.7267C149.663 89.4231 150.694 88.9639 151.657 87.9602C152.62 86.954 152.882 87.8975 152.257 88.5373Z" fill="#F7BC4B"/>
<path d="M148.098 87.0669C148.098 87.0669 148.912 91.0365 150.616 93.6211C151.904 95.5758 153.228 96.6447 153.228 96.6447L153.248 95.779L154.48 95.7389C154.48 95.7389 151.372 93.2823 149.003 87.1397L148.098 87.0669Z" fill="#C94039"/>
<path d="M148.412 88.5424C148.412 88.5424 148.322 92.4016 149.464 95.1643C150.328 97.252 151.432 98.5242 151.432 98.5242L151.654 97.7237L152.925 97.9471C152.925 97.9471 150.316 95.0087 149.32 88.8008L148.412 88.5424Z" fill="#C94039"/>
<path d="M143.487 97.8095C143.971 97.694 144.188 96.8693 143.971 95.9677C143.754 95.0661 143.186 94.4289 142.701 94.5445C142.216 94.6601 141.999 95.4847 142.216 96.3863C142.433 97.2879 143.002 97.9251 143.487 97.8095Z" fill="#273252"/>
<path d="M135.199 100.133C135.609 100.048 135.8 99.3035 135.625 98.4706C135.451 97.6376 134.977 97.0315 134.566 97.1167C134.156 97.2019 133.965 97.9462 134.14 98.7792C134.315 99.6121 134.789 100.218 135.199 100.133Z" fill="#273252"/>
<path d="M141.51 91.6814C141.51 91.6814 142.697 91.4028 143.383 92.2936" stroke="#273252" stroke-miterlimit="10" stroke-linecap="round" stroke-linejoin="round"/>
<path d="M133.118 95.0111C133.118 95.0111 133.566 94.0852 134.353 93.8644" stroke="#273252" stroke-miterlimit="10" stroke-linecap="round" stroke-linejoin="round"/>
</svg>
